<mxfile host="65bd71144e">
    <diagram id="Q0Bqb7_0KAcd7Om0uFCT" name="Page-1">
        <mxGraphModel dx="1965" dy="836" grid="1" gridSize="10" guides="1" tooltips="1" connect="1" arrows="1" fold="1" page="1" pageScale="1" pageWidth="827" pageHeight="1169" math="0" shadow="0">
            <root>
                <mxCell id="0"/>
                <mxCell id="1" parent="0"/>
                <mxCell id="170" value="" style="edgeStyle=none;html=1;" parent="1" source="160" edge="1">
                    <mxGeometry relative="1" as="geometry">
                        <mxPoint x="349.2977272727271" y="55" as="targetPoint"/>
                    </mxGeometry>
                </mxCell>
                <mxCell id="160" value="ElsterBot" style="text;strokeColor=none;fillColor=none;html=1;fontSize=24;fontStyle=1;verticalAlign=middle;align=center;" parent="1" vertex="1">
                    <mxGeometry x="327" y="10" width="100" height="40" as="geometry"/>
                </mxCell>
                <mxCell id="162" value="" style="sketch=0;outlineConnect=0;fontColor=#232F3E;gradientColor=none;fillColor=#BF0816;strokeColor=none;dashed=0;verticalLabelPosition=bottom;verticalAlign=top;align=center;html=1;fontSize=12;fontStyle=0;aspect=fixed;pointerEvents=1;shape=mxgraph.aws4.waf_bot;" parent="1" vertex="1">
                    <mxGeometry x="660" y="114" width="34" height="34" as="geometry"/>
                </mxCell>
                <mxCell id="165" value="" style="html=1;verticalLabelPosition=bottom;align=center;labelBackgroundColor=#ffffff;verticalAlign=top;strokeWidth=2;strokeColor=#0080F0;shadow=0;dashed=0;shape=mxgraph.ios7.icons.user;" parent="1" vertex="1">
                    <mxGeometry x="397" y="287" width="30" height="30" as="geometry"/>
                </mxCell>
                <mxCell id="166" value="" style="html=1;verticalLabelPosition=bottom;align=center;labelBackgroundColor=#ffffff;verticalAlign=top;strokeWidth=2;strokeColor=#0080F0;shadow=0;dashed=0;shape=mxgraph.ios7.icons.message;" parent="1" vertex="1">
                    <mxGeometry x="440" y="80" width="200" height="136" as="geometry"/>
                </mxCell>
                <mxCell id="167" value="" style="shape=callout;whiteSpace=wrap;html=1;perimeter=calloutPerimeter;" parent="1" vertex="1">
                    <mxGeometry x="440" y="260" width="200" height="100" as="geometry"/>
                </mxCell>
                <mxCell id="168" value="&lt;div style=&quot;text-align: justify;&quot;&gt;now we are almost at the end of tax filing. Is there any additional information or specific details you want to include in this tax filing process?&amp;nbsp;&lt;br&gt;If yes just describe the situation, I will assit you on this.&lt;/div&gt;" style="text;html=1;strokeColor=none;fillColor=none;align=center;verticalAlign=middle;whiteSpace=wrap;rounded=0;" parent="1" vertex="1">
                    <mxGeometry x="450" y="125" width="180" height="26" as="geometry"/>
                </mxCell>
                <mxCell id="169" value="&lt;div style=&quot;text-align: start;&quot;&gt;&lt;font color=&quot;#111111&quot;&gt;&lt;span style=&quot;background-color: rgb(255, 255, 255);&quot;&gt;yes, I have undertaken a high medical expenses due to my parents's illness. Could I include it here?&lt;/span&gt;&lt;/font&gt;&lt;/div&gt;" style="text;html=1;strokeColor=none;fillColor=none;align=center;verticalAlign=middle;whiteSpace=wrap;rounded=0;" parent="1" vertex="1">
                    <mxGeometry x="449" y="279" width="170" height="30" as="geometry"/>
                </mxCell>
                <mxCell id="175" value="" style="shape=image;verticalLabelPosition=bottom;labelBackgroundColor=default;verticalAlign=top;aspect=fixed;imageAspect=0;image=data:image/png,iVBORw0KGgoAAAANSUhEUgAABFoAAANmCAYAAADKIe/LAAAAAXNSR0IArs4c6QAAAARnQU1BAACxjwv8YQUAAAAJcEhZcwAAFiUAABYlAUlSJPAAAP+lSURBVHhe7P0PfF3FfeeNU5Js0mTTZJvmCU2WdJNuumn6bDdELa3y1Hlp41f9PKTR5kms/PqghoLqTdGaIhZiAUFxwK6DEaCoJigOGNl1hBMUB0c2MXIxshGWjZCxHRlsZDBX4PgCxgLDdQS+tsz3N985c+6dM2fOuefce650JX3er9fnZev8nTNnZs7M586fcwgAAAAAAAAAAAAAJAKMFgAAAAAAAAAAAICEgNECAAAAAAAAAAAAkBAwWgAAAAAAAAAAAAASAkYLAAAAAAAAAAAAQELAaAEAAAAAAAAAAABICBgtAAAAAAAAAAAAAAkBowUAAAAAAAAAAAAgIWC0AAAAAAAAAAAAACQEjBYAAAAAAAAAAACAhIDRAgAAAAAAAAAAAJAQMFoAAAAAAAAAAAAAEgJGCygrmVOj9PiRG2n9/s9T59BHaOWu99CdO8/NqWPnO2nV479L6/Z+hnpHvk4jr9xLb515VZ0NAAAAAAAAAABML2C0JMArv9lL9zz+YY+BkKTu3ftp+k02re7mh/fxMbZzXXH4OJyTwdt0lkZe+TH9eM9/Fvd+hy8shcTmy9onPkG7nr+OxrMvqqt62frM31vPnQwFvY/pkA6C9Q66e/CD0gz72fBfiPi9lEZffYBOT5xUV59c9q+9hq65ppW2HlMbZiLHtlLrNeI51+5XGxSZo3Tw0Kt0Rv05HTlz/Fk6eCSj/gIAAAAAAGB2AaMlAWC05Dnx1jOioX6huGd8g8UmNl1+su9PpXHDBo4LjBY/pRktdv1w17+jn+77b774T4z9a+iaa66h1odeVhscpsxoOZOhZ/vvpTtuuZGuXcRhYF1LLUvaaM1D++nVJN0Pq9Fyhgbvdu5771NqU0XwMm29xY2PIK0h50lGadMS/ruNth6XGwAAAAAAAJhVwGhJABgtDr9+vY/W7P6P1vuXqvX7q+nM2XF1JxgtNsphtOha+8QnafS1X6q7JUQFGS1njm6nlYuVaXBtC7X+YA3du+5euvfuNrrx2+72NtqUelOdUSIBPVpGe26U99leUb15XKNlGd3BcWLVAB2Vx2Zo8EfX0jU3dtPBU3IDSIgzj6+ia27ZKt4GAAAAAACoZGC0JACMFqIXMwO0euj3rfcuVR273kX70t9Xd3KA0eKn3EYLi+fY2TnanFzvlkoxWo5tpTbZg6WFVj70LGV8j3eGXn3iXlrGxyxqo60vqc2lEDR0qCJxjRa31wqYCmS+gNECAAAAAFDxwGhJgNlutPA8Hvc/+QXrfZPQj/f8oZxUVwdGi5/JMFpYPJxo6MgSddcSqQij5c3ccJ02Ixwmb4rwtrA5kkRjF0YLiMOp/XRvS0JpDwAAAAAAlBUYLQkw242Wp16+m1Y+9tvW+yah7Ycb1Z3ywGjxM1lGC+uuwQ/IyXJLpqDRwj1J7qc7ll0rj2Nde2MbdT9hmSxWXutG2vS8+P+ZV2nPfa25eVbatoWsZPX6dmrjay/bpIa+hPEmDf6Qr9lC3YfUJkbe29l25vgeuv8Hy/JzvHz7Rmq7b5COmiOOAowWq8mkjr1jR4Yo8yxtX9tGLdeq6/Mwp7s30cGgR3z1IG26uzV//LeX0R0/3xNzvpk4RkvAscXEkeDM66M0+MAqarsxnwZyz2D2PCriHk58B2uN/hCnXqb9D/EcPi10rXuMiP+2tdtpNOD9rnpcRPSbo553du3iNlqz86hKw5zGu6ltsXq+RdfSje3dtOd4/gUd7c2nZa8md3gdAAAAAACIBoyWBJjNRgsPIYnam4XD8NChv6PHj9yU047U/6YNT9ao+PNPoLvq8Q9R+o1+dbc8MFr8TKbRwuL3ps+bUxShRssyWiMap9zwbL3bnQdkFbWq+VJ8vU/UtdbsFQ39NnEMN4D5vDV30Kan1TEWMjvukOfd2OPtNRWEe/yyXu3+6t4rN2ySQ5CuvXVVbu6SVbeoBnTbVnpZNwaKMFpuXLeJ1iwW119yB61R11+z4kbn+ovX0H6zsf+SGhK16Ea6Y406/gc3OibBjff6jw8kKaMlZhwJDt7XItPAsh+sofsfGqTBh+7PH3/3IHkeoYh7ZJ7fQ3v2mhqge5fxMyyjTZr7lukX6ZEnR24X131gO+3pF+/Djf9lm2jU8n6XbdhK9/I7y4VFS8MPj4r3LZ7vWsv7WXQHDbzuXMoJ4/10B29fsoa258J5kF7GPDgAAAAAABUHjJYEiNLA5qWOebJYPjauXnvz6dA5MabSaHntzYO0evfHrPfM6x3UO/L1gksF8/Cgx4/cKOOKVxviczcemGd99udf2+wxbMLEpgzPLeIPV17r93/eeq5NT7600mowcPxWejpg4+rw2M891+X5dfYcvUW+o3994g/EcdFWjOJeLfweSiLUaBFqWUN7zFWC39xDa3gIxSLRkNejQ12rZbFouLY9SEcj9tiQk8+K89ZEzR7Pb6IbOWy6QaLuzb0p1jzhCzDtWSPCxPfQnYcijBa+RutmtydEnpd7W519ejyefZa6eXJfSxy+udcZAtXys2fVlkIkZ7TEiiPmzQxlfO8yQ9vb+VrGykbF3sPANdNadTONOSXCYjE2pBkkjvesFKW9M58pmEvDQhaDzPo+RWyu4eth6BAAAAAAQMUDoyUBuLFaqIFdqDdCKUyl0fLM8Z/Sjx57n/Werni550Imi8mJNw/RtsPflKZAqUQJI5sxpTJT0gH3IFq39zPW803tev56dVaRFDBazO0uB9fxfsOMcBvZi1bRYOSeGvl7FWp853Ab0HqD1713UCP4qXv9z1OM0WKaSy7HtzrDn7RrnXlilbxnW79pODBqCeag6/lwzZNg5Z+tgNESJ45CePkhx4zwvLck7iHiWvYCsvSuCcSWjt131tJNBy3XcdOd9f1Y0waMFgAAAACA6QKMlgSYzUYL94Sw3U/X0JGl6uipAUZLXlHTAfcu6trzR9Zr6Np44P9WZxSJrYEqcBqhxjwoGk4jO8BoMYyLQiRptAT2EFHnWBvicYyWHwyQzTYRZzmNcO1ajhm1jB4MWCHJep9AXPMkeHnnB59yQxZutMSKoxDCjJai73FWhJ2HncVdWcqWjt13dvegfz4hgRP/ak4hH/73mdsGowUAAAAAoOKB0ZIAMFrs92SxwcFGx1QCoyWvOOngiV/fLM4JH0bUPfznpc3TYmugCgqZAGFGS9SGukuSQ4cC721r4LsN8ThGi3FsHrNhfia3klK43PvYe6zkwxtgnlgJN1pixREjJ6C9n1a130g36hPiKtmMltj3ULz8EM/BwnOnBJx/JkOjj22iNT9opRuXaBPiKnmuW+CdhadxGC0AAAAAANMZGC0JAKPFfk9H75AN9qkERktecdIBz7/C87DYruOq5OepAKPlzOPOEJskJsON1cAPaIgnY7RkaOAHznXu3elOnGqTO5lqhg5uLqKXipXkjJY3n+6mZbnJfDflJ4E9dJSe7Vkmr5eY0eJOHBzUa+ilAVrJc95cw5Mz309bH1NheWqUXn3MSUNR3q8LjBYAAAAAgJkLjJYEmM1Gy/CLd1DHrndZ7+mKVyWKO0dLksBoyStOOpiU56kAo6W45Z2NIR8VZ7QUHjoUj6kwWp6lbjlh7CoatDgfYUOHYr0H5uzL9CCHOXB+H9e4Wkb3pywDgWz3LfDOYLQAAAAAAMxcYLQkwGw2WqL0euBeLVufuTR0xZxyAqMlrzjpIMq7/em+/0ZvnXlVnVEEAQ3jSTVa6Azt6eT7XUN39Ic/y5viHrxazzXt2729Hopp4Ac0xJMyWtyeOvHjw8YUGC3uM6/Z4/xt4MRTMkbLqOwd00Jr9gbNoqzi9+YHrSaHa/p4rlvgncFoAQAAAACYucBoSYDZbLREubejd9D9++dQ5tQL6szJA0ZLXnHSwWMvtIhzwudoKe9kuJNltAheH6A7eNiIaGyv7D9KZyyeYObZTc7QEttEqRVotOSWdxbh3ZSyGQhnKPN61OWZpsBoOTVIq/iZlm2iUeN95AwvoZKNlkPdzlLXIu6CY8NdpcnS48UdcmRet8A7i2+0hIQBAAAAAGAGM356gr7/2LNUs6af3rush8658X6p3xb/523f3/WsPKaSgNGSALPZaGG2H2603tOmlbveQ1ufuYTGsy+qs8sPjJa8oqaDaKsOvUOaMSUR0DCedKOFyc3BIfTtG6ntbjVXyZo7qHWxmoT12gDTopgGfkBDPDGjhWET4Fq+3jV07a2rcnOv8GSuLbw98HomU2C00Bk6uK7FCfstq+j+hwZp8KH7RdhvpGuvaaFVnc5cOSUZLa4Zdc0yuneHmnPF0MGXnKFCLz/sTJR7zY130JoHttOe/k10792tdO2ia6itc5WcIDnK+3WJb7QQHX3AmZfmmptX0qb+PbT9gXtp4IjaCQAAAABQBl7qvZfOuXIT7VJ/53jjGbrztrvpE1eupHOuupu+uD6ldiTLqj2j9HutD+TMlSB9SBzDx1YKMFoSIEoDu1hFaZhPtdEyNi4aBbv/o/W+QbrrsffTtsPfnBTDpZKMlmI1meng5cwg3ferC6zn61r1+Ico/Ua/OqtIKsloYc5k6Nn+e+mOW0RjXvVS4MlPW265g+59aD+9alunl6lUo4XJHKXBn2tmEUsaSZto8GgF92hhzr5Ke0TYl31bhXvRtXRj+xrazmbX8a1ybp2SjBY3XkOUv9abNNq/htpy8eiki/v38nCzg3SvSC+e+xZ4Z8UYLXQ2Qwd/3uaYZLz/28toU3nqNAAAAACYzgxvonOuXEnLhtXfFnatXukzUE7sWE/nXbma7nxObRDYjZbjtG6ZOP/GTbR59Dilnt5Du0blCguJ0vzQkz5DpZD4nEoARksCzHajhRk6soR+uOvfWe8dppWPvZd4/pZyGi4wWvKypYOJt7PSLOOJjXl4V9T3mEScAQAAAAAAABKmSKPlrSc20SeuWkvrtBUirEbL6Hb6YoHrl8rSR572GCjvXLKBLv75EN35+HP0y0Mv0b3DR+iKzfvo339vo+c4Fp871cBoSQAYLSQnumXDpNCcHkHiHi47UlfTW2fG1BWTA0ZL8lr7xCfpxJuH1J0BAAAAAAAAFUORRosNq9Eir38vrQvoRFwqjz5/3GeebEu9ovZ6efbVk/SB5SI8xvF8jakERksCwGhx4CWce56aK+5XnNnC+tcn/oBGX/ulumIywGhJVmyKjbxyr7orAAAAAAAAoKKY5kbL36zb6TNO/u7+ITr2m1P03W0H5f5LNuymt844E+D+0+Zf+Y7nY6YSGC0JAKMlDw9D4blXihlG5IrP5WvwtZIARktyuufx36Nnx9arOwIAAAAAAAAqjmKNFouB4jFaTqVo3cr7qPoaPlfTam2oztnXaFf3evrSImffeYtW04J1T9JLp9X+Ajz32m98pgnrXUt+Qe8zhgkdeOUNeU7brmc8211NJTBaEgBGix/ulcLDS2xhiaZ3yN4xSQwlgtGSjHiCXJ4oFwAAAAAAAFDBlMtoOXuKTryRoRM7N4hta+meZ8T/+e831dLKZ1+mdbeI615zL92+7Una+3SK+rZtpq9ds5LOu2UHpc46h4Wxeu/zVtPElN5j5cuWHjCsqQRGSwLAaLHDPVIGX/huSXHzi6e+KIcklQKMltK0euijtPvX30ushxEAAAAAAACgjCijpbBiGi0uluOYE/330Xm83Vzn5MAWukDcr2Wo8MpE120tvNLQ/+4dprNvvy2Pv37rU9ZjWFMJjJYEiNLA/vGe/0y/fr1PHhtHr735tJxoNoxKNVpc2CgZfOE7RZoQ76Bdz1+nrlQclWS0THU6iK93UN+z/6DukCzPPfccBEEJCAAAAADAgzJaFqx/kvqesOvOtqSNlgxtbhfXbH+cTqgteZ6mZSI85/34GfV3MP+4aa/VNHGl92S5/IHwY6cSGC0JwA3hQg3sKD0SiqXSjRaXYnu4cI+KsfHi1w6rJKNlqtNBMeLJb589/jN1l+SwNRghCIovAAAAAAAPymhJfOiQi9VoSdHt17o9ZQKkz+USQKEeLT/Zf0Qed8uOQ9b9uqYSGC0JAKMlHtzDZdfz18sGvC2sfr2DHnuhRZ0dHxgtea16/EN0eOznMqyuDry8iu4a/ID1eFfr9v5J4uG2NRghCIovAAAAAAAPU2m03LXHmbfFJnculxDW7Aufo+Vv1z9ON20/SHNW91v365pKYLQkwHRoYFeS0eJy4q1nqPtXf2YNr6nu4T+nM2fH1ZnxgNGSV1A64OFB4ctyJz+EyNZghCAovgAAAAAAPEyJ0aKGDi3bQS+pLcWQOmFfdcjVf7hlE9WseZTeuWSDdb+uqQRGSwLAaCke7t3CE97awqxr9e6P0WtvHlRnxQNGS15B6SBzapS69vyR9RxXSQ8hsjUYIQiKLwAAAAAAD1NitLiT4a4W9y3uB3KXoFWEWE+knRlg7nz8Oet+V3yNqQRGSwLAaCmNE28eKrgU9N2D/4GOvr5dnREPGC15haWDp16+m1Y+9tvW81yt2/sZacokga3BCEFQfAEAAAAAeJgio4WXd77/Nr7uSvra6h20WU28u7n3YfrWbXfT7SHh0dnxwpjVPPktoeyEs0DIQMAxrvgaUwmMlgSA0VI6Dz79VWu4XbFRwoZJMcBoySssHfCqRpsOXGQ9L693iLi6tOAKSFGwNRghCIovAAAAAAAPU2W0MGczdHDbJlrQcjedJ8LA4fjE9atpweodtNe/HFEgy/qfthooX7p3J63bf4Q+u/Jh634WnzvVwGhJABgtpcNGhy3crmC0FCaJdPDyycflKk+2c13xEKKRV+5VZxSPrcEIQVB8AQAAAADMRAqtQGQTn1MJwGhJgNlqtLx15lXac7SVMqdeUFuKZ+OB/9sable8Wg6bAMUAoyWvKOlg8IXF1LHrXdbzXSUxhMjWYIQgKL4AAAAAAGYqq/c+T//Hrb+0miq6+Bg+tlKA0ZIAs9Voce/7w13/ju7fP4dGX/tlUUNK0m88Sp1DH7GG29XaJz5Br791WJ0RDxgteUVJBzxB8c+GL7Sen1fpQ4hsDUYIguILAAAAAGAmc+rMWVoxeJi++K+P0r//3sacufJ+8f+5Yhvv42MqCRgtCRClgf3jPf+Zfv16nzw2rl578+nQBm2UBjb3CDk89nPr9aPKDIftvncPfpA2P/0Vev61zTTxdlYdGczLmcGCq92w7n/yC0U36ivJaJnqdBDVcBt99QG6a/AD1mu44jgdeeXH6oz42BqMEATFFwAAAAAAqCxgtCQAN1wLNbBLUaFeEFEa2EnIDEeh+67c9R768Z4/pN6Rr9PjR26i1KsbZVzxv7uev55+NvwXsjeM7VxdPIxlX/r76q7xqSSjpRQlkQ6iGi1M37P/IM55h+8autgkK3YIka3BCEFQfAEAAAAAgMoCRksCwGixH5+UCj1/IWC05BXHaGEDJUpvo4ee+UZRvY1sDUYIguILAAAAAABUFjBaEgBGi/34JLTysd+mp16+W92xOGC05BXHaGE47vkd2K7lqth3ZGswQhAUXwAAAAAAoLKA0ZIAMFrsx5eqjp3vlMNXip2bxQVGS15xjRaO+00HLrJeS9faJz5JJ948pM6Khq3BCEFQfAEAAAAAgMoCRksCwGixH1+KeO6W7YcbSzZZGBgtecU1WhheVnv10Eet19PFhkyc92VrMEIQFF8AAAAAAKCygNGSALPVaHnrzKvU89Rc2fPEdnyxWrP7fHru1V+ou5QOjJa8ijFamMEXFstJiW3XdMXm2K9eXKHOKIytwQhBUHwBAAAAAIDKAkZLAsxWo8WFh4zwEJ/VQ78vjgtfpSZY75DDT/YcvTXSstBxgNGSV7FGy+mJk/Sz4Qut19TFPV+4B0wUbA1GCILiCwAAAAAAVBYwWkCicGP/yZdWyiWd1+39jGjY/55c5tlskN81+DvSmPnFU1+kPUdvodfefFpdAcwWbA1GCILiCwAAAAAAVBYwWgAAU8KpU6cgCEpAAAAAAACgsoDRAgAAAAAAAAAAAJAQMFoAAAAAAAAAAAAAEgJGCwAAAAAAAAAAAEBCwGgBAAAAAAAAAAAASAgYLQAAAAAAAAAAAAAJAaMFAAAAAAAAAAAAICFgtAAAAAAAAAAAAAAkBIwWAAAAAAAAAAAAgISYEqPlzjvvhAIEAAAAAAAAAACA6cukGy1nzpyBoRAAxwvHDwAAAAAAAAAAAKYnk2q0nD17lt58800YLQFwvIyPj9PExAS9/fbbOQEAAAAAAAAAAGB6MGlGC5ss3Fvj5MmTMFoC4HjJZDJ0+vRpn9kC0wUAAAAAAAAAAKh8JsVoYZOFxQbCG2+8AaMlAI4Xjp9sNiuNliCzxRUAAAAAAAAAAAAqi7IbLWwIsMnCpgEbCCdOnIDREgDHy2uvvUanTp2SvX84zjjuTIPFFAAAAAAAAAAAACqDshotrhHgGi1vvfWWNBJgtNjheHn11VflPDa60RLFbGEBAAAAAAAAAABgaimb0aIbAGwUsHHARgsbCUkaLXv27KGWlhZ5beb111+nJ554QpoUQbz44ou0f/9+9VflwPFy/PhxOSGuO3zINVpgtgAAAAAAAAAAAJVP2Y0WNgjYMOD5WbinxtjYWKDRkkql6Mtf/jJVVVV5tHHjRnWEH9No2bdvH1111VVy0l1mx44dvvM3b95Mt9xyiwxTJcHx8sorr9BvfvMbOXyIw+f2bGHphkqYAAAAAAAAAAAAMDWUxWjRG/2uScA9NLinBvfYCDNampqa5DwuUTGNFh02ee66665Qo6aS4Hg5duyYNIn4edhoYblxyELPFgAAAAAAAAAAoHKZVKOFe2pwj41ijRa+Hhsrf/u3f0t/8Rd/Qc3NzbRlyxa66aabckaLa7zw6j0/+tGPaN68eVRbW0t///d/T2vXrpXHsPFyxx13yP8zPNzo9ttvp+rqavrv//2/05o1a2SPEobDwtd77rnn6Nvf/ra8L9+DOXjwIDU2NspeNxymXbt25UwOPqa9vZ3+7d/+jb761a/K86644gp6/vnn5X4bHC8vvfSSDDv3/gkyWlzp8WwTAAAAAAAAAAAAJpdJMVp4+AsbF2y0cI+NYo0W3v8P//AP9Mwzz8i/X375ZVq4cCF95zvf8Rkt7t9sqJg9WnSjhQ2gm2++mXp6eqR5wQYHmy5stnD4OSx8Dw7XyMhIzsD49a9/Tf/rf/2vXFheeOEF+uY3v5mb+4XDMWfOHFq/fr28B1/7/vvvp2XLlknzxIZptHCc8bn68CHdaGHpcW0TAAAAAAAAAAAAJo/EjRa9kc9GgG60ZDIZaY6EGS3mHC38N29nfvKTn8hzdQPh4Ycf9hgrcY0WvvaNN94ohzW58Dwv3/rWt+Q2NlouvfRSeuSRR9ReB74Gh0fnhz/8YW4bh6OhoUGusuRSyEjiZ0un07KHDd/bNVrYmOE4dA0XmC0AAAAAAAAAAEBlMmlGCxsfbLRwj41ie7TYTBPTWIlrtPDxurHjis0VDgeLw+SaPS58vu08/bp6OJioRgvv594/fK5ptASZLSw97k0BAAAAAAAAAACg/JTdaGFjgI0CHgrDQ2Iq0WgxDRGdMKPFvK5OsUYLD0niXjDuhLgsW6+WuGYLAAAAAAAAAAAAys+kGC1sFCRhtNiGDvHyzaUYLTzHCs+twnPH2AgyWn72s5/RrbfeKg0PG6UYLa+++qrs/cPDh3SjxTVbXKPFZrbo8W8KAAAAAAAAAAAA5eWcO3eeS0nqBwOadpxLdzx6Lq145Fxq33Yu3f7QufS9TeK4Io0WNkV49SB3Alo2JK6//vrQyXA7Ozvl/XRDRDda2MT43ve+R//yL/8ie5EwbHIcPXpU/j/IaGFDhMPS19eXMzzYrOH5VZhijZZ//sW51PqgiKut59L3+5x4+xcRfyv68+I4vYPjVonj2SP9HRiyvTMIgiAIgiAIgiAIgpJR2Xu0cC8MvUfLiy++GGq0mJPhstweKXxNXkLZXd75qquukj1abrnllkCjhXvQ/NM//ZO8zl133SW36UYLw/Oh8D5e2pmP4+WYN2/eLPcFGS3M6OionDSXw8K6/PLLc8cVa7Tw6kVjY2Myrjhc+upDbs8WcwhRnJ4tAAAAAAAAAAAAKB9lM1rcBr9utHBvjzCjZbbD8fL888/T8ePHc0aLPnzIlWu0hJkturliCgAAAAAAAAAAAOWhrEYLN/5htESH44V7ybDRwnHFQ5lcowW9WgAAAAAAAAAAgMoHRksF4Rotr7zyihxexEaLO3xIN1s4TqOYLbq5ogsAAAAAAAAAAADlYdKNlnQ6DaMlAI4XnsfFNVp4Ul7XaGGx0cIyjRaYLQAAAAAAAAAAQGVQNqPFbfTDaImOa7Tw6kWvvfaaNFrc4UPo1QIAAAAAAAAAAFQ+MFoqCI6X5557Lme08IS4hYwWm9miGy1BZgsAAAAAAAAAAACSZ1KNFh4OA6MlGN1oefXVV6XRwr1a2GhxJ8VlcXyW2qsFAAAAAAAAAAAAyTNlRkuQhoaG1JXiw+farjmdpBst3APInKclbPhQUK8W3WDRBQAAAAAAAAAAgGQpi9HCjXub0eKuOnTgwAFpiuzatYt27NhB/f39tH37dtq2bRt1d3cXZbbwOT/96U/p3/7t32jLli0VIw6PqYceeoi2bt0q1dfXJ5+d4+GJJ56QRsvLL78shw4VMlrCerXAaAEAAAAAAAAAACafshktrtniGi1sELBpwL01lvz8XPrOunPphh+fS9f/67l03epz6dpOR82rzqXv/ehvYpktfOw///Bv6OqV51a8rnH1o3Np0d2O+JmvX+PEyT9vOJeW//JcurX3XLrt386l27eeS9/vc9S+zdG/PHIurXDV7+iOR5V2OPqBrgG77twJQeeqXAQAAAAAAAAAIAnKbrRwLwvdaBkbG6ObNzmGwk3rz6Ub7zuXviu0+CeO0SANmK5z6ZZ7opktfMzNd/+NNCp0sXlTSfKE71/PpW+vdcTPys+8+KdOfCz7RTSjJWe2BBgtUcwWW6Mbmn0CAAAAAAAAAJAck2q08BAYHg5zy+Zz6XubzqVlPY7hsvR+x2SQxku3Y76wWleHmy2875bOv8kZNK5a7o0vNjxKke2aNplhZYOFn5Wf/Z9/4cQLx49utLQ97DVbPEaLMltgtEDFCgAAAAAAAABAcky60cK9Wm7dci7d8uC5tPyBc+l7Gx3DhXtysNHgGi88vIh167/azRbexkaM2yPGFRsXlSY9fCzXSGJTyX1Ofm6OC44Tjhs2WWC0QJMhAAAAAAAAAADJMSlGC4sncOXJXE+ePCkNBDZbWh90em/wUBlpumxSMsyX29d6zRb+/21im2tSuHJ7xVj1symSFgYzvGwoscHCz8nPy0OqOD44XqTJ8pBjskQxWmxmC4wWKIpMzrnxfgiCEpTJpk2bIGjaCAAAAADxKbvR4potbLRwr5bx8XFpHLCJIA2XXmW4cA8XNlyU6cKmg2u6sG7/sWO2sPj/sveL6gHjio2LIJkmx2RJD4MeVg67NFiE+Dn5efnZOR5yw4ZgtECTIBNbQxGCoOJlYmvMQlClCgAAAADxSdxoYWxGizt8iMWGgTRbtuaHyHAPF910keLeLg/kjZe2e/+G2rr+Jt/zhaWMGFeyJ0yQNHNjUmWEIxdeEX5psPAzaiYLxwWbLK7R4pos0mjZbjdaciYLjBYopkxsDUUIgoqXia0xC0GVKgAAAADEp6xGi262uMs8c88W3Thgs8Xt3aIbLq7pkjNeNivjRev1opswrjwmTCFpBk2ist1LSQ9rzmDhZ9NMFrc3izk/C6ug0aJMFhgtUFSZ2BqKEAQVLxNbYxaCKlUAAAAAiM+kGS3cq8U1W9gk4CEwLI/hYjNdDOMl19vFZr5YTJiKkBk+Jfc5+Ll0kyXIaJFxZhotAcOGYLRAUWViayhCEFS8TGyNWQiqVAEAAAAgPmUxWvR5WnSzhY0WFhsEbBiwXBOBDQV3OJFpuLiyGS+eXi+mlBFTcRJh08MexWSRRouKsyhGSyGThWVrdEOzTya2hiIEQcXLxNaYhaBKFQAAAADiMylGi2u2uL1a2BhwzQKzZ4vNcIliutjMF5t8ZkyZZQuDGWb9uVyThaWbLCyfycKC0QKVKBNbQxGCoOJlYmvMQlClCgAAAADxKYvRwtjMFjZaWNIcUEaBNFtUT41iDBdWznTRZZgZFSEtfLbnKGSywGiByiETW0MRgqDiZWJrzEJQpQoAAAAA8Smr0WIbQsRGCxsCptkSZLiwgkyXIOMlSLrRMZmyhUVX7rmU9GdnxTVZohgttgY3NDtlYmsoQhBUvExsjVkIqlQBAAAAID5lN1p0s8Wdq0WaAa7ZYhgurtFimi2ufKYLSzNeijFgJlO5MOrhV7I9r4wLGC1QGWViayhCEFS8TGyNWQiqVAEAAAAgPpNitJhmS84QUAaBabbkDJcCpgvLNV6sBkxcaUZNLNmuFVEcZttzsXJxkLDJwrI1uKHZKRNbQxGCoOJlYmvMQlClCgAAAADxKZvRwtjMFpvRkjNbXCkzIch0CTNeTJlGzFTLFkZT8hkjmCwsGC1QqTKxNRQhCCpeJrbGLARVqgAAAAAQn0k1WlyxARBqtmimgs9sYRVhuEwHBRksHpOFFdVkYcFkgQrIxNZQhCCoeJnYGrMQVKkCAAAAQHymzGjR5RouOaMlptniymZeVKo8YdefSymyyRJmtFhMFpatsQ3NXpnYGooQBBUvE1tjFoIqVQAAAACIz9QYLdzg1wwB3SjQDYRCxosrm1Hhk25sTIVsYTJkPpf+zHpc6HGkx50ep1KGweLK1tiGZq9MbA1FCIKKl4mtMQtBlSoAAAAAxKesRgsTxWhh6YaBbiToBoPHeBAyjQldNiOj0mQLN8t8Tj0O9LjR48yMT9NccWVraEOzWya2hiIEQcXLxNaYhaBKFQAAAADiM3VGC8swB3TjQDcUdKNBymJG2AyL6STbM5nPrceJJ66EzLjUzRVdtoY2NLtlYmsoQhBUvExsjVkIqlQBAAAAID5lN1qYqEYLy2Mg6MaCkGk8SNkMigKyGR3lkO3eBWV5RjMe9DiyxaFurOiyNbIhyMTWUIQgqHiZ2BqzEFSpAgAAAEB8ptZoYVmMAt1IkDKMBpsZ4ZHNwKhE2cKuyXxuM15sceeJW0O2RjYEmdgaihAEFS8TW2MWgipVAAAAAIjPpBgtTKDRwrIYBqapIGUaD0o2k2K66bYf/gH95ec+R395xQfpdvMZLXFhizNfvGqyNbAja/OH6StVVVRVdT5917YfmtYysTUUoTJpxRDdmT5Nb51VkZ99le60HQdNa5nYGrPQbNALdFK8/9PHD1j2Va4AAAAAEJ9JM1qYQKOFZTMOhGwmg5RpRkSQzeAot76z6HP0uc8F6Xz6jgrb7SstRovluW1xJGWLUyVb4zqWYLTMaJnYGoozVnsz6qk1zk7QW+MZ2rxriD5hOydBfSt1Wtxwgg4efJquePg5un/v0/RFy3HQ9JaJrTE703TgOKft03T8Kft+qUOvEXuMp479yr5/xglGCwAAADBbmFSjhQk0Wlg2A0HJZjrk5BoTFSjXaPnzL/4x/fX/a+q8nNEiZXs2TbZ4kbLFpSZb4zqWYLTMaJnYGoozVspoeenXR2jdrxzdn8rQS1m5mU6k9sc0Wx6lda+KE99IUz3/3fMSvUQTtHfXFsuxT9Muvs/x0bIbOtDUysTWmJ1x2neMTolnPfvq0/b9Qs+8Jm0WOrbPvn/mCUYLAAAAMFuoLKPFlc1MULIZEJWsxc2O0fI/bnu3dX8h2eIgJ1vcGbI1rGMLRsuMlomtoThjpYyWg3uN7Sv2U9847/kNrfuxsS9UcYyWUTooDmUzx78PmkkysTVmZ55+RcfYaTnzGj1t3X+YXn9b7D91jPZY989EwWgBAAAAZguTbrQwNkPAKpu5YMhmTlSSohotrbd9Sh5X1fx+7fneT3/PBsfffphu7n833bDkk/T/fPECqhLbLpz7afrG7e+jtkfFcXqcPfouumnF+fS1L31WHueX1yy5bd1H6Btf/1O6UO77LM39u4/TFeve7WmIe4yWbe+lpqs+TX/1ef77AvqrS8+na37+Tu/xSpGuvfP9dCnv//8+TMt3vJtaln6SLpqrPWPb++j7Ii6850BJysTWUJyxCjJahL741G+cfU/49yUjGC2zRSa2xuxM1K+k03KWXhux7H/udRkXp17e4983YwWjBQAAAJgtTInRwo07jzlQSDnjoXjZzI3JUM5ouf3d1nC5uvX2T0lzwWq0VP0h1V3O5sNnae5XP0PzNBPlolveo8XVO+m7LX8it1/49fOp6a4P0PVt59NF0hSpoq8t/SB9d8O7cg3s5W2fckyQz/8pXdR4Pl3amDdQvvIvmiGSM1o+RV+5VITjC39C80Q45n7BuW7V5z9FTQ/kG+6xru0aLeIZv94Y8Iyt79GOh5KWia2hWIo+evtmumn7wZL05XU7rdcuWSFGyyd+ZRotjjGyd9f9dMG2lyj1ltxNdPIl2XvFmW/lNPVt8V6H5ezL0D3y70fp9sO/oRNn5Nka7n7WFrriVyfoJfceAp43Zt2DfblrSsnwi/NW7KN16bfohDup7tkJOnHsCF1xl3YsNGUysTVmp0I7duywbk9Me4OHDx1+g2NinF58TN/+MO3/9et0irOL4mz2JB19sl87RujISaK3X6fDm/rp6WPjdJp7xghc0+bhPYfp2MnTdFZtZ86ePkWvHz1AO/Tr9O2noydO5c6nt8/S6cxR2v+odoyQnG8me5z2P25c9+3TNH78MO3p8x7vPMdJOu3mR8Hp8eN0eM/RAKMlxnOLK7wQMdxJCQAAAADxmTKjheUxU6JIMyYmQwuXf4S+fvkn5Pwptv1RtLjZMQtKM1qEvnQ+tWwV21Rc3HyrOv6vP0o3ufGz/YP0DXn8H9I1D+Ub0t+/4w+dY6/6IK1Q2+586Hfp62x8mCbJA8pU+fzHqeURtS1ntFTRhY0fottE2OT2He+hJjZeePvVHyju2jmjRYif8eH88ctvyz/jEvcaUOIysTUUS9Gf3bVNXveR0eNF6cXMW/Sj3SnrtUtWoNGyhe58ife8RZs3uNscoyWVeoVOnJ2gl469Qvf/6ght3ntA7o9utGyhL/5siOo3pCkltp749TPi//z3TrpA7XeOF/uOvUTrBp+jO3/1Eh2Upou4/kPaMCQZ/gl664wI6ckTtNmdZ+aFt0TIBa8eweS6FSATW2N2sjU0NCTD8swzz1j3J6M9ueFDz+jb+0adYUPjL9Ku3PaH1QS6IpVnjtHR1CiN/voYnZSbTtPxAw/nz5eGwzgd5+PPnqKTx1+ko+LYF7jnTN9hep0NjtMn6divj9KouA7ve238NI2/rE2623eAjvMcSW+fppPH1HHHTjrmRfY4HdDMEydcZ+msuO7pk6JMEtc9KnQs44TXNJIOvKK2j79GL74gnuMFday4gAyax2iJ+9xOOM6eel0+H4fjxVdPyevSb45q8ZmcAAAAABCfKTVaXOWMlGKUMyWS1RW3/B+ykf8X1RfQ3y78T/SDIs0W12ixSjNVckbLtWJb7vnyJsRX2KjRn/uXrvnxcbp+u7MtcC6VrvOda1/yYbpNbfv+nZ+U2y4U98sdJ/VuarqEr/Ff6Zs/U9ty19W2ufrZR6lG3bNFPAdvi3VtzWj5SlvQkCXxjDljBkpaJraGYilyjRbbvii6+4lRuuuJyTJa2AQ5QOuOOQ2ft156Rpuo1jFa5CpBe/09bKIbLa4Chg7JeV2c7Z5Jclc8R3u5NaWbJyr8vO1L+rHiOW5PT4gdv6H7Y80xA5VDJrbG7GRq9+7dcr40lz17yjd8Z1eaJzs6S68dym97OOUMGxo/uit/rJo8l02Ih91tLNeU0U0EaTgIzp6kFx7XjmU9dVzkQqKTR4zthn71sryb18gQsoUtZ4SYYds0SC+yo6kbSY8dJTm90/iLNOg59mE1+a9zndz2Yp5bbDOvfVh2ZzN7CCUjAAAAAMSnIowWVx4jYQp1ZatjsvyvZefRTT/59/T5OZ+l+iv/wDFFLMeH6bvXOibChXM/I4fbeLQkb6oUMlou/XH+mlI5o+VT1PRLFYePuD1a/hNdvy0fryvu+k9OGLReJ264wnRpl7qGNnTomt78daVy9xTh2Oxsi3VtzWjJb1PS7uteG0peJraGYimaDkaLj7MTlEo9Y5gXymgJ6CWSlNFSP8ItN70nTV73HBe79Ou4RpFtHhm5zx4eaHJlYmvMTpa4JwubLE8//bQMy6FDh+jMmTM0ODhoPb5kPfaiNB7Ovub2nHmYRtWwoaOaKbBHGh+n6Nje/DZXL0h/4SS94G5ThoPHqHGl9Wg5emCXYYy4Uj1tTtkm4nXmUaHMC7ltjtFymo4/aR7r7tPC5gSWTh7xGjhSBxwTSDdainnuky94j8vvK7CcdpECAAAAQHwqymhhecyEKdD/+ufzZKP/8pt+P7ft5o2/Tf9XzX+jv/vff+A5Nopc08HXI8VQuNHimCn68R6jRTMhltwUMEfL5/+IrtiQP84NV82lH6d/aPmYVc096vignjJSWhgNoyXStS3n5wSjZVJkYmsoliI2Ws6Khp3797f+bb91iFCQeOgQS9/2qTv+zXOPoqWMivzyzs9Ry4bH6IsrLMcG9UBRSspouV0OWQrDNFoCzBQYLRUjE1tjdrL00ksv0bPPPksPPPCADMujjz5KTzzxBGUyGevxpWsXHeXpjuScKuJvt6fGyRc8JogzZ0sYpuEQbCo8vP+oGnojOHOKXn/pGfqVZ/4SteJRGCJ87vE+M0WTuc8xTgLC1uf0dtGNlsSeG0YLAAAAUFFUnNGiy2MsTIIW3fm70iD4/zV+wrdv6c/eR9V/9Vn6+2+d79sXpnIYLTJ+Ak2Id9H1V/2pcy3W5/+U5jV8lFoMoyJnhtz0Ps92q8IMj5AeLZGuDaNlymViayiWIjZaeJSC+zf3UHkifcI66W0UMZ/7kTEpbLFye4RYJsP1azKNlt/Q/XLeFpvcuVyEYLRMC5nYGrOTpQcffFCaLK7R0t/vTLi6efNm37FJaddROZiGXn9uEz3s9sowenzkJsfdu4f2WDVI/e7xkUyFh2nXgVE6dkLNX/L2aXo95fbaUUbLb1603Efp8fxEtIkZLZZVhxJ7bhgtAAAAQEVR0UaLrrz5UB413fphqvqzKrqo7tPSJLji5o949res+R36y89fQH+/aIqMlogmBM+PcmHVf6VL/9W+5LKr2/5F3W/+R2i5Zb9HuXv9V/rmT419P/XP0RLr2jBaplwmtoZiKTKHDpUyFOi3hJiqu6aX0XLPMb5LnKFDEQ0SGC3TQia2xuxkyzRayio1bwkPH5LGwtuv06ixUk+4QWEorqnw6NNq4lvVq8YdOnT6OB0wj7UojtGSGzpkG96j5o/xDx1K4LlhtAAAAAAVxbQxWkzpJkWpalzqDBf6hxs+Jv/+5nc/Kv++Yrljtlx/9wfpz//8c3TZtfFMFlaxRovznPFNCOd+n6FGc9JaU+7KQLzc8m3+5ZO//8C786sI5e5VRRde+mFargyVgqsORbk2jJYpl4mtoViKzKFDbLLoqwjVrHm0oP5IGyrEXFCBPVrc5aD3DmqrArF+coRS8if1aEaLOxnuW8dHjTliLILRMi1kYmvMTrYm1WjZ9LAz38jpcRrnZc3fGPXPnaImhT178gVjoleLijAVTEPEmQz3LJ08UnhumlhGizsZrmXCWudYEXLNaEnsuWG0AAAAABXFtDVaktLCmz8ijYL/ufijnu1Xr/gQ/dmfVdGClo/RhX/xOWq4/j969keVa7RYJ8P96nm5OU9ua8sbLfnz45sQK9Z9jObK7Ya+8Cf0tcUfyC/NzMd2nZ87tvpL+XD9FZsk2gpFuXv99afpoi851+Lj5n7BOde3jHOca8NomXKZ2BqKpcg2dEg3WqJgHl+JQ4fO+fERuVwznXmLdj11hO4cfI7WPfUqpXjp5TO8AlBEo4WXdz4sF2cWJ2aoT1xLzh/z1Cu098RpeuvYaP5YGC3TQia2xuxUaGxsjPr6+qz7kpY7ZIh5PWWZKJaNiFfYchCcPknH087SxUfTx+n18dN0VpucNtRUeOoYncqO02u8ZPPTe2jP0/llm/kauRV8eHnn3O3ySza/ePx1Gs+yAZO/ZiyjRTNUPMs78xCmoOWdk3huGC0AAABARTGrjZZ/UqsLXb7k9637L212lkUu1mRhuUaLXfnJZRMxWna8m1qWfpIu+oJh7Hzps+p+VTTXmDdlRc8HqbHx044BwsfwnC5/90lqXPUeX48WuVzztvdS01Xu8Z+luQ3n0/W5iW29inRtGC1TLhNbQ7EUzZahQ6wLHjxCB8fZVFGcOU0Hf7WPLniC7xPVaGFtofpdL3mvdXaC3hrPUN/gnvxxMFqmhUxsjdkZL3cS3NzwHZsepj3PHaOTWdkFzOHts3Q2e5KOp36VPy7MVHjsGTp28jSd5Xu5nD1N46+O0n5juNKmvj10mE0Y7XZ09qw0Xkb35Y+LZ7Sw+mn/r73XPT1+nA7vOUB8uNdoYSXw3DBaAAAAgIpi1hotV7U5c7Kw2WLbf8PqD9CfX/g5WvCdj1n3V6KcFYcuoK/f8W7//p+dR/PYtPjqR2iZuQ+a1TKxNRRLUUUbLRA0CTKxNWYhqFIFAAAAgPjMSqPlf7f/nuxhEWSytKz5AF34lxfQP95k7+kSRX+78BNOL45JkHPP99E3/5r/zk9K65G7OtBff5SWqG22a1Wy6pv+wP9cUMkysTUUS1GhoUO2lYVMfXndztzxTGJDhyBoEmRia8wmIR4KVE7Z7gnNfAEAAAAgPtPeaLm19930nX/9nVDd/Ivfzh1/jZp75crb7CbL4q7fob+ozpss5rXat4Wv5jN1ei9d8VU2JD7lmy+Ftfy2T9GFVcaktRAkZGJrKJaiQpPh2owVU6bRYpsM90OtD/i2QVAlyMTWmE1CTCaToUOHDiUqviZjuyc08wUAAACA+Ex7o4UNE1vvB11uT4hFHb9Lf/bnn5PDhszrsG78yfulyaLP2WJea8l9/95zTiWJl1VmM6XqC5+mry/6GP1DC+t8+vp8NUfLl86n726znwvNXpnYGoqlqJDREleMbrTwcCLuJdOXesVzHARVikxsjdkkxPCEq7/+9a+pt7fXekwcbdmyhY4ePUoTE85cQbZjoJkvAAAAAMRnRhgt8/7fP7bu03Xtj/6DXKL56n/5Pet+NlD+8v/6LDX+83nW/axKN1pYt3WeR1//uz+hamUMyQlr/+6T9A9t7/esOARBrkxsDcVSVG6j5fu7nqXj41nPEtAQVEkysTVmkxDz+OOP0/Hjx+nkyZO0c+dO63FRxNcZHx+nl19+mQYHB+W1bcdBM18AAAAAiM/0N1puLWy0fPueD8olmr/1gw9Z9y/92fukyXLF8o9Y97uaDkYLBMWVia2hWIoKGS1RMIca/f7tm2VPlh8OPUdj41n6Pzu25vZDUKXJxNaYTUJMf3+//P+TTz4pe7ccPnyYfvnLX/qODRIf+8ILL9CZM2doeHhYbnv00Ufltc1jodkhAAAAAMRn2hstTbd9uKDRwqsH8bws3KvF3HfjuvfTX37+s7Twe+EmC0saLd3e5ZEhaLrLxNZQLEWFjJaaNY8WlK23yh2Dh+nEW6fpT3/4sG8fBFWSTGyN2STEuEYLa9u2bXJ+lTfeeIO2b9/uOdYmPoaPP3bsGD300EO57TBaZrcAAAAAEJ9ZYbSwQfI/F3+Uqv/qs3KyW3f7d+915mRZeHNhk4UFowWaiTKxNRRLUdJDh1iLtx2gzKkzWOYZmhYysTVmkxCjGy0s7qHy/PPPy94tBw4c8OzTxfu4F8v+/ft9+2C0zG4BAAAAID6zYo4WNkh4eBDPz8LLNt/Q+QH6zo9/R/7/n26xrz5kE4YOQTNRJraGYimKa7T8zs0brdtdfafvAP0me4b+ctV2634IqjSZ2BqzSYgxjRZXo6Ojcj/P36L3VuH/8zbmlVdesQ4zgtEyuwUAAACA+MyaHi1uT5TLl54nJ8Xlniz/1BrdZGFVQo+W29o+JcJxPn3Xsm+m6LvXVlHVJR+m2yz7pkqVGKakZGJrKJaiOEbLby/roaNvvElf/9mgdf/Nj47QW2cm6Aur+637p1x7M6IlO2rfN430rdRpOpHab903edpPfW+dpr4ttn3TSya2xmwSYh555BHf9qGhIdmjZWRkRJoqp0+fpieeeIL27Nkj/88mDJsp/H9eZcg8Pzmj5QAdF/c4/pRt38zUgeOn6fTx4J5E00EAAAAAiM+s6dFiig0a27Fh4vOmukdLqNHSdb7nGas+/6c0r+F8uuZn7/IfG6h3U9Mln6KmzbZ9SenddM3/rKKv3fFuunPdR6n6Cx/1PA+MlsmVia2hWIri9mj52n2P0emJs/Q363Z6tt++8xk6mT1D/1fnI57tFaUwo4X3edBMhC2v0IkKMmhgtCQrE1tjNgkxZo+W3bt3S5OFjRX++4EHHqC9e/fKJZt5+759+3LHsqHCw4eeeeaZ3DZ3O6NvK05lMFqOnJRh83D6OB2wHTsFgtECAAAAzE6mv9ESYdWhpDRdjJZv3PUu+v5D76ZlXR+ixn/8DF1Y9Sd0adc7/cfb9PDv0terym20hAtGy+TKxNZQLEVstOjXvfuJUWm26MeYuuwXT0izhU0XXl2Iz2GT5c/v3mY9vmIUZLSwkaIbK6YqrCcMjJZkZWJrzCYhRjdauCfL22+/LXuu6MexeOJbnizX3M49YtxeLu62ijdaTr5g31cBgtECAAAAzE5gtMRQXKPFb4pwbxHRYL/2/c7fmz9MX2FT419/l74x/7Py+hfO/RQ1/lQzRR7I76ue/3G6pvXjxjU1KaPl0i59+zvp+qsuoKq//igt2eFsu63zY/S1//GndKE4lnu9XHTV79Jy3tcjwjNXHMvbpTTDpedD9I2vO+dcOPfT9I073pO7hzQhrv0gLVn6Kfqrz/N5n81fUx2T1/vpUnGNr7S9O79Nhjt/L8fUOI+uca8nwviVpe+jFe7xO95F3136hzT3C8695jacR999WO1TcXrNhvdR46UcXue68l1c8mFqufPjdJE87wL6q0vPoyXb1HmsQs+oh8l4Rv/11f4e7f196ZN0zQPa/R5+PzU2/AlVc1x/4U/oa0vfT98PvJ4lvAnJxNZQLEWu0fLI6HGpFzNvRZoM9x837RWNRKK+1Cty4tu/UHOy8CpE//574fO4RJI0PzJ0j77NY3iM0sG3XqF7Uqdl+B2M4+U1XE6LsIYYLeJa3zK3C7Gp4cE933NtooN73XNEuEzTxnL9e5xpNxz0feIZ2URx99sMFcdoeUXcJ0/+/o7iXt/7nEY8ymfSkHGgjBaO0xz6c/N+cR1+ZzlMY8Z7Xc+zynCOimuonUyZzC4TW2M2CTGu0eKaLLzMs3lcIbEBk81mc2ZLKUbLC3qHk5PHfUaLZ7/eE+Wp4+Jt6pykF9x9ukKNlhfEWRqeni5iH//t9oiR+9gIEvfx9JLh+3qvc/JI/h4cfq+R4jWTvEaLER7PM9nCI7Z7wiLwPMPkCAAAAADxgdESQ9xYTt5oEX9/6T9R00/fTd/f/D5q5P1sivD+He+jb35JNPq//jFq6XkX3bbhQ/QN8Xc8o+VcWrGKzZnP0BUb1LYNH6SmrvfQ9x8S1+w8n+aKc75+57vE/d5J37+Lj/0juuJn3CvmXbSCG/7bPkjf+HwVzb36g7Q8d85/zfWSkSZE1QV0UcsH5P7lKz9ONe41tXA4imi0iOt95ab3i+u9m5a0/SdxvwvoG53O/ZYt/zRVff5TdAXH2UPvpaZLL5CmhOxtIuP0Aqr+wp/Slxd/iFo6xTUecd+FeIYrPkxLNotn+Ol5Mu5rblJz7pT4jLnrX/0hWrZZhHn5p5SRpcLZI67P7+4ff5e+z/fb8V66Yr54t5d+RIbn+z8X4Rb3d+OlYHgTlImtoViK3n/zRs9SzQ8ceinyqkMNPU/QG6dOe1YXYi74UQKrDUUxWsS99Ma5NA+M/XkDghv++n5dYfuUCeHZZ1zbE1beF260yOtpf3O4c8+hjAmP6WDIMUX0uPHeM/b15bb89bzP68SNPzwqzgKfyx+ntv356xrxJsOkx6P5PpOTia0xm4QYNloef/xx37CguNLNFr4mYzsuTGwyeIwBaRp4TQh9f960iNHzha9pNVr4Gu71nG3S1Mkdq0wPj3HhnKNfzzGCtLDIZ8gbJPGMlgN0QHumwuHhbQEG0yQKAAAAAPGB0RJD5TJavnxbvueE55yffVQ05i/wGCe3/Yt5TU0BRkvgdinD+DBMD9b37/yk2PZJanZ7jajnuLDFeQ7HhDifWnI9WCxmSk5RjRb9eu+hpv9PbFv0AfH/99E3/9owHNT51/SK/6s4nbfsvfn9Qk68/hE15XqUeN9Fqc/ou/6OD8j985bnw7Fs+Weo6vMf097tf6Vv/kwdLyTvcemHpGFUKLxJysTWUExScZd3/uDyTZ6/mckzWgxDg/e7DXn9/0peA8EvuV/iva7vPMu12cxwTIBCRotjMHgMA32/5dqmbM+RN1PiX99jxEjxM6i4t70HqYD75I4tsN9yXX6uXDgihTMZmdgas0mIOXTokDRZeG4W2zFxxGbLqVOn5GpEjO2YYDmmhd77wzEOXBPCsp97sSijwWtChMjs8SGQxobsEWOaFLpxoYfFlT9M0gzyhMNrfsQzWgx5TKLg8ASeP0kCAAAAQHxgtMRQuYwWj5Gin2MxPZxt8YwWp0eL22h/Jy2743z62lfVkBWlMKPFCVP+2JzUc0iDwDN/SQJGi+d651LL1e4253x/eNT5ljhlFXoXpT6j//r+5/S/W+NeLHWPQuFNUia2hmKSYqNl08iLnl4uccRMntFi2a8a51ZTxXN+iOS98yaBeS35twXHBChktPB+G+pZIoTRY0ho25zz4l7fMUT8qGfQ4lS/n3Oe5Tlz76TAfr6uDTdslniYCUYLMzY2Jg2XJJROp9VV44Y7yDhwt/F+G5o5kjNRQnp1BPVo4e2e3iEsPUxew8SR1yRhJWu0OMaJB4/RYn9OGQbG9zyTIwAAAADEB0ZLDHFDuDSjxemNEdlosfRocXpe6NfUZDNadrzHGVrzpfNoGf+97mN0IQ+JWeUO6zEMAYvR4tzz43T9I/ltuko1WpzrG0aLeMZ875H30hVfFdu0Hi16TxGPijRaSn1G//ULGC3y3WrDuQwVCm+SMrE1FJMUT2xbKvpQoqJlMVq8hke40WI1CCyN9yDpjXrTaAm/jsVo8YTFYkDoihBGX3iEvD1a4l2fz/X0PNFleQ+OSjRa+P9WA0cpIJzOM2rHJSATW2M2CbHBUk7Z7hksx1Tw9mjRTQi/qREoa+8UpSCjJVKPFnO/P0zxjRbebzNanPjwHOvr0RLwjK6s5lH5BQAAAID4zAijxdMjoMyKY7Ss6Py4NDW+ftv76LaH3kPfvUnN2xHVaHHnaLn0o/TdGHO0yFWHNr+XvnvXh+nSv+OJWLVVh/6Vj2Gjhec3eTctue2Tcq6RnCGw4SM0r+oC+spt7xX73yPCLba585eo+ULkikadH6bre5z7xjNa3iPnJqmaf74x74xptGhztMgwmnO0fJr+odOZZ+b7Pe+ja+58vzP3SZFGS6nPGNtocedoUfPv8HMs/+mHqLlLn/MlJLwJysTWUJyZcnpm5A0A1VMj1/guYLT4zueGv35+mLznSmPDYwqY19bl3CdvCKj7auf7r6cpqtGiP7s0MPKmRuzr8zarmcIyn0ffXoLREnhdpRlotFSapEmhGwNsFBgmRDTjIMSECDJaLMaGf06U0o0W8xnk3yFGS954cv6OZbRoQ6us+8skAAAAAMRn2hstFa0d76brr/10fuWcxR+glmWfiW60sHglnNyqQ+fT9Z3n0TxPA1yTORzlC39CX248j1q03incw6X5qk+rlW4+Td9oe58I4wWaIfBO+u5itV+E+Zvr1Hm9H6BvuivkVF1Af/U//pCaijJazqUVP/8Iff1L+ZWUmtaJZzSMlgsX/S59N2jVIR7+1PZxushdIYmf8/oPlGa0sEp4xthGC2vbe6lJvAtnFSNeleiP6B86YbRMqqQB4CIa7XtFQz2y0SIkG/Yu5vmaPPdx8JoojrEi8dxfRzMVPPfla4ljDePDMUs03OtaDAZTfK68pjqVMU2f2Nc348ATXuNZ5fmlGi3uMeqaitxzWMIJoyV5SXPD5eQL4m+LkaEjjQdlQmh4e8ZoCjRaWMZ1PCZFMkaL7x7GM+aNFvG3NJpcxDFHjtPp3LVt4eFtOt6wTZYAAAAAEB8YLRA0y2ViayhCEFS8TGyNWQiqVAEAAAAgPjBayqS/XfgJ2UsBgpLWf/9//k9rmitWJraGIgRBxcvE1piFoEoVAAAAAOIDowWCZrlMbA1FCIKKl4mtMQtBlSoAAAAAxAdGCwTNcpnYGooQBBUvE1tjFoIqVQAAAACID4wWCJrlMrE1FCEIKl4mtsYsBFWqAAAAABAfGC0QNMtlYmsoQhBUvExsjVkIqlQBAAAAID4wWiBolsvE1lCEIKh4mdgasxBUqQIAAABAfGC0QNAsl4mtoQhBUPEysTVmIahSBQAAAID4wGiBoFkuE1tDEYKg4mVia8xCUKUKAAAAAPGB0QJBs1wmtoYiBEHFy8TWmIWgShUAAAAA4gOjBYJmuUxsDUUIgoqXia0xC0GVKgAAAADEB0YLBM1ymdgaihAEFS8TW2MWgipVAAAAAIgPjBYImuUysTUUIQgqXia2xiwEVaoAAAAAEB8YLRA0y2ViayhCEFS8TGyNWQiqVAEAAAAgPjBaIGiWy8TWUIQgqHiZ2BqzEFSpAgAAAEB8YLRA0CyXia2hCEFQ8TKxNWYhqFIFAAAAgPjAaIGgWS4TW0MRgqDiZWJrzEJQpQoAAAAA8YHRAkGzXCa2hiIEQcXLxNaYhaBKFQAAAADiA6MFgma5TGwNRQiCipeJrTELQZUqAAAAAMQHRgsEzXIBAAAAAAAAAEgOGC0QNMsFAAAAAAAAACA5YLRA0CwXAAAAAAAAAIDkgNECQbNcAAAAAAAAAACS4xxbwwuCIAiCIAiCIAiCIAiKLxgtEARBEARBEARBEARBCQlGCwRBEARBEARBEARBUEKC0QJBEARBEARBEARBEJSQYLRAEARBEARBEARBEAQlJBgtEARBEARBEARBEARBCQlGCwRBEARBEARBEARBUEKC0QJBEARBEARBEARBEJSQYLRAEARBEARBEARBEAQlJBgtEARBEARBEARBEARBCQlGCwRBEARBEARBEARBUEKaXKNlwK8flCjrfSAIgiAIgiAIgiAIgqZA52QyGZpteu655wgAAAAAAAAAAAAgaWC0AAAAAAAAAAAAACQEjBYAAAAAAAAAAACAhIDRAgAAAAAAAAAAAJAQMFoAAAAAAAAAAAAAEgJGCwAAAAAAAAAAAEBCwGgBAAAAAAAAAAAASIiyGS3PvTxGnUPPUGPPbppzz3b6eNuD9N5lPXTOjfdL8f95G+/jY/hYPsd2raQFowUAAAAAAAAAAADlIHGj5a7HRuiLqx/JGSpxxefyNWzXTkowWgAAAAAAAAAAAFAOEjNabus/QB9v22w1T4oRX4uvabtXqYLRAgAAAAAAAAAAgHJQstGy+cAL9LmVW61mSRLia/M9bPcuVjBaAAAAAAAAAAAAUA5KMlq+u3XYao6UQ3wvWxiKEYwWAAAAAAAAAAAAlIOijZZL1j9mNUTKKb6nLSxxBaMFAAAAAAAAAAAA5aAoo+WrPxmwGiGTIb63LUxxBKMFAAAAAAAAAAAA5SC20TIVPVlMldqzBUYLAAAAAAAAAAAAykEso2Uy52QppFLmbIHRAgAAAAAAAAAAgHIQ2WjhlX9shsdUqtjViGC0AAAAAAAAAAAAoBxENlrKuYRzseIw2cJaSDBaAAAAAAAAAAAAUA4iGS239R+wGh2VIA6bLcxhgtECAAAAAAAAAACAchDJaPl422aryVEJ4rDZwhwmGC0AAAAAAAAAAAAoBwWNlrseG7EaHJUkDqMt7EGC0QIAAAAAAAAAAIByUNBo+eLqR6zmRiWJw2gLe5BgtAAAAAAAAAAAAKAchBotz708ZjU2gvSxtgfppu0HS9LfrNtpvXYhcVhtz2ATjBYAAAAAAAAAAACUg1CjpXPoGaupEaQ/v3ubumzxdAw9Z712IXFYbc9gE4wWAAAAAAAAAAAAlINQo6WxZ7fV1AjSX6zari5bPD8s0mjhsNqewSYYLQAAAAAAAAAAACgHoUbLnHu2W02NShSH1fYMNsFoAQAAAAAAAAAAQDkINVo+3vag1dSoRHFYbc9gE4wWAAAAAAAAAAAAlINQo+W9y3qspkaQPv2Dh+iR0eMl6X/3DluvXUgcVtsz2ASjBQAAAAAAAAAAAOUg1GixGRphujCByXCLnaOFZXsGm2C0AAAAAAAAAAAAoBwkarRMZY8Wlu0ZbILRAgAAAAAAAAAAgHKQ6NChqRSGDgEAAAAAAAAAAGCqwWS4AAAAAAAAAAAAAAkRarTEXd55KocOYXlnAAAAAAAAAAAATDWhRktjz26rqRGkP09gMtyOIifD5bDansEmGC0AAAAAAAAAAAAoB6FGS+fQM1ZTI0gfa3uQbtp+sCT9zbqd1msXEofV9gw2wWgBAAAAAAAAAABAOQg1Wp57ecxqalSiOKy2Z7AJRgsAAAAAAAAAAADKQajRwvri6kesxkYlicNoC3uQYLQAAAAAAAAAAACgHBQ0Wu56bMRqblSSOIy2sAcJRgsAAAAAAAAAAADKQUGjhfXxts1Wg6MSxGGzhTlMMFoAAAAAAAAAAABQDiIZLbf1H7CaHJUgDpstzGGC0QIAAAAAAAAAAIByEMloYX1u5Var0TGV4jDZwlpIMFoAAAAAAAAAAABQDiIbLZsPvGA1O6ZSHCZbWAsJRgsAAAAAAAAAAADKQWSjhfXdrcNWw2MqxGGxhTGKYLQAAAAAAAAAAACgHMQyWliXrH/ManxMpjgMtrBFFYwWMDU8TcuuXEnLhtWf5eTlHfS1K++ldS+rv8EsYpjaq6qofZ/6c0YwRj1XVlHTxjH1N5h5FH7HwyuqqGrFZBSgAAAAAAClEdtoYX31JwNWA2QyxPe2hSmOpqvRsvqxp+nn+yoz7LtWr6RzVj+t/jJAo18xy4yWiTEaWtVMdXNF40g0/KsvaqDWjSOUmVD7i0Q2tsT1fLqyRzTVSiVDfUtqqGkzX8n5f/OW6da4T9ZoGV5RnVDclsIsM1qMvFM1Zx7VL2ql3kNZdcBMpBijZSbkVwAAAADMRIoyWlhT0bOl1J4srqaj0XLrw/voHNFIZ/3zlifU1sqhoo2WNx6nK5btoJfUn1PHbDJasqJRVEvVV3fTyJjTOMweGaDW+VXUsD4t/y4W2di6dYAyJ0R+1pVJohHqb7gt3ZZxdk0bEjRaskPUOqeWamsbqPuI2jYlzCajZYx6r66m6gUdNDA65qTtIyPUu76deg+rQzht3tBEPcfUnzOCZIyW6ZdfAQAAADATKdpoYU3mnC2lzMliajoZLdmJs3TZvdtyJour+rUP01unS+waYPDKK6+o/8Wnko2WE9vuo3NgtBRF8WlCNfZ3qz8V6Q2NJfeOwPCBQiRntGS2tsj31bOimurvS6mtU8EsMlrGeqmpqp66R9XfNk70UnMVjBYAAAAAgEqlJKOFxSv/lHPpZ752sasLBWm6GC2vnHyTqm79uc9kcXVB63o6lnlTHV0ar776Km3atIn27SuudRbPaDlFqf5NtKDlbjpPPUv1bQ/TXu1R7Nc7TuuWraSv9R53/pTX3US7Xn2Sbr/tbvoEX+uqu6l+9a8odZYPyFDf6tW5e7ha9sstdMGVG6jvlLxKnlO/om9deTfdfkD9/UaK1q1cS398lXPeH9+4gdY9N652Mk542Dg58cRm+to1fNx9tPkN3jdOB3s30JfkNvfcPV6jZXiTYwC9+QKt63DCecFPuTFrPGcOi1FjhPET16+lezh5W4yWVO+9dN71Ir5k+ApTWppIU/dlVdS8xfvr8siqWqousaFUsLG1r90xc8ZT1LOsnqqrqqh29YjcldnfRc3za4xhR9U0b3GfY/5kU9S3opnqL6p29s2to+a1I5TvK+M0Btt3Z2h4fQs1qKEdNZe1Us/h/FEyjJ57sLSGsWdoSA3VLeqkIb19qZ4hfWSA2q+eJ5+Bh480rRqiMY+/mqXUxlYVDvEcCzgc4hxxvMdoyYxQz/IGmjfHuU7D8h5K6UnZSoZ6r1PvUISnuraTRgxvl5+zaWOa0v3t1KTirPqiJurc7W0sJxXvTRuGtXgT519txBtT4FmjhllnbGOTCrNXThwHGQSG4RWSLj0UMFoyg+1Uz8+mhUPPD2ODnbm4rpnf7H2uYz3i2haDhsNW1S5CnCdzqIdaFzhpzxn2l/LnA/FsY7s7qVG+jxbqU9m9cBjEvWQeaKQaDv8NfSK1WeIxLY6dUyfzG+PL+4XSTeC9LNeSGGFQ5w9lhql7cYNzvsivvvwzkaZeN83JY5REeLr2q2MAAAAAMKso2WhxdVv/Afp422arWVKM+Fp8Tdu9StV0MFqeOPIK/X7LWtl4DtNHv/Nj2nPEbJAXx8jIiGxY79mzh95++221NRpxe7Qc7N9Om0eP01unxR8nUnTPLSvpvLt+RW85u2MYLSvpE4vX07qnj9OJN8fpxNE91HK9uNbK/LVe6r3X26Pl7DN0+7Ur6VuPeZ2Wtx7bQOdcu4X2sklz6hlaJq5TfdceSr0xTm+9maHUzg1UfeVqWvake54TngV3baAv3fYw7TqaoRPiWCa1WdzzqnvpnqdfE894yglXiwiXCK/HaFm8gVpuW0st216gl94Q58tLRzRa3DDesYP2vsL3FmEcfpJSfA0jzt8S96oW4Vn3ovN3VEpJE1nReKubU09LeV6WbIZG1jeLRpdo9BRs4IdjbyBpcKPxklZqva6B2rekaIyHXnDLSzUyuw6p1qBokHeJRpVnKNOEaLitH6DUMaepljnQLRp61dQ66DbdnIZYbW0dNd03QmPiwtnxMRq5r4mq57TSUL4lqsHDqOqo+upecTbDwz6q88OqsmM0vLqBqud30LB7vmz41lLtglYaOJKhbDZLGcvQq/SGJqqa00TdB8YoO6GOuVhcWzTycg38iRHqFOfV3TpAaY570dDvXaKHJ4Aj3dRQ1Uy9J8T/+Rq1tdTpmpAK+S7E9ga+9gkRF+I9p/tbqa6qIT/UKMF4r1bpSY5G0+J9wE1TEZ41UpgLkN4o7pt7XxaDQGIxWmzp0od6Vk4fKsp8qDg1DRPugVStpYexfZ3UMKeOOvarGwWc5zNaDnWK+Kij1v60uI5Iood7aen8ajVEh3HC2HxrKzVc10XDIo1mRFwy0cLQTK23NlDz2mHxDsS58v0Z8Tgu4o/vuTGfTnx5v1C6CbxXUDlihEGeL/LhfOd5MiIfZo+NUDcP7bp1SBk6zjDJ2uV9ORN0bFsr1QaWBwAAAACYDSRmtLi667ER+uLqR6zmSRTxuXwN27WTUqUbLT37R+k919xtNVZs4mP5nCQ4fPiwbFgPDQ3FalhLY8QStry8RouPJzbROVdtpr3qzzhGy4Jtrzl/uxzgHiv5+/mMFsHen4r4bX+cuA3pkKHN7W6PEqIT/ffROYsfpoOyZ0yeg+tX0zm3uec54TnnemXOuJx9mpZdFRQuw2gRf1/RbxwX0WiRYXSNIRPdaHlxB9Vfcy/d4+mNE51i0wST3d8hGmyiQcO6WDRMiwuCB9lAcq+pKdc4ko3GamrZ6m2ljm1u8g1bkj0VjG0mQ22i0bvSfWlOQ6zqul75q3iOiaHA4TqO4dREvW7jVjRia10Dw0UaGVX5MCujxTQ2PEOvJkRDdI6/1xAd4OvnwyKH/5i9UeTQE3H9Q+pvC+n1Dblf/xnZGynXuHRwTAuzp0uaei7Pv4+yxjulqPuS/L2iPGuUMIeielnkjAMVNv+5FqPFki6tZIapayH3CKmhhsVdNDBqnGM1TJw0ZOtFlnuPkYwWNgKrqHaVt7dNZkuzE2/yL/U+5pvxGDUMVVTn682jxeOEeB9X11DTfXovGvXuwkxWgSfdBN4r6FrGu1Tn+/LYbj2+hqlD5ENv3jfePQAAAABmHYkbLa6ee3mMOoeeocae3TTnnu308bYH6b3LenKGCv+ft/E+PoaP5XNs10palWy03PTgbvqtJt2giCY+J6lJct2G9eOPP05nz9pa8X6kMXLXHtmrwqdntvt6tPiQpsMm2qX+jG60rLX00vAaEjajhUa30xdzw3wEPGHulavpHuVX2e8vcMMpo8UJzxc3HJW7chi9SXLIoUmm0WIZwhTRaAkMI+OG4TlxzvWrxTmlORzFpInsvg6qn1vv/Hp/ZIi6bqin6rnN1FvaXLhOA8k2Ga7bIpONxlYaMH5NtjXu5bYCPTu8DTKnIda4wXyIgIaV+6t8rieAuuflPaJpr+M0bnMNRNXwHfI0Yo1nCGo0ZweoVQuLDH/bkPNHDqdBrIfLi7O/dacWidIg8sar/drexmp54917XJRnjRLmQKQBUE114j3loyHoXJvR4k+XYWRGB6hLDVmpua47P1zF9u7ltkbqMaJImk9zOhxTICjNeIwWFW5jfiXn/TdRr3xM55l98/ZEDoNtaJQbjynxjuqoTrxTM6q8acKO55jAewVdy3iXAc9jjS+f0VJNHRg2BAAAAMxayma0VLIq0WjhiW2/cndvzjgpVl9f/ZC6Ymm4DevHHnssUsM6UqPfNR7O8jCch+mKZaupWs1h4qgYo8Vm4DiGxIKHnZ4iVqOFjtI9N+Z7ncjeITduJ6fZ8Brdf0vA83juGWCISAMlOFxeoyX/zHmiGC0hYWRkOFfTl8QzctzW9/oCE5tYaUKtVtO+29tUSq8XDez5XSqevcjGt2iwuAr6NbhgY8vTCNKQQ2Ga8sNDRKO5+0qjh0EmRQNrW6jxkjo1H4NS7n4RG9USc8iQw/BKNZ+ETe59Ap7BY1rIYyyNZk9YeAUby32UAo0F1SvGdo7+636kxmpZ412F4TqO42jPGinMAXiHDLlETBNB6TIKx5xhY7leJjbDZH+HM5ePVeq+tvMYPWxyjhjbNVjuuQHPXEoY1DXrL2tw5oW5uofShtHoe3eF0k3gvSKmgyjxJfL50K3VVNs2lFu6nufRqfX19gEAAADAbAJGS4Xw6xO/oe3PpKW+9YtdyniILj7HPT8JeE6ILVu20C9/+Ut67TVzaIuf6EbLKdr749V0zo2bqO+o1ssiUo+Wo3TPYtNoyfdCyeM1NOxGC1GqZ60aBvQa3X/bSvpST75nSuDzWHq0+AyRIAPo7JPUooUrttFi9IgpHOcrqX5Dig6K5z/vyrWWeIpHrDQR1KgMafhQVuRPrYcKzw1hw95A0ghp0I7t5Lk4VGNsrjHBZ3aYOngOlBVDzvweCu/9IjaqBb4hQwpbDw8fAc/gOTcoLo1hTAXjy4dqOK4UDUftfbBG1jV4hu9EaqwKkop328pH+nFRnjVqmH34hgy5BJxr9CwKS5dR8Awbs737sLzlEnBMVryffNhspqFJwDOXEAb3mnJumkPimDkiTRjv2/PuoqSbkPDY04F3KFrg+ea7HB+h7kXznPQdNEkzAAAAAGYVMFoqkB8NHMgZKFF1105jMocSOH36NG3btk02qI8dC6sx54lutDwj5y8xTQS5BLNptKx6Uv2lOPE4LRDP6jVaipujRSKvdx9tfoGHDd1H92tzZgTNf2Kbo8VniKg5Wq7YqdX+GescLSFGy2bDqTHOl3EWZY4WGhfxKcJ9/Wba6xumFI3YaUL+sm0ZJjHaTfXa6iTFULAxHdig5R4PvIKJGSiFDLPZqHJW3snfL6hBbjROLUOGcvAQDH0CVxtRjBY1R8vSfuN5bHO0XNZNqai/rqveSNb5W2TvlIZc75RopkVy8e6fGydFXeYcLQWeNVqYDaxDhlycc33Dmoz3UKrRklpXnx9uZTUAeIhUtXe4l4k8zz8URs6hkgubM4zNNDm8BMVX1DDYzA/vNaVRWeU1tjzvLkq6KWS0mEPI5Hw+2nNFNFrkXFQiX5o9cAAAAAAwe4HRUoFMpdHCDepHHnmEHnjggcgmCxPdaHEmnT3vlh108E1RKz01TqmhzXIZ5PM00+HEjvV0nly15zi9deoUnXiFVyZaTRdc6zdazuOJXo1Vh6pFWNxVh9jQOE/c/54XTokHHHdWOpI4PVm+tuxezTxRnHWGFkVZdchntAhSG9bSOdc7qyG9JcP1JC0Tx/pWHbIaLUQHu9kY2UCbj4p7iziSz7X0bq9RY1t16OnHadcLYp8nzgVvPu0cq8dLRIpKE7nVX3opJZeIEY2RI0PUsUA0VkUjKKQZVhDZQLLN0eJO0hLYoGUzpJ66Dqs/TTJ91FJVTU0bUs5KK5k0Da1soJo51b4Gv7+BqRstasiQNpGsF7Xq0IIOGhgdU+FP08iWbupzh9dEMVoEqfsaqGr+UurhFV7GedUhEccLa+TQi1wD330XS7rV6jBCx1I0tLGXhi0BlJOeXtZtzCHj4jRk3RWDopkWycV7zdx5+dWe1HHV+kpWEZ61GKPFGTIUPBQktbZOvIdW7wpRC2qLM1r291D7xgEa1tLG8PqlVM/LHO9TaVyZbE3rVZyp52ejqXpOA3X0q1WNhNIHeql7m/s2U9Ql8+UApeWKWc6KSw21utEiUKsOLV2vVuoRGhsdop7NwypNB8dXwTBENFrcfFSlvV/Pu4uSbkKMlsy2pfnVkfidydWE6qiW5/NxwxDRaJH5cslASeUaAAAAAGYWMFoqEDZNTCPly3c9SDc+uFuK/2/uT8JoOXPmDPX398sG9Usv+fp/hBLdaBG8+iTdfvPd0nQ456q76Usrd9DBF7lXiW46jNPe7vtyc7jwEs73PCkaqKtMo0Vc90lxvdvupk+o69Wve5JOeHp58LXupT++ytl/uxZVsueKOO+KfkuL880XaN3Ktc554pg/vnEDrXtGPy7YaOF5aPb2rJcGknvu/UePyuOjGC109mXarN/75k20mc9fqp3PvPEM3dOeP+4T199H62xGC8OrD4njvvVYWFcKL6WkCV7Gt2d5I9XNFY0j0eCsvqiBWtYO5ZZALRbZ2BLX88k1IAIbtBkaFg0x73m8qks3jagoGdvdSU0XOXOocHh5iEuae0kYDX5/A1M3Wpz/e+/D0hpsE2M0tLaFGtS9qubMo/pF7TTg7o9otNCEeKb14joyjqtp3oJW6j2SlmHMNfAZXuZ4RXPuXVTNraNGfm5fy9BrpNjIrT4j3mM00yKpeK+n7sMi3la5zxEwRKPAs8Y3Wpx93vA7yptZaepb3kDz5vB2Dpd4l0dSciWj2EbLkT5qXVSvrsWqoTqRNnrd5bEV2QNdKs7E/Vbnrzq2u4taFsyTZpvcd3Ezte/Unistru/uF+muacUApUd7qNEIGy/p3L4oP/dJzfxGalk/osyEsPgqEIbIRotA9SSqXu6YGOa7K5huQowWNnJG1ubTSc1lLdS9PyNXLcqFIaLRQuleapnnXMdV9UVN1N4fnI8AAAAAMLOB0VKB2Hq06EZKof3FMDExQTt27CiuQT1V2MwEkBjTMk0EMkZ9S+qpYeVQ7hd6KfkrtmjIuav9gIRBvIOZTfZQFzVc7PQqy6VvIe4pVFflrtIEAAAAgNkGjJYKZCqMlhMnTtCDDz5IL77oWyu5coHRUlamZZoIQv4ybV9aV04yGjjMB5QE4h3McLiXjW2SZmdS6oC5jgAAAAAw4zmHTYfZqEpmKowWhufimFbAaCk70y5NBKEmeG3dls6vZjSRpfS+Lmqeayw1DJID8Q5mOOn1DVR1ZReNqLmomOxYinrb6kPn9QEAAADAzAY9WiqQqTJaph0wWkAMzDkn3HlRevajb385QbyDGY0535KQnM9m7YBn2WkAAAAAzC5gtFQgL74xTtufSXvE21wK7QcAAAAAAAAAAMDUAKMFAAAAAAAAAAAAICFgtAAAAAAAAAAAAAAkBIwWAAAAAAAAAAAAgISA0QIAAAAAAAAAAACQEDBaAAAAAAAAAAAAABICRgsAAAAAAAAAAABAQsBoAQAAAAAAAAAAAEgIGC0AAAAAAAAAAAAACQGjBQAAAAAAAAAAACAhYLQAAAAAAAAAAAAAJASMFgAAAAAAAAAAAICEgNECAAAAAAAAAAAAkBAwWgAAAAAAAAAAAAASAkYLAAAAAAAAAAAAQELAaAEAAAAAAAAAAABICBgtAAAAAAAAAAAAAAkBowUAAAAAAAAAAAAgIWC0AAAAAAAAAAAAACQEjBYAAAAAAAAAAACAhIDRAgAAAAAAAAAAAJAQMFoAAAAAAAAAAAAAEgJGCwAAAAAAAAAAAEBCwGgBAAAAAAAAAAAASAgYLQAAAAAAAAAAAAAJAaMFAAAAAAAAAAAAICFgtAAAAAAAAAAAAAAkBIwWAAAAAAAAAAAAgISA0QIAAAAAAAAAAACQEDBaAAAAAAAAAAAAABICRgsAAAAAAAAAAABAQsBoAQAAAAAAAAAAAEgIGC0AAAAAAAAAAAAACQGjBQAAAAAAAAAAACAhYLQAAAAAAAAAAAAAJASMFgAAAAAAAAAAAICEgNECAAAAAAAAAAAAkBAwWgAAAAAAAAAAAAASAkYLAAAAAAAAAAAAQELAaAEAAAAAAAAAAABICBgtAAAAAAAAAAAAAAkBowUAAAAAAAAAAAAgIWC0AAAAAAAAAAAAACQEjBYAAAAAAAAAAACAhIDRAgAAAAAAAAAAAJAQMFoAAAAAAAAAAAAAEgJGCwAAAAAAAAAAAEBCwGgBAAAAAAAAAAAASAgYLQAAAAAAAAAAAAAJAaMFAAAAAAAAAAAAICFgtAAAAAAAAAAAAAAkBIwWAAAAAAAAAAAAgISA0QIAAAAAAAAAAACQEDBaAAAAAAAAAAAAABICRgsAAAAAAAAAAABAQsBoAQAAAAAAAAAAAEgIGC0AAAAAAAAAAAAACQGjBQAAAAAAAAAAACAhYLQAAAAAAAAAAAAAJASMFgAAAAAAAAAAAICEgNECAAAAAAAAAAAAkBAwWgAAAAAAAAAAAAASAkYLAAAAAAAAAAAAQELAaAEAAAAAAAAAAABICBgtAAAAAAAAAAAAAAkBowUAAAAAAAAAAAAgIWC0AAAAAAAAAAAAACQEjBYAAAAAAAAAAACAhIDRAgAAAAAAAAAAAJAQMFoAALOLYz3UVFVFVawre2hMbQYzkH3tznsWatqINw0ASI6xjU258qV9n9pYFGPUc6X6JlW107DaCgAAYHoDo6USmchSel8PdSxupPr5NbkPeVVVDdVd0kyt63tp5Jg6tkIZXuGGOaZWTIMqxkSKuhfye6mhhtXDlFWbJelearmomqrmNlDnPs8eUClMR6MlO0Stc1SYL+umtNoMCgCjBURlYoxGtnRT66J6qucy3C0jqqpp3sX11Li4nbo2DlFqDOU6cJgqoyWzs53qxfeg+qIW6vXUBbM0vKqBajjN3tBL6Qm1GQAAwJQAo6XSONJLSy/WK3lBqqHGVUM0VqEf0hlttOgNdaNSpFe8psWzzEamodGS3dmaT1dVtdR5QO0A4cBoARFIb1kqG675PBau6otaaSCjTgazlqkyWvT6lbdcG6Z2tb2qqol6KvwHudnChoNpauh5gv7LHQ/R+763kX7rpvvpnBvvl//y37yd9/NxAICZBYyWSiItGoBaZa/6oiZqXdtDA4NDNMTa0k3ti/nXivwxdaIxX4m/r+kVgYbFHdSxMqK2TYMPzUSaeq9zerQ0rhvxxv8x9GipeKad0ZIR6S2fn1i1q0bUPhAKjBZQgLRoLFdrecvpOVpPzcv5m9RKzeL/3p6lQtf1ilwJZjtTZbRk93U4PVouXkp9Zo+W1ejRUgm8ceo0ffvhp6SR8sHlm6SxUkh8HB/P5/H5AIDpD4yWisHbmKpbMUSZoI/kkR5qnuseW02tg5XXoNeNltIqIAAkzHQzWo50U4PK6w2X1TvhntNKQ/DxCgOjBYRxqJPqVPqQ+WvlEKWD8lU2Q+kDvdS1uIGWbgmxWU70UjNfDz0aZzyYowXY6Nz7vDRMfntZj9VQKSQ+j8/n6wAApjcwWiqFsd584++ybkoV+CWChxLkfoVbPlBxvVpgtICKZZoZLSOra1VeaqWBfZ1Uq8LeHNbYAw4wWkAgWRq6NT9Mt251Mr3EMluanWvCaJnxwGgBJjwE6AMRe7AUEl+HrwcAmL7AaKkUtAZB/X0ptTGEiaH8WNwKbCzCaAEVy3QyWiZGqLNWhfWGPsqQ9ve0GPY0xcBoAYGkqPsSlZeqGqknkVGrGeq7QV0TRsuMB0YL0Pnyup30OzdvtJomxYqvx9cFAExPYLRUClqDoHFDlBqfNukZjBYAojONjJbsYL7nmtuDJd/DpYG6j8hNIAgYLSAQfeLQhBq37rAhFoyWGQ+MFuDCPU+SNllc8XXRswWA6QmMlkpBHzoUZaK90W6qV8dXV2CFLlmjJV8hbt+tNjGZFA2sbaFGbaLCmou7yNYBPJsepp6V4tiL5xkTH4YorBF+IkVDG7v8S4HOmUf1C1uoY+Nw8Fj/HPbnyowOUPfyZu8EjHPrqH5RK3X3p4Ln7pHojYeoKlyxG3OXG9eetWY+TxjZTQOjEYaw5Bq87TTkhn8iQ6l+ZznVutycQzGva+CG03u9RmpZ2UPD7gvJ9FGL2hfZaDlmST+R30mx6PM2tVCfGx25OVviTIpbjrTmxXqtQgopuzKjQ9Sz1pmMdJ5nknBeareDevalKVsofDajZWKMhjd2UMtC/bru0vkDlIqf7ErPH5PwfuzoDbyosqxmosVzdINBK6sC86E9XuKU/cEk16NFfl9WNHnSaZBCv4fWMpGXl1ZlWMFVZPT3GX3VmdiGQcnhFNi+CQJO812eMryG6tcFv9myfJsEUcIRPd6yok5Ulzu2RtTxvBPVxjRaJrJyvqDuNpEHLqnzLJAQ/dnz9/T8uCfLx3Zq1r511RctpT49g05yfq/k7xTDc6kkNVwoSHx9zNkCwPQDRkvFoDeq6sRHO6SVPpGmnqvdSkUDdY+q7RVEuYwWt7GUPdBJDbZKrfkBF5WGgbb66OaKppob+vyVgRPD1Hl1RLNmTgN1HghzW/LPJSs6vJrRsghhnS8qPYGNAq0yE1khFbvMMHUtLFQhqab6ZQVWOMhVzFSDJuIy5nVL+qKtnCDC2bmg0PWqqWH1sKiURanwKUSDYnhto6ciaxOv/tCbdO8S7dfx6luHtHmY0tR9mbr3HPHuIlUyy5HWFOOiwSpX4bKcHyrRMBPvwySzr5OadPMyRNULOmlkXJ1oQ2sQcNmRPdBFjZoJZ9Wcelq6tdBDK5LKH+V8P6FMH6MldtlfEO8cLU2RepLa0J4jggK/h5HKxBpqXMtlmDrHxyQYLYmEU5BLM244szSyusGa5q290RL/NsUPR7R4y9Lwynxerr66xxKeqEZLllKbW6mhUBmmFP791O7p5tl0Hy2d772GIyNMk5DfK/075cKrA/HEtTZzJGnxfbAaEQDTCxgtlYS+vDNX9rdYvhz84Vni/jJSLT78JdWyy0a5jBb++GbFRz63UoTqQdK+ssPpXeL5IHp/ReLGcPdgisZOiHQglaaRLZ2ehleDqByOhTXcskPUqv8KvqiVOtb3OstvDw7IXg+eStCcVhoIvJ5W8bi1WzPP1HVXdlOvuG7v+g7fst5V80XFJ+C62dzzBSu9dSnNU9eqvrrXXukxK11zG6ilzQnTUH8PdS33/oJrr0AqtIpZ63otnc+tI7mMqozDXupe2U4tl3krQwWXMB8X8aiHU6SJJnHN7i3Osugcf62aOVa3op2WuseGNc5EXuvL5TVWDTUsblfXFe96bavXEJgjKuoJZsf0+gZ17WpfHspNuCn2RVt1rDxpjeMof60qqlnYSb0H0vm0dixFQ+uXyqVInWPmSRMjExJkfbiUmz7cd8nprsMIX3XYZOBaumtpy5cbcul89czuu2z2/MIZoWxNMn+U6/1EIMvfRa1ssGlsf1euF1XV/A4aNiN8khpe0cv+aPD13Mml+QeO1p2BpUEouTL3UDc1ute7dcAXjyxbLyzTPJLpc20PDXBa2tLte+fBZWJ5jZbkwinIpRk2341vtey11p5bXrtzvzrHpSzfpvjhKBxvWUrdl18+PDgcUY0W/bvA4ePn7qKefi7HnHegf+tYDYFz/mn3bBsSF9a+y1zucA8/kbfaubfQYqOOMAn5vdK/Uy68FHPc1YV+r/UB+rO7ttF/XvFv9FuW/UHi+/D9AADTBxgtFUZ2X4dW2IsPKZsD3EU+m6GRjfovGTXUvD4V3gCdQspltFQtaVeNamcpzrHAhotAVApzlWjxYQ+saGWGqN2dYDTCsrkj61upK6y76niKunKVJlHRWR/UYNOeS6nmum4aCerxOzZArVrlMvi6BRgX13HT2Jwm6rVVxrliknuGaqpvG7DHdWaEurUKTGClTq+YSXH6HQmMw7Gdrdqyq2FzkWRpYHn+/tUXd9BQUPwd88afVIjRkt6Qr0RXX9xOA7YDJ0S+1CrSUVYMi4Q+CW5tJ42Y19SHP0UZalimtJY3fKqoVlTWA7POkW7PqmqhKVc8e/fyrtCu79nDXfnrhaUPX7oTjen+4MZ0estSLd2FNFSTzh9TVRZEYSKV70El4q9jv+UtT0bDK07ZHxlv+SHf5Q1dNFR43Kcdff6nqPEwrn1/wr7rnvKrmlp32o4qo9GSaDgFWppZukIZaHMaqGMwOH9KyvhtihUOQaF4S4v9eZNFfBsCDdHoRgud6KOOFdpQWAtj/a35uk9gnUa75+Uib6m4qlvSE1zuuExGfleq2O+UIk5vln/ctJcOjZ1UZzq88ptTdPkDe63H28T3AwBMH2C0VCIFuubWXNZKPYeDP7KVgG60RFdQBcP8+EbryZOfNNTfI8AkdV997vqBFcM46CaPXC3GhvFc8y0NagPPL7BBPVFCGaPeXOUzuBKc2dqSryAGhl8hKn4tOeMmoFKnV8yECi+lyr8suu+vipo2BzzpoU7tF+4W6juhtgfBv9q5x7OCKnyeZyp0XV5pRIvTSD1MCqClH/sqZPqwhygNqnKkNW2FlYJh4Aate2x9IsMdR1bl00fL1oAUaqS7KMNDUvdpvxh7hmzlSTx/TElZEAUe9pD/hT+SkVrWhlcZenGKhru355qjmstaqGvLSIS5tjSKMFpGVufvXbBc1Ms7a0OwfEZLsuEUGHkzao/Acn+b4vRMDIs3j8lycUeBXmcxjJZI6EPRa6nzkNrsQb+no4K9R10mK79X+Hdqw8E0fTDG3Cx3PeGUn6fOnKXd6dfo2VfzpssXVvdbzzHF9+P7AgCmBzBaKpSx3V3UPM8t8HXVUOOqoXiVvymgnEZLwcqVxPtx7S3UCtEqDtbx4HGJtPy297kiGTz6dYuokOmVv+BKlTYHSMSVbYZX5I1Ba6PXU5ltpYEo6Xd34cpc3kyrovp1Qb0FdLzzMgS9G717dqTeAuL53HgNNtaioocxOP71ITaFw1iOtKb1upkjGhJqaxCRfjWPg5Y+AvNsMekuO0CtoeeUIX9MQVkQBW7EuA3mqEMDy9nwilb2F8fYoHcYaV48ZDBiL5e4Ros+FDVCb0pv49jWgC6T0ZJ4OAWevFkdbJZ6KPe3KWo4HILiLb25OT+sJdLQvqSNFhGGDY3WsOUxjJYIpkaOScrvlf6d4pWAbGZIkHio0LUPPUn/bukv5N/vWvILOvabU/Jay3eM+I4PElYgAmD6AKOl0jAneJtTL+cWMOet4O3tIV3gpxrdaGlY3EEdK6Ooz/7Ll+fjKyptB9TmUPRKhLZiSxBaxSERoyV2pSJCGCUlVMj03hy2eRZc9BWwLummKPYF/8rohEk0hlZaQqVXzKI2lgo2WtLUc7naH6OXRHZnaz4s1nfDvX5iXlcfyhOhMheKvkRs2LCgQsOLPJQjrWnX5PurrUEkbrREybPFpDtxVN6kraYOc36IcuSPsryfEtGHigQNMXSZlIZX1LK/BORqOl3+760UT6zaEzL8QxDXaNnfkTdow+Ya0tDNZX9PPz1NJGi0JB5OgZ5mCpZfinJ/m6KGQ2GLt8xubR6hyPMnJZ+XC5e3+j2rqHlLtNJRMin5vfK/U//ljoesRkhUvVeUJzx0iLl+61PWY2zi+wIApgcwWiqJtGhg5X5Rc8ah6z+iZdND1HWDPgO7qPiJY+IsbTdZlG2OFvEh1ZdgDGN4pftLVlDX2Tz6xzXSrygFiVmpiNw4L7JCxo3y3FjmhnDzoJhKlH6Orfuutt/e0LRQsNFSXLrQl0a3vxvvdaOFVj8nQg+qEPS0WKjymx8+U2h4XDnSmm5IFa4U539ZTmbokJ6mohgtkdOdILSRWI78UZb3UwrGcLhCZWIxcaI/c6SGV4w8ngQnnCWkfSu8zG2m3qAOZDGNFj2vRzX49XP8aVpPE8kZLcmHU6CnGZ6MNQrlyHvFhENhxpveA6xqfqt9Xi8ryeflQu/Ue8+Yy5sX8x7i5vdp8J0qZbWh373lAdo++oq8zuiJcTrvts3W42zCPC0ATB9gtFQKnpVT6qh9d/DXgFc2yBsyIePmC1B4eE/xH/yyGS2BH2g/+tCK0G7vetxH6hYtyI5Rap9aJWdhPdVfInRxwLLPUSoVkZ+rmAqZPs9C4TkOxjbnK2hFyfYsWsUsco+hQo0WfX+EX6py6OfZwqr/alqUojdw/Ohd4+MpaD4Rh/KkNX2IVej4fn1Fi4iTDGbHUjS8pZs62lqokfMXK2DZ5yhGS+R0JwhrWJYlf0xaWRANfka3LIs0b8NkNLwix0vC8ITXG/UVSYSChlnENFryPwYUKd899DSRnNGSfDgFReTNivk2KfLx1kjdg1oZJxS+yphJ/LycPTJCAxu7qGN5s1M2CtVZh75FMVpilh8Vld+n7jv1WzfZjZBC4nlW2Fxhnj6eoY/eHt1kYfF9AQDTAxgtFYI+0VyUCRu9S/EV17Cb6UYLf4DzE79W5Zf0U115eVnT9L5ubeLhCBMtjg1Rl7msYCFNcqXCJPI8Cwq90l2UbM9STGU2jtESJ10UOk/fX5RKMFr0SZRjq5l6AyftLVNayw5Th7bCSP2ybhoaHcsti5k9MUapfn3uizpRHoQ323l+KvvQjWAFpqkiG1GhRks58scklQWR0L8tUYc+VFTDq0x4vrkBvc3iGi0Fv8EF5LuHniYSNFoSD6egiLxZMd8mRT481VQz129GRarLSaLm5SyltrRTU4DhHKTZbrSU4zvFFGu03LbzGXn+3hdPyJ4ttmPCBKMFgOkDjJaKQHwE3ArcHPGhiPgriO7Sx60gMOlttnlSdAXNmVKYyjBaBOMj3jlvgjSnnpZuCX/arGgEN2gV7aq5DdTS1k29g0M0ckSkrRN5ZSemsFKh45lnoYUKrsoj0Cuz9W29NCSeL5b2p/2/GBVTmY1jtEQcry+JY7Rc0i7fr/U5AzVc5GTV+iS4tdR0qy1P+tW+SDNpA+O2jGkt3Re6SlpOcxupa39Yv+0sjaxu8PQK45Vf2tdzGhyhtJa/MidEBEdJU0U2ovQ8YJ5XlvwxGWVBFDxL59YVHHKZo5iGV9wJwyPHS/nQl4m1zlVSgtHSvM6SVgrpsJmf9DQR3WgpNHFq8uEUFJE3K+bbpNDDw6pe0EnDh0QayNUTojXYI+Vl3+pY1TTv6lbq2jhAQ/tSNKaXj5msnPjePbYijJay5ffJ/k7lKXbo0P1q1SCeGNe2v5AwdAiA6QOMlkpAr5zFWVUh3UON7nmRf1WYHCrGaGEmxqhv2Tzn/Lk1+d4oc+ZR/SXN1Lp+gFKFIj0rwuAaFtzz5b6RAnPjRAlzGSsVEn2ehVpq3x2lwicophJViGIqs4UaLcWuulLIaNHfS9wKaCnoK3tEHF4j0Z8n8Lwyp7VsiroWOMdWizyWM0vm1lH9whbq2DhMYwUMZM8ynXOaqPtQgUwZJU0VmZb1OVp8q5CUI3+U+/1EJHbPSpdi4qRgPmSKiZcyon9zbeEpVGYZhBl6xaGniehGS6HvdfLhFETJvyblyHvFhEOhx0vdkr5cb1HPXC2RfuAonJc9pg7P/1Lg3erHV4TRUrb8PrnfKZ1SJ8MtVpgMF4DpA4yWSkD/AMWZjC1mpW4yqRijZSJNvdc5PVrqlvTGGDNtoC81HLYSjIu+ROwUVSqiLeVsQU9XcXqKhFFMZbZg+k5R9yVqf5zJ/PR3aY13PY4Tmrg1Avqv5ZGWlM6REWncDW/QyixlTGvjw9QhfymspobVw0VPzj3U5t4r2goY+upRgWlKbxBYJ6G1oT+3ZSLtcuSPMpcFUYg7xNBDMQ0vfSWbRMvIMqK/e1t44n6TRbzl4iDiaj7h6GkiqtGiTxYa8L1OPJwCLc0U9U2Yym+TItjM0OdFi5KfCuVlfYW9aKtvpe6rV8dXiNFStvwe8TkS+k7pxF3e2dWX7t1JN20/SP9t5cPW/YWE5Z0BmD7AaKkE9EZ5jMqD3tCoL3JC3HJRKUZLrvEadZLbAPQKVWOUX3r1uTamolLhmWch3pKVXKnLT8haYIWiqJRaqQ6ozOVXCIhuTuRX6hEKiHd9WF6xk03HQ4/zsLlW7HgmfrbGVfnSWi4+4/TC8aHfK5pppr/HSEZL1OVC9eW1reVGGfJHOcuCKHgmBI82xNCDnlcjGlpR8mEpZX9ZEOkp11i0/Siix0OUH030XmwirQ1EWgo4nPy317I0uQ09vQtZv9dlCGdxBkeFfJsUob1GeBieNkdc+I8dhfKylg/E/sKrb+nmexmMlorK75P5nfKy4WBaTmxrM0OC9FtC2Ymz8vyBF8asx4SJ78f3BQBMD2C0VAT6hyLiEA/PWPpov3BMJpVhtPDQmWLO86OvdmBvyGp43k3YvctUqZhIaZXRpnjLNio8cxFcKSompf76UyajxWNo1YoKaKEGwPhAvsHACop3T+OjibqPqO3l4kg3Nbj3K+YXY6Mh5DcHylWBHaFOd0hdoXwRiv6reqGlqgVsJLrPIxTNaIlimmVF2ZX/Jbp2lX0tq8TzR9neTxSyNLC8iCGGOvqPBVGMwhN91BIlHxYVL2XCU65X09JtFtdOX7Es4o8megO0tm2o5F/a9Z4MQelXRx8uxgrKe0mHs1iDoyK+TYqCw3OOifSQS+dh87UUysvaPH4Reipld2vDMIUSN1oqKr9P5nfKTzHztDz32m/kufcOH7HuDxPmZwFgegGjpULg3im5X8oKzU8wMUYDt+rdUqN2iZ88KqVHS77HQx219qcpW2yl7JDWoBfvJ9C8yIxQj2fCOqFJrVTEW8o5EOPXuOoFHTQUNsPrRJbGRoeoZ0WPvaJTLqPFMw8N54VuGgnKOplh6lyQP1YqJN71oVdVcxqoYzA8/fByxEMb26knyq/IBvlGTDW1DhbR0BXoDSH/0JtyVWC1Y7jcOjBWdB7T50UJ62qfOdRDS3MrSDiKarRwORA86XVWNFL1d95EvUENmqTzR9neT2FiL+VsRTO1hUKHShwboHZzUspEy8iI7OuQk4l2bxmhtLv8SADZ9BB16GXHZd2Usj6f1qCLalrpvYmE6pb00EhYw1WkpfSBXupaPWCPD/1bxY373QEFIi9bvb7Zt4Je4Pc66XAWa3BUwrdJUXgeFJF2xPXz87UE1R0K5WVv/grLp2ODHd5J+4USN1oqKr9P7nfK5NsPP0W/vazHaooEiZdzrlnzKP3OzfFMGr4P3w8AMH2A0VIxeH9JZeVX3FAz5vf3UNfyJpqnf0TnL6W+ItvS5UQ3WhoW21dLsWqb7WFKqGyLSmeukhMmdzI0Uem2/1LnXSqaJ9JtWu6sOMTvZmBjF7Vryz5XL1hKS91eJZNYqfBU6hZ0iYqwSPMRZK10GBVrVs38Rmpp099ZKzVfUqdV1gMqOsVUZiMZLYITA9Sqh1O+mw7RgHLeTe/6DmpdlA9j3YrO/MTGofHuz5OcThoXt2vPz9eup7rcspBFGIt6b5TauMO8NEa7qd4Np697dLkqsKLKvbUlb06EqPqieqpfJBq2QYaV59dfPr6JWnPl3wD1rG3Xln2upoZlS3O9gAobLaLRu1qbg4SvvbKLevrda7caS6bWUPPmAgVrkvmjjO8nFH2I4bxW8S2xlw8+2Vp5ZlkrV2Vz41jlw6vnaaZON3W4cywlWkZGRCuTpPgbcIn3/XHerjeX0i3wzU3dlx92yOmoMfed4HTWQV2DlqfQ34NUNc27uFmkUS0ttbVQ48X5+AuOD6/5LK91dSt1uHmJ6xHiWg1umcUNz3VLc8eHll9JhrOYb4LLVH+bFFGMFsbTa8hq0hXOy9n9HZ78xfXDDl5xSKatXuoWz5svw+po6bK8gZq80SKomPw+yd8pgzdOnS569aG44vvw/QAA0wcYLZVEwC9MQapZ2EXDIR1fphLdaIkla4O6hMo2/6q2uYXm6fcopKCKdGZITaZmOUeTO+lurgv3JFYqio33wErieIp6ltVHqqBIze20V3TKabQwY5ZfzXxyJ8HThqkUjPcspTYupXpP4yJMNdQZs0eLPtdSlK7+wRjzF3iGO5WvAsvl1vCq/HCFKOJlUEcsw7wyuzsixLXbKyU/GXJho8WZ1yCzv4saNVPMqjn11L4zYhpNKn+U8/2EoDcU4ygovsd2tkd4fzXUuJbzofareKJlZET0yTkjqZrql/UE95hzMXpcmApMq2ND1LnQNRILq/q6kJ6sIl12q0ngw1R98VLq5XJC6wVT0ChOKpylGC3MVH6bFFGNFjNN+HukRMvL6Y0R6odzGsQ3SCRSbXhPWYwWQWXk98n/Tpl07n2ePhBzrpa44uvzfQAA0wsYLZVINk3DG7ssv6bVUB3/4rayh4ZGK9RhUVSC0eJpVPFSzotatV+7NPEvcJ5fvoSCJpAVH+tUfxe1LKz39CyqmV9Pzcu7aUB/L+7qNpNYqUjcaFFk0yPUu55/IfQ+t7NEtpsmQ7rjlttoYdhU29dD7UYPE/luuNu41r08F09R413kyZEt3ZY8yb/o1lPj4g7qGUzRWEgPdjv6pIWmORIfff4Cr2lTngpseotmQll6++S0vJnq9V+5haqDlrLPpGhgrfGruCz71FLs2nAFd6WiwDTlpjt9eOXEmChfO4w87F5/iMJGIQRRcv4o0/spRNJGi4Tfny8uOJ848TCsDccaXqnyUqJlZAzGnXwt06cIr15uSKmeju1GuiuI+E6MbOE0pn1X1LW6D4UnsAwPc1lp+SbJHjecRntp5Ei0RDomysOOxY1UP18zRvg6/It9fyrfe1ObW6ag0aIoOZylGi2KKfk2KSIbLYxnnpJqatqs3ytGXj42TD0rRHrV3yk/q1qeOF9+pXMrFZXLaJFMeX6fou+UAa8EFHcoUFTxdbHSEADTExgtYEaiD6Gpu3WAxgIbOBrZlOdXp9adRbS4AJgl5OewEY2G+4KG3BmcGNK6/E/e0tkAAABmH5P5nfryup2Jmy18Pb4uAGB6AqMFzEBS1OV+JOMubaytYlO7upRhHADMYDJ9tFT9Qhj1Fz8XvddNy9bK7pkHAABgmjIF3ynueZLUMCK+DnqyADC9gdECZh7apKCxzZK4w1UAmIXo88rENksSGjIAAAAABDFV3ymeS4Unro27GpErPo/Px5wsAEx/YLSAmUcpDTmtR0vjhgKrjgAwS4k1N4GB/kth+261EQAAAEiQqfxO8epAvBQzGyYfjNjDhY/j4/k8rC4EwMwARguYeWg9Wqpj9UrRl8Wspc5DajMAwIP+S2EsM3NihDpzY99bqA8jhwAAAJSBSvlObTiYlkOA/ssdD0kj5bducowV/pf/5u28n48DAMwsYLSAmQd/JGvdj2Qdte+O8JXMpqh3SZ06p4qq9VVKAABeTvRSs8orVXOaqCfKakknhqlzQX6y6bqV5hKnAAAAQELgOwUAmGJgtIAZib7qEM82X39DB/X0D9HIEZEGTjhKHxiioS3d1L64wbss5Px2Gh5XFwIAWMmv5sCqocbl3dQ7OEypY24eG6PUviEakEvVe5eArb66h9JxJqkGAAAAYoLvFABgKoHRAmYsY7s7qXFu/qNZWOIjvGoo2lLQAMx6spTauJTqdZOykObU09KNEZfYBAAAAEoC3ykAwNQBowXMbCYylOrnXiuNVD+/xviYzqP6S+qpeXkX9QymaAz9QwGITzZNw/LXwHqqvyjf5Vpqbp3IY43U0tZNvQfSlEXFFQAAwGSD7xQAYAqA0QIAAAAAAAAAAACQEDBaAAAAAAAAAAAAABICRgsAAAAAAAAAAABAQsBoAQAAAAAAAAAAAEgIGC0AAAAAAAAAAAAACQGjBQAAAAAAAAAAACAhYLQAAAAAAAAAAAAAJASMFgAAAAAAAAAAAICEgNECAAAAAAAAAAAAkBAwWgAAAAAAAAAAAAASAkYLAAAAAAAAAAAAQELAaAEAAAAAAAAAAABICBgtAAAAAAAAAAAAAAkBowUAAAAAAAAAAAAgIWC0AAAAAAAAAAAAACQEjBYAAAAAAAAAAACAhIDRAgAAAAAAAAAAAJAQMFoAAAAAAAAAAAAAEgJGCwAAAAAAAAAAAEBCwGgBAAAAAAAAAAAASAgYLQAAAAAAAAAAAAAJAaMFAAAAAAAAAAAAICFgtAAAAAAAAAAAAAAkBIwWAAAAAAAAAAAAgISA0QIAAAAAAAAAAACQEDBaAAAAAAAAAAAAABICRguoQMao58oqqloxrP6uXIZXiHBe2SNCDLxMn3c4KRzroaaqKmrfp/4GFUjUNDuL0/a+dqqqaqKeY+pvAMpERX9bZ1I+mA7Pgu+nwywpf8c2NonnbKeZ/4Wt9LpEGcM3i+oSMFqmmJHVtSKxtdJAVm3QGe2mevFxqVo+QLbdma0t4tx66h5VG2YM06chY6sMptbWUdWcpdSXURsSJrOlWbz3Buo+ojZUJJX9Dsv9jnxMUUUxc6iX2hfV07w54l1wWTK3juoXtVL3lhRN1qNPH6Km2elTPiVOzMrRpOezGcRsjzsYLfHIbFtK1VV11HVYbYgKjBaiiRHqrK2i6luHrHXtigFGS/mYGKOhtS3UOL9G3JvrS9U07+JGalnZQ0PpcqWKSq9LlDF8MFpmtiqqR8tuTmy11HlI/a3hFDYikc8RBc6E2qgx1Mb7OqaR65umnsurqW5tyvnzUCfVzWmhvhPOn3mmT0PGVhlMb2ik6rntNFSWsjlN3ZeJe4p0UbtqRG2rRCr7HZb3HVmYAqMlKz5kdeKeNQvZWBmiocEhGtjYRa2L6qgmwLyd3URNs0HHpahrfjU1bkjLvzL9S6lm7lIamEkN5ZiVo0nPZzOI2R53MFrikRV1yZo5jdQT9weY6dDgKfP3MzvYStVc165qpl5ffbSCmCWN00k3WiZE2+TqatGeqpfGyoCoKw0N9lJ3Wws1XNRQxh+zK72tU8bwzZK0zMBomWoyfdQiCvj6+5T5kMNJ4NXXNYsPTLXlA+M48EG9XSqT2WG0lBURZ7WicOpc3RJowFUG0+cdTgqTbrSkqPsSJ22mI6QR2Utq1r+rqGk26Div0SIbPrPcaAEJc0CU/5VqPiQMjJZJYtYbLRnqu0HUtVd0yjp108YKzl0wWspCdmeruF8tte+e7NZUpdeTyxg+a1rOUO91k/uD5GQAo2XKUQn5hj5vV35lwLTuHJENptrVRu8F9eFp2ToT+xVXeuGTZ7IrgyOrap37yfRRTa2DlWqzTZ93OClMutEyTO3iftHi36lo4l1FTbOzOG3DaJlS5FBjGC1TD4yWyaWc388TvdSsfsyU+euybnKs8goERktZcO43FfFa6XWJMobPlpZVuxdGywxQpU2Ga5unxXFYW+T4bLn/km7S+7w487M0Uo/xRcge5jkZ6qiGG1lVNVS3sJV6DplmDDfCqqljv8hGu7uoZcE81W1SHL+ok4bMwoYzBA9RUmMYGy6qFseK4+fWUfOqIRqL8Iu5rDQFFJz+CpWbucW19fDNmUcNi7toKKDmZR5bH/QstZ3EtlV6S2vuWQoaVmND1JmL12qat8CJ1yFLZTDoIxHt3YSQHaLWOVXUvIXPydLQrSLspkEnceKvafOYcc98uH1kRqhneUN+Lg9DuYJvIkOp/m5q1eb9qL6ogVrWD1PGkw7K/A5LTI/+d1REnFnJUmpjPl3lwnQkoKJoPEP1RfXWZ5Dh5Xct4n94bTPVzeWw2YccOqgeLdf1WtKHxpFearnMHZOcl+dXvYhhjJfHHaKXV+pZRXhb3fShp/3xFPWucOOlimrmN1LrxhFrmpR5PTNMXe59VXng7jcrFc4QrGoRJ25haz+Ojg1Tz0p9jDeXp+00YHblL1AGFVNWxkq3/D5X5ePKVOgvuhx2rhwd8V4jNN2Wms8ixmtYZdlaJosyT08zsrxZ2EJdgyJs6hCT4RXiXVmG66buq5fX8H1HVMXRsz1OnnfDLNJr59Uq3esy0mBS38Bo+TIYGY6F2ru9uJk6RbxaifFtlSSS1wOIk4c5rR02w9JM7VtS+fQjjqsWz8R1LQ/u/Hu+77cyvY3tkd+rLf2r+KpX79k9f9i9Qcw8LYnxDuJ9U8vz/Qwjvb7BSRd8zpFuagj6rnI8xax3jA12UnMuLRnS03bS6U6nbO/KTqy8L8Km1zv5OfjYtK28ZsqU990eLZ0H1IYwIteBHZz41I8VaXS1OFbudcLK9eTMoZ583cZW5nJvRhGfdhNCXUev78X5zgTWLWOEzyWTooH1rdR8sXssp6EW6t5vHGuUV+ktIqzqveZllGeR3n/lAaOlEhAJrtoo3GWFzi2I5X7vpLdyv1FwuA2C+mXdNLBvhEb2DVD3snpxbp3InHoR7PzaXXdxPdVcLCqWav6GIVF4LJ0vEvCcVu+4cJkh6qj+4hqqv6GLeuX4xSGRmZbKOSCiTCBWTOOhan4d1YmCl8M3fGCEhjl8F4vnntNEvUZlggvmapH5G1f10pA4dmSwlzoXio+WONZjRslnaacecTw/e8fGATkWczhsXPOxXmoShWT1xUupu3+YRg4M09CWTmoUH9g6ji+jMmir1Ed/N8E444gd8y3/t21MsRN/1eL91s1tpHb5jM6Y044FXOgaE+nyRHDiOaqvFpWvIyKPnMhQerCDGsQzz2sbMAqxNHUvFB+VtRzPacocGaEBUTjzh8zbQCv3OywtPfrfUcw4s5Kl4ZV14lj9GZz3XCPioVaEzfORdMcFi/t1ivgZEcc76YrfhXfIjwzvlV3Us0JUGsQHTs650j9AI5bvnMvYZo5Pkc+X9NBI0Ljziax43wPUKo6rulW8a/HupdwIjBHGeHk8fnnVvkFUtufmx1D37lOJYlzs5/Sr5U9OC/Ui/daJhmj+Ss47blrXI44X72h5t0w7AzvFh1rbrzdeM7uVyaKGAzn4j2Oyg+LYq0XZIsKQOjZGqX3iPpzWa0Wc6I9ToAwqpqyMnm65ISe2z2+l3tEx+a7HDvQ45f6V3ZQqlHFk2GtFnhZ5j9/b4AilRp34tuW9JPJZ1Hh17mVUzBS+cLhl3oIOmQZkuhZh6F7eREtNs0TDqZCbE9A7pmZtba1vKK9zvBamuHneDbPMpyPUfbl4T5d3i/ys8um4PFSS1Dew1G+VE45qamhz5zoQeXVVo/xGePOjIOa3Nbm8bideHnbygfOcIp4OaM+5UoUl65St5tBwacyJ9FJrLoSgjte/pfHeq5H+VXxxesvltS3d1L68J//DXcw8HfcdRM/r5ft+BuPMeZfvMa7+ts1/J+Mper2DfwzlPNO6JUVjnFePjVDPEn6+JlF+eGI0+XTnUrZ3ZSdW3s8OU4dKm7n3J+uHohE/n3981sprppx53w3LnAbqGExTNjTtRK0Di8uK98Vpo2Yhv1sVH+vbqXWjm/ucsMp6soqH4dGUzOP+eA+ZsFkahJpZnljdMk74FCIsjZc57coR0Z5IHxigruvYQDTKJrO8Ghd5pJ+/l1XU2q++b0K5dxH5/VceMFoqAfVxdcf2uxkq93FWPRnymVhlOJG4cqiKY22bmQmdMW/e7pAiwYr7cSE+pFXUJIe75C8trTu1q8gMYbu2qDCs41/yAlZN0iim8WCdmGxcxJWIC8+H8EQftXD8eBpDAttM8upZquaLsJjPbiXr9ByZI57RPH7UKdwKGi2x3k0QzrGeZ1HP17DePNuNP6Mixoj4WyrCrFf8nMaAv8CUlcFIky2r57i6d1LfYSnp0feOYsaZFfWxa/Adl6WB5fxR8lYUnYqY5X7qlwt9WJgTXhEPkSuQDuktzodI/qrAFbl9tkqEKg/08kQRJ4yx8ngx5VVAQ29ktai8Wsoy/+pc7jvWe6foqP0qHnImi3if3rt6jwtFxZPnF+0CZVBxZWXEdCt/SfcPOXQNgV69ILMRM++VJZ8xlnh17iWuG8VoKXYoguqh4qlQyzgV993AceN9fvmDiNYbNX6et8SdaT4wSX0DS/1WyWEYtjLQffY67Qel+N/W5PJ6DELysK1BnrqvQexzv3uqh4rnORxjrmmDaAiKa5h1Lc+ParHfqzf9y6HGpiFjEjNPx38Hlvvb8noZv5+ByGO9dR/5HOaPjUyseHLesef9MK6RtrlQQSsoKd05lO1d2YiV90XdhHsScRjMiWbF/bh+aH4Dy573ufcLG5jiGarmspEyQKmgH6h8WOrAbh4NrbPFi3cZZ5a06dTV89vjf2eCwplAumBU2vCke0t55aZv23c5+vuvPGC0VAQqMbvdRWXFTe/hwh8asd/tFqYqiZ4PtJwk1d7l0a2A5ivRTsOleqW1Ki/3eSqSMvFbur8ytsxioajGg69brYNcbUnrzcOFijvMykReWzcL1LNE+ghLhqlDFPoeUytHmnr4F0ajMuirIMd6NwHId+4Pt6xIGcPKcvHnMT5c1D7tefwVeofIYRNMxTssJT36nzlenNngHiSB95ari+kfEHsXcQd//nTCW+THJJum4Y0duSFC/ItAn+ejGWS0xAtjrDxeTHllVlolTmXGN4cVo8rJ/MddvcfAxmL+Ped+1Td/IZRESw8SW4O+QBkUKx7dsERNt0H5IyxP6YQdZ7l2OfKZxBKvbrqx5T9fOJShwD1a4i3dqcKo5QlZ+eUyODevmns9M20Wk+ctcWd8b5jEvoElfquccASUgRPiGcW3NB8fcb+tSeb1GATmYXs8UbqHGsXx7q/LTrxp70YaCmymqPSg9YKSw8RL+i7qca8aeoXyU6w8XcQ7iFoPKeP3MwhphJppRDUKPfVrJlY8OWEwezjECVup6a6c78pGvLw/Rr1Xi2tayjJG1g89Zd/k5f3M6IDs2egM9amhxrUjljqAH3sdJ2ioj0vMeFdpM/+OGRU3OfMtybpl6enCwZIffHlGILcZaV4S5/1XHjBaKgRnjHc7DU2oipuxooz+wbUVaM42kegDFeUjwETMEC5h+zSKajwEZGCzAurMceM+p03afSOGN4ftF0wN+UEwPhZm+OK9GzuO+287lyU+vJ6xpWHx598X9IF0ujf7x7WODXZT++JGqp+v3H9XlfAOI75f8/7h4Q1/FhfnGfRraqhKUP4D4nw47M+qpN3PH97iyBzopua54trzxXvNlS9Onvc/X7wwxsnjiZVXKn/ar+Eof16h96j2X9bg/Jo+r9X364lDwHV4zo+1rdR8SX48tit/ZTk4jSZXVlr2BVT+nB4t9gadh5h5L5F8FjFenXvZw2bNPzw3iPoFs4a7OvenIo31dn49FNeSx+pDD4xeh7ICqMd1qXlexY/xvWGSKj9L/VaFloFu+N0GQNxva6J5PYBE8rBRXqleZO758luuvqve3hNOmHVjpKT3WiB+c8TJ04m9A/++cn4/raie4tZzWeb8ZnHiSYXPZ3KpHi3ehrKgHOmujO/KRqy8776/gGvy0vaea01G3jfJpmmgjYdMVvveV5Q6cFC92kvceFc9Z/S0KXup6G2AUr8zOnHDJ+C5Yda3U8tCHoam3VPIUxbZ0rLcZqR5Jtb7rzxgtFQKuV+SlNNrLtusXDt22c3uyIyTqRup+5B4Rnf8tqH8kIGQhottX6wPjJ3kGg/+Qtgp4FtpwPLMjrSYjBjeHAUqK/6w+wuueO/GguqCWN/Wq8bN6uqldu6i6omrmIWjGp9afXU3jRwTcTWRpTHRIG+aU224xBkaWF4nKob1tHT9gBx/6YZ/wGc4TdE7jPh+AxsxUePMQmhFQ+VfX0VRnxfFlNbID/8YxsNpVOu/zDl53v988cIYJ48nVl6p/Nl434j1GlK5pFPoPar9cxqoc/+IHOMc2p1Wvw4PdRAV5JqFndS7T43JZx0W+cjz3gUF0mhyZaVtH39fxPdjvshrIv9yHGePiMq/yP++8f02Yua9kvNZjHh17mUPW1j+yaa5kdPiDLGb20hdBwrEgt7rQ/ZOyP/C7DScxX1EvDppXB9OUGqeV/FjfG+YpMrPUr9VsRpbcb+tieZ1C0nl4Ykho7xy3rtjxhlzgshfqJUJo55P70lR0nstEL854uTpxN6Bf185v582nCEHzdTlq1MJreN9RpzEiSeBM0daHbX2p504GRcN91tF/Wl+h3felXKluzK+Kxux8r77/gKu6Sv7yp33A1GLCuR6dESvAztlacC7yhE/3p25GfPX9ffKKvU7oxMzfDzfH7cl5DwqI5R275cZiNaulNuMNM/Eev+VB4yWSiE3CZozbtfneKtEXbu6x5l4z+xCFambmkslGS22LoQqA1u7qwUNOykcBknE8OZR3ZutXT1VOI2Kr6/givVuLFjGEev4x23GLByZsT5aOk9sF++eJWexFxUED/KXOXfVIx01tK0S3mHE9xvYiIkTZwZu12dr13oZLv0Dorp3GmkniPCPYUzUe8yHJchoiRfGWHk8sfLKqVQU7B4vKfQejf1qfgS/AWFeR6V/Ts9mI9QX14ICabSostL6TAH7xkeoi4dl8DsXClsxwUfMvFdaPosXr8697GEbXslzPBTIP+4Eglq5ZEV1g+ex6fKe+vG5Xiwq7J7u26XmeRU/lvMTKz9L/FaFhiNo6FDkb2uSed2kmDwcMIzEN4SD87T6cUymj7wx54aTn8nWq6y09xo2NEsjVp5O6h3495Xz++nH6H1monq7eOa/ixVPTJZG1vIPSiKcrDm84mJ3frUnSTnTXfnelY14eV99ywLqh/5vYDnzfhjq/bjpTL2TSHXg/R2yN0x4WVpEvKsfXmXa9KxE6pJk3TJe+JyRGZZ5GS2TfFvzjC+fu8R5/5UHjJaKQWWOyxtFYWnvwi0TserW7hs/6o45jzRZZljDxbIv9gfGj9ODwZIBxceBXXtvoaAysO26aqIs20SqkWaejhjePGrCPsskTPawWwquWO/GRN0/rNBUv/bkC9u4hbcz2z9P8hba2JIfDlEI7lZ/u6j4r4h3GPH9BjZiIseZBTWZn2/iQn6Hbfxrj/cDwhWTqCt5hH8M4+GfNE/9aiPev0mcMMbK44mVV+ITzJOkFZrwUVLoPfr3Z3e3i4an+fzmcarSeLl4FrXFRYbNeO+F0mhRZWWMdCt/ab2yu4iySBAz75WWz2LGq5zHQe9CrRgfonZRSYuSf8yednZcE6WbusU32/ujh/MMtau7ZcXQTLOl5Xl1X0t8JFZ+lvStErjhMH8IEjjPrr+f+N/W5PK6STF5WLxnS3zbJiV1TZTu9aIxahh58j2Lbd3cI8D8zpf0Xrn3s7jmHFGfNMsSnZh5Opl3YNlXxu+nD3mv8EawNMd0AyRmPDkrajUVmFetvOmubO/KRqy8L7K4HA5vCVtAeV2+vB+CWVeNUwfOinoLmwMes92kuHiXczNe1k0jASuPlvad0YkXPvcHDZ4CQ8cJT4R2pWsumvEriP7+Kw8YLRWEU8kzMquO/LVJ7A8wYrL7OmT352p9yebBXupua6GGG3TnePKNFvcj6iyn6SzN5S7jWM/L2FkaD7ULGsi6NPBc/9wJ6c3Ncnk1fRm1of4e6lreTHWrtEIianh1uNIn4zW/rNjQli5qlksX+9+XreCK/m4MVJc5v4OuY47bjFt4O7981a/1fyA9qA9H1XwRD/vSlDmWomH1DhsWmJXEKXqHEd9vaQ3AILhiy5Uj7/KUPW0NgctT9spl78TxK/LLIQ5s7KLWRXXUqR0b/jG0wOYb91Roc5Y2dOOy4wZnzHHDen3goWrw8NKG/Ska4/d6WKW3GGGMl8eTKq8E4yL98vXn1DtLLqow8jKKLQtatGXEC71H2371Tj0feP9xzvsR8bpygFLHnCUN5bKkIv1znPgryyFptIiyMnq6VRX7JaLyV/FGi3t+xHh151zg8kmUH/pyofUXc77UwiEaQS2LnKUsZffvI/nlL6MMoeKKo7M8r947wUGGeU61yGfmMtCCEvO80zipo6Xrhyl9Ik0j+9O5sCb1DSz6W6VwwqGWeN2XohQvP7tWhEGEzWcYxPy2JpfX/cTPw2L7Atsyu9XU6ClfBfI7LtKL+H76eiOrXlDV/A22rOBR0ntVS6K6y7zmz+2gPjdiY+bpZN6BbV/5vp8mcpiLrReJjjn3Rcx4cnroLC0471VZ013Z3pWdWHnfSJtOed1D7eLZgpZ3LlfeH14h7im+B125Za35uq3yeyCH2bpGRqw6MJel7vLOnbl6mEyfd/ap44qMd1lHaKDGy0W5YeuVlVjdMl74+Hk5n9Yt6aZh8V0dGx120uZ8kWZFvBVsV6pvONd9BkbH5Pm5lZ8iv//KA0ZLJaGMlMDlslSXMV/lQ+fYEHUtbsxPQjRnHtUvFBWmnfkK2ZQYLYLMoR5qXTBPOpv8YZm3oJV6DonMyB8kX+PB+bVhbHeXyETqHNn1souGAh4+c6iX2hdpk4lxw2SRqJwc0L50McLrQcRrpyiguMKjhz3NhZTxPgILrkjvxos7jtj367aBrPjnhhfFL7zTGzjMKlw58cen0xvfRwao/Wr/O5S/2FXCO4z4fv3vKH6cWZnI0MjGVmq4SHwQVPibVw3RGHedFX97Kk0MH7+lnZovduNUfJTn11Oz+DiOaO88/GNoIZuivhXNooGZv65MbxyX+y2RP56inuWiQiuPFe99rXaniGFkoudxRcnllYInYFvbQo25yenEvS9uFB/kAcovKlPoPQbsV7/y8y9IKVkxtxwn4mh4vWiIus+Re+9ObyF/ZTk8jcYrK42w5LDvc3rpqHDmpO5xOKgkUsTMeyXnszjxynjKaU6nzdQ5KGJL/hKphcPNH24+lcc2Uuv6YXFtdUwYqheh2TtBoowy6z6mlDzP6XyVuyKGeGeL3Qq7Q2LfwCK+VTpOOLTv5cXiPfQHnBvj2ypJJK9biJuHOWyi3OwV6ciNJznkdou5HDyjwmMx5sTXV87bEriajKCk98oTrWphdL7B3TTiBjJmnpaU/A4C9nHeKMP304OqR9uWSPbiHJdryMaNp1zPDK94qGbrRi2NlDXdCcr1rgKIlfdF2uR6h5uuc+W1jE9LfadMeT+zT9RRjclb+Xsgr2v2totcB3bwxofz/lvWuysZFRvvap+4vy9PuJTynckRP3zp/nZqcvMvlzXLxf0yTm/MKO3K7GFR91ErZHJe6NKHyUV6/5UHjBYAZjnprUtFg6OR2jU3X2qL+Piwg+xZoQYAMF3JHuiixou8vwhJ8S+JvAJPoWEGAAAAwuF5sBbOo/obuvI9SqUGqGeF0/vEPw8jAGAmAqMFgNmMOzmfOa+Bi5z3IOBXHADA9EFNSBg4DDFtLqEKAAAgLnJ+F3N56Bxp6uHJyGP0uAAATF9gtAAwm5Fd6i1zCSicIUX6EqUAgGnJWK8c7uKbSF3hDCkKLgsAAAAUQs2DtXzAPlxGDSkKnCIAADCjgNECwGwmO0wd853Jp3oPpHNr0ucmsaqqpqaN03CabwCAATcAeCjgUuoeTNGYyus8EezA+qVyAtRIq5sAAAAIRK7sJietHpIT3Dr1qjSNuIsBzG+nYXPuDwDAjARGCwCzHTVZnj4xZPVF9dS4uIN6D2EcMQAzBt9kckJyYs1W6uZJCAEAAJTM2CBPsJqfBFVOMn9JM7Wu54lu1UEAgBkPjBYAAAAAAAAAAACAhIDRAgAAAAAAAAAAAJAQMFoAAAAAAAAAAAAAEgJGCwAAAAAAAAAAAEBCwGgBAAAAAAAAAAAASAgYLQAAAAAAAAAAAAAJAaOlEtjXTlVVTdRzTP09rRmm9qoqato4lUuFjlHPlVVUtWJY/Q2SoRLebdLY0kolPifS9PRiBuaVYz3UJJ6pfZ/6G4QQ8/3P+LidovJrRtWtmJn4DS4fYxubxPtvF7FWeVRy2MrFbHzmaUfkMhNlUVRgtFQCMFoCSFHX/CqqXtJHGbUlGslV6jLbllJ1VR11HVYbZjUzsWCF0TKjOTZEXYsbqW6uiDvxTqvmzKP6hS3UsXGI0ll1TNHlTBjx0tC0KGcsZsBMKR+HV6j0YVUxDYOYZch0NFomMpTq76bWRfX5/FVVTfMubqSWtm4aOJLLYILSyq+i09l0rltl+mjpnCqqW5tSG5iZ+A0uH2Vr2FvfTTym3nQox3cvnCl5ZlFOjWxpp+aL54kyxCmnaubXU/Pybuo9PFlPPo2A0ZI4MFoqgSmuDGR3t1PNnKXUJ8ucDPXdUE11q0fkvvgkmfnS1HN5NdW0DZFeZStMco1SJ24aqeeI2jCrmYkFK4yWGUtaNF5FZbj6YjZWBmhocIiGtnRT++IGmndZt6hmuhRbzoQRLw1Ni3LGYgbMlPLRMVqaqYvTiE+pIhoiMcuQ6Wa0jA1Q+8XVIs6qad7VrdS9RcVVfw91LW+murnV1LozOaOl6HQ2nY2W7BC1i3hs3JBWG5iZ+A0uH2Vr2FvfTTym3mgpx3cvnMl/5qwo2+vEPWuokY0VWZ4PUM/aVmqeX2OUUUBSqtFyuIvqcmV1hgaW1VDNsoFJM/MqERgtlQCMloSJX6nLbGkuTyP2QCfVXtkjQjQTmImVPBgtM5MsDSwX8VXbTkPjatOkkkAamhihztqA78JUlCszeHiLY7Qk2QCI+f6nU9yOi2ebL+Jr/lLqDTI+JpRyTFH5NZ2NFiu2dJWh3utmZr4slak3M4Kp5LCVi0l/5tFuquf8EskQQz6SJGq0ZGmoDUYLjJZKYEZVBhJoYJRM3Eodm0vlqQSOrK6lKhgtFQyMlpmJiq8py3sJpKFDnVQb8F2YknIFRksMYr7/aRS3I6v5F+IG6h5VGyIBoyUZLOkq00ctMzRflgqMlspi0p9Z5v+IeQP5yKFUowX4gNFSCbgJ+3CKeldwt1uu9PE4wmZq35Kyd+sbN49tpNaNI5Sx/IrUsjUjCpFh6lpURzXi2KraTpL9VVTlzppRQip+Y7u7qGWhupa6d8sW1zG2Z760KGB5jHX7vvzTZA71UrsbJqHqi+qpcXEXDR1zjwmunGUP87n1NG9O/tzm1cPKNXXPGxL36KHWBe7YzBqqW9hKPYc0b/VIL7VcViOvoSsX/oBCx3tdU+JDIuK782rL/qCKprhPdVU1dexXf7soR77qBnMcrTKHjO3y3bjh4vkoFnWK+FQ7XfiZVBpIb2mlhou4C7hKJ4qx3Z2ya6UMs7hOw/IeGskMBRaske87p4OGJ8ZoaG1L7r5Vc+uoedUQjXnSbgCZEU+6d+fc6Boc8+YTlT/qtXs0ymdQ+3PY0ljwB2TSntOHPS9kxb3qRLpp2ujmvwJ5njHCJfOOJVxhjU+5T2/o8zPzfSwy49HJu26+t+RJCb8DJz944pyPt8W5D7dHi3jugvFdqJwpFFYbbhpKUYrHh7t5idPAil5Kmb1sZPy55UyGhlc35cq2vKKXK5HSaSBZSm3Mlwu5dHvE8k3whFsj0veJy9FC3wBF0tcziGO0RE+/tjIkRtwGMLavhzr0eYdkmhqgtCcunDTdtFmUi57wVtO8BVHTsIUJ8VycLpcP2OslgQTnschlqi2dqbKs0c1f8n205HvauOcdEcetyqefoDJPUua0xowNat9XU7ly1ZaGvNvSW0Q57qaDnCzxFIRbBxTpxEN2gFr5Wvp3QyFNXmN7Wcp0fnclfkfdhv3QGM/V1aDKVM4Dos6w28ybDqXlbwsiPfUsd+/N6amZOkV9hevE1jInYvqTz3Z1L40Zx1df1GA93o8tT8Z8R0GU5Zkj1G1MVP25eUt4eRcpH0UKo5MubOVcWJqJXAaqZw2qt0dPu7XUeUj8V7R/cu0Yty1hK2sn0tRztbjffPHucnUX+/NE+z6J4zgt8D0nRH1nrRuvKlyx45G3xUy3oi2hp1FTSRpuMFoqAZmwa6lOfHgb2npoYHCERg4MUe+qRplh6lYOG41Ikah4EquLl1J3/7A4dpgG1i+lepFg6kTCzB+rKlvresTx+TGKAztF4cC7izBaHMOkmupv6PKMd+zsdzOzPxOkNyiTZbeW4Q91ygZiw8pecQ3neXn+hNarl1LfCXVMQOXMaVyKgm5hO/X0O2PDe9e3i0LPnXVBnTe/TmTeRurcMkTDoykaGeyljgVcODVQt1sRm8hS5oSqVNw6IP4v0gjLjURboaPC3rR6mNLy+DQNrWwQzziP2neqZ5TXHaHuy8V1L++mEfe6QcMYVMWm/j7v5Gqp++pF4VpLtVWtNKAnAnW8J57luxHveZWI0wMiTsXzdi4Ulbk5Ivx6z0n5TCLuxPE1ufkremlYxcnYZvWOl3XTwD5xnX0qLXJ8Gvdk4t23juovrtHSj0iPIu3ydatvLTBWmIdScLpf0CHPHRH34nB3L2+ipdrHJt+1vZm6cnMHdNNSnlPADFNgZWMKn9OKP5yZ3cpk8XSLLZDn3Q+myhcyDrd0UqP4yFVf3eP5GMYyWmR6V2lcKb25RZzv/eXbNYbyaWuAupfVi3j1mrDuO6i7uF6mUc975Hc7p5WGCkRidn+HE98ivQzlZ761EFbORAmrDSf8tSLP1Cxwyik9rqvmiwaEfgmZZkQ6UuVMVnynRu5rFNsaqVtUlJw4FSdEKFcip1MrWRpeqca05853npvzf614poJGS9TvU6RvgCDp61mIarTETb/eMiRm3FrJ0lBbHTWtEPWEfSkaO5ai4Y3tMi5q9bhQabpa5B/+Bra7cxSJtOD7BsbB7YpvNswLYs9j8cpUI525ZdmcempZy++cyweeI6aTBtzPgTzPqVvJdybSRWrUST/WsngS0lpma4tML61bxPvjvHtMVPiXcLpoEmVloTRkbBsX5/e3inOrqFXUwdyyN1uwke2Sou5LxHsxjLPsTnFNWe+oN3ouOcdXa++xbGW6fHelfUcdo0XUW0T+auY04gmf+HYa6bi0/G0hO0wd/Gz691bWRUQDcH6tCJtR5kSu26tnE2m/nr/zXB6o+OldyXXRKmpYX6iwt+XJmO/IRtmeuUDdxsoY9XIZId7f0jDzqVA+ihxGJ/7Mcs7B2VdavTK43h437bZvEG28uaLsXOmknd596mbyPlpZq5ksQ56Itj1P1O+TSr9XdlHPClFHWqjm+eofUD+Gxo1HZ1vkdOu2Ja7uFPHnvOv0YAc1iHDOaxPtwMjlZzRgtFQCMmGLhLjK78um7msQ+5qpV/t4y667lrkH5DwjngqUKkj5g5L7xVsjrtFyopeaOTEbGcaLNxO4JkvrTu89nA9goYqt5UMg5y3gDOJtFHpxn9soqJjxAVoqwuc1NEIytVnoiCeXv5Rf1k3eS6sKyEr9Giockbr4qx4qnmOdazaJApHD55m4S4SrWq8EneijFlFI+MaiuvGlV0pUevO604rsELWK61RbfrF00qKRXoq4b61l8rXUunqxzzCTTALMP5ORVeJjLgrWAfPZ3MLV0wvIksZsBflkPqcVbzhzJotIx95LuWnfnuedSr4lX/CcH+Kc1sH81WIZLSbHeqlpjhEGFf/+eHHGRnvzlMqTtjlWDnfJxl6Uiewy+7scY0McX3OZ+AD3pywfUUsaiBVWG274LT1qRGO1Qezz/MrmK2dEqGQZ6d3mEFKuxEmnNo44YWswDF+n3OMKa2GjJer3Kdo3IPnr2YhktBSRfj1lSNy4jYFT5nVo4XfLAUtet34DI6LKtvjhtOSx2GWqN50577+A6RmzLC5/WlP1BDMfuj+ceBr+ljRk21b0O3GQPVTmiGfJlVNOHadaNJbY0PWkE/UNzpW95SzTY747G857svVoUHlOL59Lzd8W0uu5ziTSjTnMTuRBrmeZaSh63T7/bL78w8+2RFz7En3CdxuWPBn3HVko3zO7ZVpAeyaIiTT1SsNBnDtnnjQBhm0/vITko+hhVPHniVMXS5pJqt5eTD4MKjvlfVRZmzNZRF7zJfVoeYDxf5/y6dfelosZj+7xEdOtNJKN/MTIH7aNcCYBjJZKQCZst8uUQbqHGkUiyXcPczJgrW2yWtc4yX2sVcEU1CiIabRwI81e8ddxM0E659Q2b7bcPfeLkL7MqonlQyDO4wZheKVCncfdKtWWPCEfF1um1gsdie18xnZPtS2S0SKOlgVPi5qUWCAr5mymKBNGMz/M7rvOu9HO1ZCNCL3wkM/kbVTn2N8h3llA/Kq0qKeXYu7rGx7F+OLZgvqYhPdQUB8oawFtiWPr+/QX5JP6nFby4cz9cmH2dJOo46x53j7czMF5Zt0oDGt8yn1B6Vp9nH0fUJl37eWc816aqDd3QX948vjfTyjuMrTukJu5jdR1QI85SxqIFVYbThit5bR4Mz3cI0V/D5Z04d7Hn1aCy5VY6dQC92YLTJ+7OYxGRdQX7hjfp0jfgKSvZ8dJ63bl0lkR6VdPo7HjNgbO/fW8qtJI5G9gROT7tofTH4eW8Gj3jF+m6nFn+2HCgjwvalk8GWktqOyylXe2Yy3bQt5JJMT51Xq6Vj+2cMNE1jO0BrvvnRWRJyKX6bHenR0nDPY05uQ5Lewl5m8/3JsiOI0OtZl5JEb6E/jDlMdfHtiwlQMx35GPcj6zCm9Qe6YA2fQw9ax0hwhxz48+b/0kMB/FCaMTR/ay1R9/xdQrrfX2YvJh0I8ubt5KK5NlbjP1WiM8SnpwsKVHZ5vf7HCIF4+5Z4qYboPyhz+ukgFGSyUQ+tEwEomasMlbofEqn6AKVKjcQsKWUdQ+vdCRH92ChbcT3vrLnO6L3L09qOcJzwPi/NpcQw2Lu2hg1CxtgipnhT6wYc8d/HGxHu97N0EVPOeXKm9hrO5VqDLoIrtl500O+cuAMlOkc57r/uZcVzcTnHcj7hUo7b2FpLfQ+J3wz9GS1H3D84DG2JDTrVJc29pDQeUPa5pm5H30D1JwepjS5/ShwinyFf8qXjVPpAXTuZfYnsfFqTDYw6+knec0nOz5Xe4LSNfci61qjqg8GF3onbSl3csnPV787yBP2L5wsmm1LK0nfP44ixdWG+Fh9MWfJV24H33/fVR4LfEfK51aCC3jldHqqYia4Y71fRJPUugbkPT1AnDSun15Z/fXz1LTb+y4DYDnBuEllOsvdsehu9KvHVYOhO0rgBo6pM8L4JI5nI+zLv4VtUB4SitTVVlW6BnilMWTktaccPt+CFA9WrzxaitDLNvkc5RgtBjDkLODrSJdqcaf7OmYbwwNrxBlp1bulLVMj/PuAghqUEmMOm5yz+ISnkbTG3hoqBa2uOkv5NlCnzuHrRyI+Y58lPOZSyi3dCYyNLK+2ZmWQa+vB+WjWGF04sgeRn/8JVWvTDTtyvvUU8NlIq+L4xoDh6DZrxPt+1QojcaLx/Bn8u9z4ssfl85UDfkfsJMCRkslEPbRMBu3KtM33jeSG0foU86mLFAwldFo4aUf+w6JsM8vMNRoIkvpAyJj3uB07atZ2EUjuQakP/xBGcRL2HMHf1ysx1vejTP3Aw/bGKExDmt2jEbua6LqOU3U6wmXuldUo0V9pByzJk3dl2nGjRy2pUwYlQb0rnDOu2mlAVt6kNLeQMECOyh+/QVWUvcN3Wchmx6h3rUtcuynp4eCiht7gSuQ9ynWaJn858yjwjmngTr3j9h7jEjC0r6qBOlzEZnSzJuijBb5S28tte/W4kPhpC19zhG/8nML+N9BnrB9EfDNM+GPs3hhtREeRvnLXtmMlojp1EJoGW/5JvjCHev7pAj7BiR9vQDC0rpLqek3dtxaSK3nHzCc8fzDo2O5+6bWm5XWsHIgbF8BVKO80BA0f3z671lamRreoMsRpyyepLTmzIFWR639aed642kauLVO1Jk6vPM2WdKQdZt8jsJpJxi9p2OWhm4VDSy3t50awuDcz/m/PpSorGV6nHcXQGhjzjA3k3sWl/A06gtbzPQX9mzhjVgXWzkQ8x35KOczl1Bu+XCGx/l7jFjyUawwOnFkD6M//pKqVyaadlU81C3poxE5RD1oeKb/OtG/T4XSaLx4DH8myz41j1D11d00wpOXi3J87EC3M9xd6zWWFDBaKgGZsAO6SAYMHQoaGuGlQMEUZrTIISTeQie063MOI1GrLraREi+vvCAazvleIZbwhw1tyRH23MEfF+vxAYXb2LalNI/PkeKZrdtpwNcFTt0rstEiQsK/GHFXXflu/IYAv3dnfKG3u6FT0BaueEhCCmw3fq1p0ZJeErtv2L4w3DGkORc6PH84hbsed8HpoaKe0wynGtvrmyjb+jwuEbvbK4IbnwHdg9WEcYHGquzeWijvulg+jjnC9kXAN5G0Jc5ihdWGE0Z7V9ZyDx0qJn05uGW8teusDKNREfWFO873yYLvG5D09exEMVpKTb+x49ZEpVv7XG48Z4Ue/rByIGxfIVRDvEAai2K0lFamhg9RyGHJVznKnnaDyNLIWv5ln+NIaM48aljcTcPa99zBVs5ZtkVJOwVwyhrR4OMyXDyD3rMm14tFGtTG8IRylumx3p0dtwy15jnr0KEknsVFpVHr8D2OV37/eh6Jl/7CGqph+/LYyoGY78hHOZ+5lHLLj6/MDMxHccLoxJE1jGO95as/J5l2jfvI+Wl8PyIzxnVifZ8KpdF48Rj+TAH7xvpo6TxOj47kKr/9xQxKKwyMlkpAZXBzVmYmcDLcSCtIFCiYVG8Zf8bgmaPZaTUKHdXQ9nS38+FP1M5QgijhVQ2QXHgt4c+K63OhZ51nwiXsuW37nGE/VW1D6m8NW+Em3dBaah8MDoGDcs0v74k8ptQ1UbrXiwLY6MImCyaxrZtdcLOC6Ta8xXNZG7k6YQW2Gp9tm4BOvkfj3SZ237B9BTC7ozr5wz90xZ3jpeq6Xi3t2NKDpWCe8uf0hzMrKoq1vl8bwtK+82H3z0Jvx4lXb9kjSTvlgDcNZkUlyvarrIY7x07oRNYuRXw4I8J5TM5JcEBtsMVZrLDacMLIk7P54iPiZLhOWdBoKTdDypU46dSGmrDVNsGi9ZtgCXf075MN8xuQ/PVsRDJaSk2/cePWRFUwG20TJ3K55gl/WDlg25eldH8vDRyJkGrkRNciHi7uMFahyBPFaCm1THUq6nXehr9JzLJ4MtKaE39NAXMT6NjKOcs21UOvfbf6uxhcE2U9N9i8P+JwPPFQIlkn8UyaKyhnmR7z3dlw0ojtnsGT4Zb+LHmciWEt6Wlc1L1FPdYsc+Kkv7CGangj1sVWDsR8RxbK98xhZVpMJkSd/zJxLb0uGJKPoodRlQGeOqZDWevPSaZd8z78Y6aId/+1jevE+j4VSqMx4zH0mWz7nBUAuZ2T9ApDNmC0VAIyYTdQwwLb8s7V1LjemDt8XDT05TwD2rKGQrzEccuCFs15LFQwub9O1dHS9QPe5SZ5WUiROM2KnzPBrVpCTL/vfe49LIk6N3O1yFSqW+3YlhZqlsuzjcglktO5562jjv1ukWMPvzMZKHfT7cwv+bexi1rv7BNnMGHPbdun4mFOA3X0qyXJDqvsbSvcZK+PeuoKq+ApnI8Oxy8vBZ2mkf3p8AJVdlOspVrxQfL9MiaNrmqqFgWzbcWI9GZn3Km+7LWz3GUz1a3SnjeswBZ43rFcJk68G17nPmh55yTuWyBMElFBbVnkLAM3wkuyHckvl+vp2eHmD7W888ioeJ8iPO28rKnvY2lLD/ZCu1zP6TRKAn51y2FPt9Lc8DxTWNoXiLzYex3PceNdElLmn0Wi0aLnd9UwdJbTdpY0dOKbl9wUcakZLY55IfLuvnx30Zy0rvTZfR1yuFe1vgTfYC91t7VQww36r2BxP5wm4hgRzublXfl3xfdZrpbMXz5QwGyLE1YbThgbFjRYl3euvrybUvoH3pZmVPzXLemWSxCmRfy7E2+GlSuR06kVlaZU91/3m9DTJp4jxvLOUb5P0b4BgqSvZyGS0SIoLf3GjFsfKp263yl+72rZVE5n3vCHlQOWfaqRUWiyZJfsgU65FKZcxcOTx/i9dFALN2IihKekMtWtV4h0Iesv2rvodntkxiyLJyOtOT2bllonwPRiS0OWbe5KgaKcHhgdo7HRYUopczzat4URjSGuc9TW+idLnxD3nOPUO8xloJmylelx350F2ZirFXVr6/LONb6JRZN5Fg2RnriXp3epY66LBC91HK1ur54toMyaSqOlfM8cVqbZ4XiYJ67Rvj5/3YGNonyS92vwrowUko/ivBfn26yWfnfrz1w2zK+XacuMv6Tq7YmlXdt9+Mc1cW2vIWReR72fSN+nwmk0XjzGTbfifYpr1K8N6zSQHDBaKgFO2NxoGU9R7wqRueQEayLjcVemLebyrYqJMRpa20KN852JQTlBzru4URQCA9os+BEKJr7Oqvw9q7hxsmqIxsTHlROireI3NtglCpf8REcynLnlmwMSvHJu3WWDs6N91L6onuaJbU74RSHMa6nv188LDj9PuNQuGoZcQPH51Rc1UMv6ERVXYc8dsE/Efc9yUeF1w7JW7bcVOsrhdcKtKRd36jhGxq8o7OVzine02DWDglDhM7voSpx5W+z7HJx40eKVG8WLRAF+QKs6RaikjA12UrObtrhr8/IeGsk4z20rzEq+b4QwUTZFfSJ/1F8kPngqzmvmN1KraGx64pxR+aPBPVaEp1FUjId9Qbelh+BCO/nnVPcvailGgftrwWVuwz3gOB2eDG5LOzVrk5Xxx6t5hXjHRu+VzKEeas3ldZF+F7RSz6GM01jQjBanQh8gMyzHhqhrcWO+zBHpq36hqBzs1E3IuB9OkwwNc/l4Sb6McMoYcZ9+0+wMibNIYbXBYeT3nKUUx7Wbl7iMWNFLKXMeh4A0wxNuNqk0XH1RC/W5j1ygXImUToPg9LGx1ZN33G8Cx3tBo4WJ8H2K9g1QJH09g6hGi6SU9Bsnbm1khql7sfudcr69nYPiHtIo0cMfVg5Y9mUGaKl4npolYT1FDTIpGuB34pn0kN9LPTUubqduUXfJXys4PCWVqWY5z+9cnDvgHherLFaUOa3lf9n3iuswrRv1+p4tDdnTVfawKKcvy5cxXdJoUnFe8NviIIcIifP9Ex27P8jZJ0GWlKNML+bdGXBjTg75GOPwNaj3Jd6naBx37Q54VyU/i0FmRNYt3bSSy7PyGSxlToT0x1Ss0cKU5ZnDyjQ7bj7V64zVFzl1HX9dMCgfKSK+F18ZL9KPU392hlXZ4i+pensiaTfgPk5v6GptbkjLdSJ/nyKk0VjxGD/duj1jvOLvRycN2S5TAjBaAIjDRJr6lokCUXefXXdbFMLstIYPrQJAQw3fawic2R0AAMCMYHyEuhaKxs8NXbneuI4GqGcF94ipDjYz4oJvCwAA+EhvXUr1FzVS+0a3J6TSli6nt9N8bUhhAsBoASAG0oXVx/Ua+FYTASAM6fTnl88EAAAwM5G9RizzDjioeQli/GIfCr4tAADgxV1oJDdHn4GcJLtwb7k4wGgBIAbDK0VFKagrrjukyDKOGQAbctb5wIo3AACAmYFakSWofqCGFNnmXysGfFsAAMBAzbHpmZ9HwxlS1EoDCTbiYLQAEIOsyKS8XDVP0CQnZJUTfo5Ral8vdS6soagzxgMAAABg9sBzW/Gk4UvXD1HqmFt/cCeN5C7r7bkFAwAAACSMXDW2ylnk4UBalcEZOfmxM6F5NTVtTLYRB6MFgJj4Jq5yJ8Vi8wU/HwEAAADAglxMYKExSfclzdS63phIHwAAQPJkRuTCM+YkyY2LO6j3UPKNOBgtAAAAAAAAAAAAAAkBowUAAAAAAAAAAAAgIWC0AAAAAAAAAAAAACQEjBYAAAAAAAAAAACAhIDRAgAAAAAAAAAAAJAQMFoAAAAAAAAAAAAAEgJGy0wkM0xdi9TygXPmUf26EbUDTB/GqOdK8f5WDKu/K4uxjU1UVdVOlRk6MJtB2kySyi6HKp30llZqUEtI1sxvpb4xtWNsiDqvnkfV6hvduD6ldoBimEl5flo8y7EeahJpt32f+nvaM8PKuYkMDa9tprq54pmqqmneJV3ktgKyh3uo9bIaWSZVza2j9p3JL2cLZiLD1C7STNNG9yMGogKjZcahPhiXtdPA6BilDwzQ0GhW7QOSA51UKz4+rYOVHC8wWkCKuuZXUfWSPkJVKDqTmTadezVRzzG1wcZoN9WLCkrzlun4Fv//7f1tbBxXmu8JXsxiB/thd+fjfJgFdrFAz4fFAo0d7u5FAhYk2LBRhZIwqxegZO5asGDNNaGBtbLbUm9ZFmpK6hqbdrnZ6rGkW7ZYKIldbrJdZdJ1V01ts+TbrKJKMnVlg5ZVJuvaNFtuslu3clo9nPKd5h13P3vOiROZ8fJEZkRkUJlS/n7AHyAzIyNOPHFe/3HiBEZLWTY+HDHtzA45Nr4gq3eWZWF20UTT8NWyTDxpyvWzo7Jwuy7LH87Jwqr7CZSkF9uj5fN7ZGDLCblcsNj3rdFiyosb/EdlbxQePCZj1zZ7cPdg1XNBHtovI7PLUr+9KHPXl8X1dr+ck+EtA7LnlWlZvrMqi9fmZfmu+wlAGzBayoLR8qDhOvW1B+hOQ9VsyPwrwR3Ggd+f7uEBLEYLrMrU0zXZ9tp80EmCXNzTvHl3Wo6YumT/29kj5eXxQZOeIzJ9X3ZoMVrKsSFzL5m4PTMVmCtRlqzRv0NGl/z/0DG92B6tvjMktUdGZL5g5d3vRsuRH83L/DWvSxMyfNDOvqiZAd5mupEPUj23LBNPDEhNOZf1mWMmlscKm38AGC3lwWh50HCNVZs7rPeMdZn+/R6bXrp+WY5ZI+oHtrPbK3HSwGi5f+jBfN7H3Nu8GVz7gScnRB8GLMroDvP9C/frrKSMesjOCtRMBPBk198MdqrnQWqP+t1oSe/Tmpb25tiwzG3aHYfi/a31S0d6tH+WPSBe/MEOGdgx2niMCCA/GC1lwWh50Oglo8WZGr01AHWN4xbTifkqGAC1uhPdXTBa7ht6MJ/3M/c6b7o6ZWC/TNz2H0RxsxcG5NjM/Tqq1ush12HHaGlBdv1N3Vk9GC33mHtqtBiu2+9qcvoj/3/lFO1vrcvlF3q1f5Y9IF44ZdJMvQ2lwGgpC0ZLr/BVXebPH2ssnFf7+qAceXNe6l/57z2uEbZ3R2OLXe2Q0Y8XZfql8P+IIg1B/cMpOX18qLnNI3vkyKk5WU0cQ9bNvk5F9hV5TrZxQyGR3oGBbbLniSMycnHR3bldvWS+S6YlaQAVOednp6X+5XIsXbWv75fhd83xkunPZNU9G7/jzcDPX317f4a7HzS6hy6a8/10WkbChYVNQ//YU8MytaQMmkzMpl7aL49tiZ5vU9HOQ77rEDb8Jh7Xx+TYU82FE/cfH5P5jLouue3g86MynzTdbIdmy2lZSF5Dmw4l/hphZ3C+Pi9jx8PztvEx+eR6RuIS12/b7qHY9Vs4ZdJh0xX82yB49EIZrHqDI/w8SJNuMqqd13uVzzXaxCJA6/yVyJuGXPkihp+pkdUpM3moZuudW/5/Q5CewUYZ0M/JYhvsoNMcS5eNbdt0RTAxjJa5bbuPyKi5dqvatbYUiLnLU9FFxVvdBfT5UDNtnSGh3ImNXztz3ge1a2fj5B8xuT0tw2GcTP1/tcOyYilWD/kjmZg0FnGNKvzeD8DUzpg2OCtRF9WvjcqR3X4xx6Qi+bV+LZq37PU27cupaVmMhmZ9WebeHpYjj4fbBXXYxEeJ+BU4r/qV07HjBjJ1wodzJt5KG7FZbXSObYrWme6zIm2xva5vRtKQULtOe954hGlt1x512sY4ivRbWtRDg2Fe9/Xxgj9E41wSfYrs+rRIfVK03t2Q5XebCzo3yuXtDKMlZ2xUWhkt7ru00ZLvvAPcOR8Mtw3ieexSWGc3+1vrS1PNulbbp6mLj4WLyUbUyMtt+gwN7izI1NljMtSoy+x1GJG5hGHvzBEtHxnixsmGLF40dVmqbjT7XDLtRyNOTTXTvC7LsxNmm2b7bcv0sbcXUvktT726bo7XvC5BPhiy/dY7zYYw/3lZSvR7CvTJ4wSGgvabaJqKpd+Qty60ed33N6KLqYd1UNHjFq6zDfXrkTbW1E/7X5oy13c+02gp3r/sLzBaeoGvVmXqWVOYHhmS0UvzsnhrUeYvjcqQKRC1Z6dinQpXaJ4Zk6lTpqIxDcCE2X5+dk4W727I+l1zfrPDpnAMyYSpeNz/X/ofmkp4/rU9cujUlMx9uCx1uzjfuyMyaCqhHaaj1xxYLsqoXYDzqdMyfc2n5dq0TLx0SE40OhvWzTfp3X1CJmbnZcFss3BtzjUah8774ciXYVoGZHjWp8VoIzyXoue8ZVAGTcEfsun3z+9On93vCnbuWSm3J2R/9Nn48P/IYDEgqNRrjw+aSmlIRt6d888MT8vpp2yll7h7HcbMLW4YnOfqtdOy38T2sdfmEhVZzuvg0zCwe4/sMQPIMRMjF2fTGJ543KRhyyGZTlRkdoBZM4310JvTMm+2XTTpHbXPN5ttp6Ihcp2WPTL4+DYZfGHMXWd7fnNvn5A9Jp61V9qvCRJ0Bm3aTMfrvDneh+Z4ZiAx8QeDJg011yDG+NI0XjZGj9s8s2Cu94I7nj3vPf68N67Y/DIoE58HPwkInjfescMMWF+ai6Ur2L45SAjSlHPQcK/yuUaOWAQkBrmOgnnTkDtfJAgecdBmapg8bNc5ipgPduFPm3f2PB/PT/ackuU57MjsMeew7XEzELJ1mP2NzdsmLgNbhtuva7CxIKftttH6w5UN01ndbc2NREekYMwP/WjKbG9i9tKEO5+5K4lOcgx/d/OJCZNbI/hZc6l862JVk8E/mDB1QLTc7DGdv+iWQZxG3jGDmkcG5djZoO6b/nC147LirmGReijMg1/ZdmZRJp42nz09Ydodn+fDdqaM0VKgLrJ50sZp+JJJsz3uHdOZ/s4ed24TkUXfw+1OvG3Kh4ux2ee7p+XYs2OyGM2Lpg0YejLIg4um7raLx4/9vu1gJuqRIudl64QwRq+Y+j+sEzaCNnpxfMjsf1jm/Oeb0kbnqt/CejFnnWlwn+Vui8P6c1imP6+7c63fmgrK+DOmrEQvrErePBqmtX171HG5KdpvyaiH7O8bdfelCRkxA5mw7miei6+zzbkv38ru7xStT/LXuxuycNaWrWjbEex7m4mznakXK8sFYqPi6gJ9ALz8I2uExR+3y3/eYRtotm3UMaYdPz8so6bNDoj0t3z6Fz5fdm1lql11deCcDJu0Rsv3ujtkjj6DZ+OaSf+zIzJl2qPlO3ZRbNPm2L7dDpNnIskvMrDesGMcn7ahcdNmubRtmLonSOPcK2b7aL3dOM6qTBzcL8ds2bm1Kut2Ad3zR5yZEa3zctWrS6Puuuw/a/Z1zWxj8q5ba+fZE3I5sk5ZMcOgYL+nUJ88zUYYn1Cr08HNlPFmC18s/QXqQlcOTL4wedaW09PuXKfNeQRfFzuur08KjJ/qF31ZaZQrs+2bQ67M2zY52QaW7V/2ExgtPUBQeSmZUnk7TtAIt2i4XCGNdAzasPim6VxE7/BoneEUQYOtdjqjtGg4y5zzoXeSG2/I3HdMxZIc4GTgzjW2lkJw1z5tLPhGV0vfl3NywqRlMFLhBp2x9IDU3SVT7p5ppK5DIw3KIpp+5fhwZo7j7mU5Zj5LxcgP9mLn6K/LDmWR1aBD0/5Z6PCapN+k4p+ntoPwSP5c/IHpsJkOxHxjUBEQe+zC3z2M5Su3uLO5Du/YNMfT5e5ORq59kCY97wffRRqne5TPNXLFwpEY5DqK5c1C+SLJxrzLZykjcyPoyDU+D/eVGKQ4fKcrfqc4iKsWA/l0zL2hZ/hK6wzoZqPZWMUGTAZfNpIdkcIxN2kusviiOoDT3m7mO4Dpsqet9eLjpAwcOi0rWWTWQ1oeTHToHEUMCUuhusgv8pjMsz4/Rs1drcOZG7/AccwsLnpeatwCUnVRG0q10Xm2MRSqMw3BZyYOedpivzB/8u1+oXkxXeriaHm0ma627VGH5aZ4vyVRD7m0K7+PUCjGZeqTvPWuuxEVH1wG+Jia76L5q0hsVLR2dKMuy5eGXRsSewV6kfP25TluqCcp2K6GsUyV75x9hix8rKIzd4oOrFuloVi96GNpZ0P4T/L8Xsv3GsXOq9j1qaJP3qQu08/WUmOuQukvUhf6cjCw2+w7WU4NxeJWsD7xfT6tL7c8bvtciXzVSf+yj8Bo6Tr+bqi6WGJQYdbONotUUGjSFUgDV0hNZZTTaElVir4Bs3fC5lezikjTtZ+6lU51g8wBaJlz1jtmeSt1+crsVxk0BgOtpLHgK/VIA9Mk3YHOSkOrdCdJ78MfJ2MRzfnXzHeRGQW2k5O1wKKrfKONi7suGc8758w/QXozFnR0z1NHZg6ZVNpKd8cP4nd0HOEAxg1q0ufsBtS2IfAd5GZHML3PMN65Bg33JJ9r5I2FJZ3XGp/lzJuF8oWCGxhE8pkl2GfEAHTrkGS96UzLx+ky3iS7k9jEdnzMPjM6fK5sxMpSiZhnLm6bgR/sRzt7waAqcZe4xRtn0vWFj5PaWUnHtUhZySKzHtLyoBb/MJ7a9dMG/4Xqoqy8kc5PwaBvj5zImBrdGuU4Rc9LjVtAOsatKVV35arfwn3nrDMN4fa52uKstqTVNc9BdrrytEedlJsy/ZZoOoP9aW+DiVIoxmXqk5z1rr2znZU3gphG83yx2Kj4djQlO4Phkn89cUiB8w7aq4zzaODzRc52NTyndPnO2WfIQqlLig6stWsZom+fTXL7XPWqv7my/+y8tKh6Cp5XseuTLnsBrcpWFm7GhmKOFkp/kbrQf5ZlTBaLW+tzTsXpo9Pm+mb05VanZCiRrzrtX/YLGC1dJ2h81QYmVI4KpEFWgTbY5ybHXjoig43n0UMl9lefD6Z+me+22WnVs8vpStWuj+CmaZoG9OuHZOTdhXSl6hvOdKGt7pzbxsOzcW04cc5xxe+EaQ1rSPq7rIbcueeJQaol33VolYb0eQdrQUT3lVRk3y3ySMvvIrSMe7Kz4DuweroChZV3cMfB7NflN7+mjuvoJmYfuWPEG4QgTXra1fRuej5XKBALk0AlDxTLm4XyhYa7w2Y6tI3H6/xdrsir0dt1ZF2DGysH2R3B1t+F+Pojo2zY16rGzqvjmOch8ThVeEcnsZ8gVunjNxWNY+tYdFJWLOXrIf+Z1mH3ZV9NszKIKFYXZQxUvckVnzVl15YIHg2zz4zbx08WtF6/fW7+7RE5dtBOSQ/PP1DsHIqeV4t81KrurLSNzrFN0TqzVdpT32UYsMFd3AxTJEHeeLRKV/L6lC83HfZbfD2UVZ5DisS4uvok/V3QdujpCAddZWOj4tvR5uud52TUlqHdpk5N5Nsi593yPBq0qve174J4qdvn6TNY7BpK54flyBPNdVFCRctM0YF1q+usbx9QvzYhI8eH3CMm0bTEt89Xr9o1PuwjY/axM7um4Nzn6cJe7LyKXZ+iffJMTD4/ZOqA1NpNhkLpL1IXtumDF4ubiU7h+iTj2F+l12jpuH/ZJ2C0dB3fQEWf9UwqMn2sVaFxZBTS5bft83jBc3QL/hlBq+W3s/e3sWobgmNBpfrIkIzdUlqLu8sy/+5IUKluGZQTMxHb1zecycqlynNuGw9HODgc8w14XGP2uw4q9XC9iNqzE7JoF/v6akPqtybk0Jb0WiX5r0OrNKQHk0GFN9x87j+lyLVrVZG3qeRDWsY92QnzHczmM8OKwuRF71Ql1tRxs498BzloEOIzkYI06Wlvld7Ny+cKRWKh5oFiebNQvlAJBiKNwa0ffETvtrRsnA2u8b+HRkvqWncc83wEZq7PryZPaHeGglhF1tBS1Fzfp00sOigrndVD/rNEh85R1JAoWBcFz4/vkeHZ1eCafbkqc6/sMYOx07F1DRrYRR6vTcmIMxzsc+eXm9O/7VoGtt526/Ysymp4Ddbn0nEvel4t8lFWXbRZbXSrbYrWma3q0fR3wZR7uy7B3O0gX2/cDmK+52yrxzgCisSjVbpS7VHpctNhv2XTjJYq6pP0dy0NilSeLxYbFa0d/Tx4fCn5aEKR877nRktIqz6DPS9THrcdHJVpu/5QmO5PTb8xEYOiA+tW11nffl3mXjJ1qE3j23NuraowhnN2dqhWz7eqV0NMP3j11rSMvRCYTtsOjsliJA8UO6+C16dAnzwTPytQe6zVUjT9uevCVm2iodhxzZEL1ydZx86qIzrpX/YHGC1dx0+51CozhVaFxqEVUn/HL7amh8c5vK32ZwkXOWvlBJuKd/6Uqayj7qzWcDqqO+e28bC4Z3Szp+IFA6R2a2OEZHxXvywnHjOfm/O1sm9AGTGDgRiFroM/jjpVMuvRoezKOUarirxNJR8SxD1jCmbGo0Ptpkw7/CNe9hEMd4xonnOdOzt4tc+Im/NPTFMO06SlfeGsyb/3PJ9rFIiFmteK5c1C+SKDYPARPALTeFNXtFOVcbcmwKcpdq2yO4Ktvwvxjw5llI10R6TTmOfEP99s867rgCTjZGkZqyRtYlG2rJSph7Q8qNXfrQwJNy05UU4K10Ubsnjemsz2GhvZNyIcn2i8saUV66Zesov5hXcng3NV1sDy8YmdQ9HzapGP1DbrnrTR6W2K1plq2j3qd18uyphdFNicm1XWm0xSFIxHeB652qPSbUyn/RYz+DPHbVcPFYpxZfVJ+rvw0SE1pqk2r1hsVNR21C/Iu8WkI5pHC5x3y0egGrSq97XvgnjlaidSfQaft7T2wa3lEY9B9sA66xHa7OusDcTDY+rrG2n7j5OsV1XsW6pM3o8+vlrsvIpeH0OePnkmJt/Za5axToql8HXJWxe2ahMNRY9bqD7xjw6pj3UqbWAV/ct+AKOlB7CZVVspXaNVoXFohbQ+7QrIkLZg0e6sQhsnNR1fw3VoIscOG43r/v8IVZ1z23gY3OCwMVVYwXe8mp26opV60BmwznfLDmSh6+CPo1ViLRbDbb3gm6dVRd6mkg8J4q415rZx9p35SCzcYqS5ViEPO7gTMmE6btGGOYzJjh9MuIFz6thhhzr5Fqkv52XE3m3rQj7XyB8LLa8VzJtF8kUWDaNyMfZ69AbhehDa8/mmQ2w7YfFOXLEOv4Yr0/YaJGOYca07i3l+3OKZzwzLsH2LiTJIbMQqz1s42saiZFkpUw/F4uGP+7Q5B/9JAz+9OH3u9g0y9u5XYiBVtC66Y9JurmPmGmWtSEx9Do2E+cR1CNqmRMyKnleLfKS2WfeojU5tU7DOLNoWuxlIz0zkyOsJCsajWHtUvo3prN9iB28mr2wxA+6kuRehUIwrq0+U7/xiuNoimlqeLxIbFVfek+XI4Ps7sQU6i5y3HyDuiV3nJK3qfe27YGHuAdPny0Wsz+AHxEr96dqpRAyCMqsYwu6xFrOflBGSfZ1VoyU0ipP9F993SO8/gfJISZpVmbImQySGxc6r6PXJ2SfPIHij1R45/VF2Xi56XXLXhW364IWPW6Q+8TeLtFk8q+/YbRPXuYr+ZR+A0dILfLUq0+6Vkttir9+ae3fMvft+NFLptio0DrWQ+opoy345PWunKa7Kon8V6v6n7IAlsj/TkT32fPDaaDeF8HbzFX3NKW4LMvpU8NoxN6XXvnbRv3a4Fr3LHK5g/dRpmTPb1T9fkOWwcqjonNvGw9/NVgc9ERqLfrpKsGilHtypGky8vi9Ngevgt91hPldf7/zIcOrNAasXj7jX8W07aF8Z6B+Nmp1yz7jveTOS3lYVeZtKPsTFfcd+2a++TnNbevbQlyZG7rXUg8ErBP31nrbrI5i8FL1bZTtsAzt2NKd3R3DH3WLyWeoVnQaf38JXK0Zf+Tv4uO3AdCGfa+SOhZbXiubNAvkik2D9kdrTQ6bjrS/EvfHhafdoQvB650VZNjGYe3fETY9Od4YLdvg1Iq9Jbb7eeUpGnsp+vXP5mBfAlB/baVUHr54wVrXoK1btq3dfOyb7X4jO0mkfi3JlxZ9jgXoolaec0WVf87kgq/b3H636MuPXqnHfzcVfCWtfzWnOpxOjJbg7faLt+h4LP9gfvA7bTcu3r071dVPkzrjtTNtX1O75zoR7Bagtt8FrLE29lhpkFzyvFvlIb7MKXJM8dVeu+s1QpM40tGpv09/5AeV3LpcY7BTJo/7YBdqj0m1Mp/2WRL3VrItPy2Wf3YrFuKr6RPvO39W35/qmianP81Ov7c98vXPe2Ki48p4sRwFukGqu1cj15nXMf96mvjJxa7yy1qfL1f3jYSSzy6v+na8Pwvxp+waf2kopX58huI52wdg5Wb4TvFbe1SUmb1tzKxYDb3jZ/sX0tQVTRhd8WbavxTdpSBkh2ddZNVo2zPbWVLV1wIerQZr9/vc/ZdrSyPZ56tX6pWNy5KUJ1w+wj2Ou2leT23o1aVwUOq+i1ydvn1zBG3u2nmw80qU9ClMw/bnrwlZtoqVgfihan8TKSvh65/Omr5j1eueO+5cPPhgtvcJX67J4aUSORBZ927Z7UI6YBmsxMmhrVWgcWYV0fUEmjpsGsrHvIzJ6zRQYdzc+sr+NZbl86ogMft0U2Ma2QzJsOtT1RgWxLgvnj8lQZNGs2tdNWt+ck9XE4H/j0ykZftJvZyqCseiUtArOuW08Uot5ZuCnogYdsqKVuqlsvNsblxn0PT8q89F6Ke91cMcJpsbWr4+ZwaCPkZsqPxbfZwS7eODI85HF1Wzl+7ypAKMr4LeqyNtV8h4bdzcFuj4vY+Z8guPV5DHTyRi7npE4u/BkLN+Y7R8fMgNfk2+i/WB/Byo2pTvENzLqd5Y78zJqOnWp+Lq7Nl3K5xq5YqHlteJ505IrX7TC5AuX/5KdtCgm9s28oMUzpGiHP4P1RZl6KXo8f61dHlbqhNIxL4C902o7rVn5M8TFaqi5AKsp14MHTdm5EhoWlhyxKFtWCtVDZptkPGws3zzULPfHLzfzhfvOdLLCczN57cib8yYfBJ3f2CCiaF3UmGkRl52GPfxu880k6x+aOvNgsx5w8TV18dztaEVj6u3ZETkU1gG2bn3JtD3rwYyHVNyLnFeLfJTZZlXZRueq3zx560xD0bZ443pgZoVpCGTbiWGZ+jR+LVLkzqPBsQu1R520MZ32W+wiqObaRMu+ffxt0YejaIwdHdcnGd/Zc313WPaH+SiS5+32KVMkZ2xUXHnXjRb5atnNpkwtjJvrvAPq1yL9KJeuIzJyJTzfEu2qXfTWtD9B/jR9vfP2+5x9BhOnhbePyf5UXRLMlEnGYH3J9C8aafflZ2k9MJ5TbXL2dVaNFsvtORl5Nr1/t1hrZPs89erG55fjfQ0bm4PDMvFROj35z6v49cndJ0/i86GueNkrcl1y14Wt2kRPkeOWqU/q10blSJiHG+3iqouzlq867l8+4GC0AHTI6swJ06EdkpF35/xdFa9LplGyDrOyaj4AABTAPuN+0HTsX7CzpiL1rL3LfsreMdXfDgHdYePWmAyZQWZ0BpmTnXlmF9Fs8wgNAEAZeq1PTl3Y32C0AHSCuzPWYsZMcj0PAAAojFv/JvJa8TjpNQCgi/h1z9ILbHqSbwICAKiCXuuTUxf2PRgtAJ3gplcrz3J7gumL8VerAgBAEfwz7tEFMaP4R4rsm2SgB/CL2Q5f0Ru+YBp9drsJAFCKXuuTUxf2PRgtAJ0Qvq/fLkx1a7WxaFZjYcWBmhx6N/VuDgAAKECwIKZdjHbeLSAZ1LXhIql2OvhI5qs44V5jjTF7TU7IxDW7cKa/XrcXZe7tE8HC2ad4UwUAVEzP9cmpC/sdjBaATvGL20UXHrQLoA0dNxX9EmsGAABUgVvQMroYo13c8IkjMvy2XUjSbwS9QWrxaSO3SOKwGXC0Wo0SAKADeq1PTl3Y12C0AAAAAAAAAABUBEYLAAAAAAAAAEBFYLQAAAAAAAAAAFQERgsAAAAAAAAAQEVgtAAAAAAAAAAAVARGCwAAAAAAAABARWC0PLAsyMjAgBx6l1eHFebOlBwysRv50P9/31CXqWcGZODUgv/fon0G95ZeKIu9Ux8snDL58ZkpkzOhV6m/e0gGBkZMrmlN3u0ePDavPFUe0w9HzP4OydQd/38nVLmvzaDX09d1eqtfuHppWPb7V/Bu2z0sl+9psrRY9FZ84F7BdVehPq0EjJYHFiqO0twro8Ufp/Fe/YSKX7t7YLR8tS6Ll0bkyOOPSc2nc9vuQTny0oRMf7ruNxJZf++E+X6PjH3qP+gZlmVs94DUvnNZmqnthHWZ/n0ThycnZNV/kqYXymLv1AddMVruzMvY8SHZ80iQZwe2PCaDB4/J6XfnZXXDbwMNMFrasXnlSYvp8vk9Js+ekMtlKi2ls1y6fq6i4+324cthQzV57PEhOXZ2WhY7qZgZGLShXL5dv3TExHW/TNz2H1TAhrlWOwZ2yLHxBVm9sywLs4v32HzXYtE77eT9Q9V9qg5YvywntgzInvPL/oO83GfXvfR5FqTy+rSH8so9BKPlgYUGozT32GgZfG1a5q/Np7RQeAS42UbLhhkkmw7/wDYZssaKS+ecTJ0fliO7t8nwlWZ6N66PyLYtQzJVYcesGlZl6umabHtt3pxNBdyekP3mGg6YDuPoLf9Zil4oi71TH9xzo2XVlDPTKak9bo2VuaB8XZqQkeP75bEnJ0zTD0k6NVrcQP6REZl3hcx0rh7fJoM/epAivXnlSYvp6jtDkXgWROksl66fq+h4u30MyJEfRds7046cPSaDppwObDkml+/6bYtS+cDgQaNMvl2ViSdtGzcgO95c9J91yobMvXSP24EUWix6p528f6i4T9UJG/My8khNht7Jvu2lc59d99LnWZDK69Meyiv3EIyWB5Z7WHHcGpUdD9KjAPfYaKnuGm2y0fL5hAza9G525d4F3B27EjFa/MEO01kcldEXzEA+8/e90Ij3Tkfi3hotvkO/wwxSv/QfteKrRRndwUCtWqPFdq4wWvKSN/a5qbKzXKHRoravpo2xxvXgeMm8gtHShhL5dsn070xMR39wTAa2mHz5lf+8Izrsl1RST2ux6J12Eu4l/XPdC/V1qU8rAaPlgeXeVRzBYBOjpTD3m9HSqoN8X7Mul18oESPX2Quu3/qM7YQOZ9xx7oVGvHc6EvfWaPH5P+/x/KCi3zsWnRotDz6bV5762mjxcS3dXjEwaEPxfLv4pu/frV+WYwM1Gb5Wxb3oDvslldTTWix6p52Ee0m/XPeCfV3q00rAaOkR1pemZPip5roXccU7XRufTsvI83tkm/tum+w5OCxTS8kn3rIrjvr1MTkWHsuuVfD8qMwrBaltmtYXZPRZ5fusQmwKbc001Kc/8v+H+JkSAy8kn9vzlUL4eStjQjNHbCWxY1TsZNfoomvHZsKjbMjyu83PBx7ZI0fenJf67WyjJW/sclHAaKl/OCWno2tM2LSempPV2N2l/EZL/VrkPIzcOiun2jwf76/TkUutNvJkVdBfLsv0qSON89i2e0iG312U9bZ3yYLzOHTRxKo+38x3Ng7nF4Lff1WX+Tej+z4io9eTsU3E4/a0HHtyWxDTiPJck41rwyYNR2TaTnPfmJfhLdG8FSUsi8uybNe32e2P567htCwrMy1y1wfryzL39nBkzZyaPPbUMZn4KJmO4mlw8Tx/rFE+al83ecSWj7x3NO11atRTNl1BPTWfYbTkr9d2yOiS+dNcu0aMUnVHSDijxdQDLdO9Lgs/OCSP2UcX3PFDlah7i9ZTlpyxdoNwe65fmfSeD/O6j4cnVx3Vpm5UB/tfmtjb56ufnWrUO+p2Jm3LsxMy/PxgI561r++XY2/7ctogKIvumKYtGQvj6tNVqr7fcloWErFs1OvK9a9fG22WhaRamnOdt6+2Lpx6aX8jRq6+ulaXVSWmepzj9V1SjbRpdXGb+nkwjJ1P/0KYxcPf3Y4fu1Dd4PaRYbTcnZYj0bRHyJ2vO2l38sbU0kH96Mzm5PX0pI3oZtsXr3+adapG/Xokb5t47X9pyrTv85n5VsW3a0GbvyHzr5hz1eraAmW1fuV0rO8RqHnN1pei5xjEdej4mLnW1uCpsJ5Wy3D6s6DsKXnKoJVL99mz01JP5DlbB96zPGfLQcG6UCVXudH6mDaOQV8/Vm7ttSjRHlkqGfccbOYrey7HLoWzs8PfrcbbhFb1d85rUTg/5EI/z5b9+jJ9Xa0+/WpVpp4157zb5Ptov7F0Xilbv+VsZ3sAjJZeYGlU9phMdegHC7J616Tx7qrMn91vMtBjMnIlnsnsAmJ228E/mJC5Dxdl8cM5mfiDQbPtHtOQRe806AXRduJqppIaenNa5m+Z31+bltGDpvBtMYUp+kRInjR9tWE+X5SJp01Gf3pCFt12RllT9DfmZNikKTkteHl80FSyO2THwLDMRU/Bb984hzIdb9MITplz3tZYn2FaFtxz6RuycNavN9KIRRDLbbv3mLSkO4K5Y5eXVucTw3RwXtsjh05NmWu+LHW7cNy7I+559h2mwmqGLLsSi35mZ1/Y/HLibRMPl4fmZe5d0/l5dqzNYLQu07aCtb9t10BoFXQ4UHv8hEzMLsjirQWZe/uEO489sfPQCM5j8M0JGX32mIxdCp7tD3+//+1F00HdL0M2Ru6Z/2k5/ZRNa3IBv0Q8XB4O8tnAK3NB/rVqnRhDstPp///9aWXAH5TFHSZfbXvK5MfZeXPuizJ/aVSGbKO023SIoscrUB/YNWKGngzisXh7XVZvzcnY79vGNBH7omkIG9NHhmTU7juybXSgncmdab8uSvNaB7/fI3tMHkgOYovWayPvmLLzyKAcOxtc7+kPswvgxkenzb5NWp46LfMt1j3aMG3D4viQid2QTJjGPcgLze1zp7FoPVUg1q7T9syYTJ0y19F0NCdsOZidaxikueuolnWjP050AGEHaAmTxaINNEwqZOLgfjl23qZhVdZvL8rc+SOu8xSPie9g/WjK7Lu57tPcFVO32K9L1fd7ZNCuB/PCmF9DKqgj3PV/Jf5ceFgPDl8ydaq91ncWZeo7tk04JBOfZ+eTgA7b140FOW3LQfSaz07ICZP2Pbt3pGKajrO9CWHyzO5hmf687vJq/daUnHBla0KWo8nX6mLtM18/2zSNRNcyMgP0RovtfrfDpNHE2JaDa4uy/HlQj2sxVnH7SLevG/Ug/rXHR+N1kaFYvtbPq327UyCmHdaPZYyW2uODZhATuTaZbZz5xUUbr2hdZerIN4dc38Zep/Z9joDgZsKxxiLMsZsLUYqU1S9tver7jZE2d8PGzLd9+8+a62zy1uKtIA8OP3uisW5PZfW0WobTnwVlL5GnPFr95z7bMiiDtk5r9EdM/M/aNtz2VaIZdpPynCsH+etCldzlJt3HDOO4x+RZ276E/TVXx9lzS87+denNbo+qGfeY3zdiEawtODob9qeC37n+kTtfE9/P7QLNGekt2mbnzg95SZ9n2359mb5usj4Nz3v3iMxHu6Id5ZXi9VvlY7FNBqOl6/g7rqm3lizLxBMm852NZEj7qILJzDtSCwlpbz5RKpy7l+WYyfipNTb8IxDNyrdAmsKC0/LuX4ifoRLbNtjnITNwsumNLqhqC3ltYNB0ev3/pTre5nhJ59XiFzHdn3oW3J67LdyJfeWOXQFanU8O3JRee9fC/9+qEot+1tGjG6ainXYNnNnHlsec+aMu2pusoA2LPzCDGGWtjHxvNPDnoXTyln80aNJSk6HktfxyTk6YdMaNPS1GQVmJf9YGd+c1MY3arlWknoffvzarwq9J0JwlVKTsZRDeFbazfxoUSUPYaCuNljvHdtPHvelkOidzyXLnjxXLfyXqNduJjHewWrP+0ZjrBLk7LdaYml1WjcLMTnWRNBasp4rEOkifyQfaYK5IHdWqbjTEBhANk8V0/BPbxrZriY+TvbPnP2mURXOO9k5iipL1ffoa+ToiZuT78pSst0NzP1Z2NDppX01H8e39Jj2mrgjbthBTZ9kZBOrgLfqZm12YLocbV4bNdodkOpp8pS5W62fXnij5MEqhGGcQ5r2UHnNvoEndbS+crxPnlbfdKRDTzupHk3tKGC3uvJLH09o4Pwul9tJc+hqN23yXUaZSBGU2Fl8f89TgsGhZDc8p0ebmrU+C7eLX2VGkntbKsPJZ5rEMWnqDz5T8alI09x2ThiciC7BvVp6roJzm76+16FNpa6N9OuZmRif7+q4O0NqjTq+p7w+1vplXLL1l2uxc+SE36fPM16/355m3rxutTxsmi8k7iYN0llcK1m+bMRbbZDBauo7e4DQ+j3ZM3XOp8WniIWFj0KyY0wXRVg4DkbsTUVwhbQzaC6Qp/CznwD1IZyQNzvCwZoo3YSKdA7f2SziN3FKq4613euwdn6zGU64HlX5yMJQvdgXwaXYNTEp5OxvR7bTrlv4saCRyzEppwcbqgntLxH43eLV3Gi4rd1Si8Q0qwR0/aFzNJuF1bTm40fKex12viCHXIBhMtYtH4cbH4GKfussRnGN6Icdg/+q5my7ClL2z15gZo6XP0uL8U6TLfrE0+LKoTRH3+2lt+CzIadvRV+PpjxWtL0rUa6Ua0/CRlsZjZ0Mydiu+l/B4qXqhSBoL1VPFYh0cSzPzCtZRLepGS3Ac2+k1abAmy+Pmt8kOqKGxnf+/FZkDyJSp6CkUR4M/p9SjqZZUfRTENr3vPPnbkv59kfZ1+tlkLJrMv2a+Uwdvkc9S5+PRYqBtm/rMd1Lb1YHa/kOy0pTEbZd865C/+/p4zeS1kVhHvni+Tp9XrnYnK/2pc+60fvTpzig3meVErfuV9uKj06Z+qyWMDc/qlAwl8m0mLj7pOsIZcsnBYdGyqqXb0pjR0vq1+2Gdm7pWHfaRtc8yj2XQ6r/0cZqktt+sPJf6fYSsY8Yo0l/TrmWrcqDE3adXbY8qGfe0O98i6S3TZufMD7nRz7N9vz74Xe6+bphXVr3J8sgRmU411p3mlWL1W6H2oEfAaOk6vtCmOl3BIDGaeYMMZrbNVLQySRdEZ1ykfhNVWODzp6lREDI6jSm8gx82uu7OnjdTnPvZGLwG+411/Io25i0alCAWGRWc74xE95U/dgXwadZf77wcq8Ttc8tjLx2RwcZaHNpxW1Risc/s2jTBtL6Ws1LyYAavi28HjwXsieaLZOzdQnphmnWp17WBdh6ezOucNx4FGx8zLAxfd6kqNWskXRajxDvWRcqewT4n/PaIHDtop11G0pA6XpE0BA1ndF8ptYqVv9ZZx3IDycj5dVqvlWFjdU5GzKAu+SrZsFOUzEuF0lionioW61Yds0J1VIu60RIcZ7/sd/n8sfaGjP8/pH7Nvj57yE2XjqUhlq9blGlLhfV9+rsg7iljwc9o0ddaitJJ++qvecZ521c5J2OairMbfKQH08Gd8EQnVItL8rM2ZbZBoRhn4LZLDrw9/u519BHMjvJ1kXYnd0w7rB8NpYwWdZ/p74K6KuM6fJV/jZZg1pVNpyYz8L3lN7QULastzsmuLRPMPtwm+4+Pydzn6bJYST1top+ORfqzrGNZtPovq060lC/HBfNcp+W0UH8tu0+l5zPluxZp6vSatuzrNyiS3mLXolB+yI2W3jz9+uB3WrlTcddl0PQDgln+Q9pjTh3nlWL126aMxTYZjJYeIFhDoCaHxhelbu8abtRlcfyQ1LYckulIxRNUONHnUtNyz7k6siqcYZlTfheoWSjzpqlREFIDwyyCSioYMAYD1sbg0T+O4RodX3hj0wsr7Hi3rHyVfRWJXW5anU+EZdPhCZ9HXPDP8Votv52spAtWYvYO/7UpGbHPNpq4p2al5MY/7tLqzqK/nkMmP8XjFlHLELY4j8zrnDceBRsfNz10UEbC546jujQSMxIDtEaxSdJ4yF327PO2braBfS520a/nYrQ+pxyvSBp8RyL6HG9SyuyGBv5aZx0rOZDotF4rjTN9zb4iM6mCjk86LxVKY6F6qlisW3XMCtVRLepGS3Ccmuz/wYIsmr9t3ktN6zWk07Nu6oI9pi4YdM+K23WDwuPPJfK5XhYjFIqjodU5Kd8F61jskeHZ1aDu+XJV5l4xaU+uV6TSSfvqr3nGeWvXOP2ZXy/LTuM2MbZ5b+N2UB/sOZuYIq/FJflZmzLboGCMVdx2yYF3k8CEMOflT6KjfF2o3ckb0w7rR0PXjBYl36qEszPVm0DTMmIfu4ump2hZbXlOhq82ZPXWtIy9EDymvO3gmCym6sH0OXbelqQ/yzqWJV9ZbVK+HBfMc52W04LlJqtPpecz5bsWaapm3KNfjyZF0ltdm93qu9a0SG/Lfn3wu8xyl8TX1Xu+c1kWr9t1cpRHtjvOK8Xqt00Zi20yGC09Qv29E/KYLQBOdmXuEVPx+i9DMtxvnXRBbN0Ap8mVprAgxDoGrVk4ZRoWO/XUNcDRKYHBvmwDrt6Za9WYu+my+Tve4aND2nS+sHKJ7qto7HLR6nxC/B3WHW8mZjIY3CLCiUa7WCXWZN1Vonnu5Oqk0pKKfdA4tZ2ankmL88i8znnjUazxcVOnsx538OZh/NGWYP/6tNTkYzsBecpeEHNlYcLkItKOImnImlWTF//okHosH//ovjus10qjxCno+Ch5qUgaC9VTxWLdqmNWqI5qUTda4sexabSDgbQBkUqPN6/SbybzZmzuAaShwvpe/25DFs/b2SMmDVZbHpP9xyeab9hpSSftq390KOMxQG0Qrl73LxdlzJZbn379zU4G7dxTn7V63C9C4RgruO2SA+8mSaOls3xdsN3JFdNO60f9Ggdoj5W1KifKd65sZDw2kqfPYXE3E/RHFC1utkv00dmiZbXlOSWwb4E0eTM6m7OSelopw9pnmccyLJw19WKesuopX44L5rmOy2mRcqNdy1bttPJdqzR1eE1bLhPQoEh6q2uzW33XmlbpbZLu1we/y1XuLInr4tZiSd1s7zSvFKvfNmUstslgtPQC7g0EO2TkWpsenp9Wm2dVe7Ug+kWE2r/hxZA3TWEH+mmTJv9JO0ITZeJtU2Cia7AYXMVjPpuwrmWyIvPTXtOmg30rj3U5C3S8/WK42gJV6r6KxM7eGb00J6tt7mrl6vTUp902Q9rCTyYvxCvpopVYhAJTilN8tRw8ShN9444S+7CS1u6Mt6fFeWRe57zx8Gu5vDbv/2+BX2iwVZyCxjNqgPjGbYe5VsnMYwamyYVo85a9sJM3n6gLbENkO7bxNBZLQ7CPYgvONvGL4WoLy60GeT5Wtjut10pi66FaYgp8UDcNpfNokTQWrKeKxLplx6xIHdWqbjSkjvOlOSfTmUruO7VdOKi67v8P8WnLP4A0VFnfa9+5N2MdyhxMtqaz9jV4LEOpC32ck9dYu+5uRs4zE+3zo3buqc82zODfxDTxKF2KojHWcNslrl1IeP5RI7vDfF2k3ckb087qR3P93eNhikmu1Y8ty4nynW+jtIVQV9+x+ahd/enr71YDSd93abQZRctqu7Ifw98IiGxbST2tlWHtM7cGXOJRKUuBshrSSTkulOcqKKf5y412LVu108p3rdLU6TX1eTX2aHuKYumtqs1u9V1rWqU3QqpfX6Cva0leF7sgrrnWyWvRWV4pWL8VaQ96BIyWXsB1TgdlTFnsKcnGh6fdM3i16CvTrk3LxGvHZP8L0TtkekFcvRisp7HtYPCKV/f72Sm3/seeNyOZuUCagk6jfa2YfR3tqix+tNq6ALipZjtkh2mkUmtOuEqxJjVzjulFRX0HwB1rzr/Wy7+S2b4azJxX7o632dfCKVM5+Edywn1NvbY/+/XOOWMXzDQw10i9ox8hj9ESVjRb9svpWfsaUhNf/xrQ/U/ZuEcr6XyV2MIP9gevxbWvir5bl+XwVXmmoow71XFso/DYU8dk5O3mdOJwAUObvthitFrsv1yQ027bweDVr34f03aNEbPfVsfWz82TeZ3zxaORr8IY29dnf6qbHLaBVTvIUfwq903jIiiL9nppr1auPT0hy9EORM6yZ195aPPpnu9MyMLtdal/vuBf4blf9puyFc9XBdNg3y7lXhMdfyXh3LtjMvz8HhnVBklR7IDB1VPN1/3NXxqTI/b1otYgTHTiO63XsjHbP7JHjrw01iyzdr8vmTjZ2L001zQHLd6ADWO6atIdPuacP40F66kCsW7XMctdv7esG/XjhK/YjL4hKLXdhom3HXzsNtf9w1VZt2XJ5bE9Ju+ZAVcRo6XK+l75LrjTeUJdVK89ej7MHX+/yHDs9aBmu5Gn8r7e2c98+M7l9guaa3HRPkukqZn203I5PM2CMVZx25n6MbUY7ogc+npwvU9/FO9BdJSvc7c7BWLaaf3o6xn7yvnpa2H9GJSTQZvWTowWQ+N1ttHXO583scrzemf/KEB6VloU/8aXxs2VgmU1I931S8dMXW1f8x48Crt6y6TbtmnJPFFJPa2VYeUzb1y5Oi1sN30fbPBx24dsV1abdFSOi+S5KsppgXKTvpZ6/RigfNcmTR2Pe6LlIXoe42GaC6a3ojY7/V1wrPYvPUinKV+/Pn9f16FdF9+3ixkdHeWVEvVb3vagR8Bo6QVMoXWZyRawqOwA4c359OsO78zL2PGh5uKXWx6TwYOmAroSNTiyKw67sOrI84PymG08/HEGnzcZ9lakwBVJk12Q800zCHf7q8ljxy+3qSR84Yk9NhQSLjSqfWdwxzKFKTz3RnpMQTfHz2+0GOxCru8Oy37XuYvvy8YuabRY8sRuffaEqQS2yYn3WnVUDLmMFsP6gkwcNwNkezyjbbuPyOg18xs3TT/eaKcrpfRn6x+OybGDexr7c/nn+VGZux3v3CbZ+PyyO/fBMF5Gta8PyhHT0CwkTyEr9vb6nT8mQ41FMk1+eXzIVM5zLd8y0LIyzrzO+eLh+HJZpl4KY2wGO+eV46Q6l1n4qaWNu7I2P9n0bcjypRE5Ep67zW+nplOvzC1S9lZnw8GJ+d4++vDSlCyuB7PM4vmqYBostnzYbSMLMG/bHVzvxVZGU4ipp0ZNpyOIqbnOTw3L1JLpFNvOhXa3tMN6TWddFmx+eyKS3+31tfud1Q1huxhjGNPa1481B5mWXGk0FKmnLDlj3arTFpKrfm9TN2Ydx925so8UeFNV3e72nIyEb3aKXHd3F7qQ0WKoqr7XvmvckY7LTt0ffndZzRtNOmxfLeuLrs4Jt2vU6y6t8Zhqcd64Hhit0bQ34v1pJPXauWfFyqRp+lQk3rZOOT4hi+HuisZYw20XTbOXidPQ8TGZz/h9R/k6Z7uTO6aWDuvH9aUpGX4qXU6cAdih0WKpXxtt1vONtiFoW1rVn8ErWdvcTDAENx0ijxcVqvP0dId9jMY1dnX1sEx8lE5v5/W0VoYzynWsLYuUVXdTpH1ZDemoHFvy5rkqyqklV7nRrmWrdlr5Lk+aOuwf1K+Zfm+jvAXXcORKuF3B9FoqaLNT3/kxQfomc5J0mnL363P1dT0Z1yWY0VOLr6FZOq+Uq99yt7M9AEZLtzGDqst/YDJL1JkL3UCTaa2L23rK2ybQi2kC6AcoewCbj10X4aDpiL4wJtORMjZvZzWesnfQa6XXq7oXbNwak6Gvx+8eOtlZMXYRxHaPAEEKYgr3GvIcxHCPqWWvjQT3JxgtXcY5mqnXwTZJvpHkXtCLaQLoByh7AJuPW5A9c2baampNiJ7Czrjc0uLRjtUpGRrQZ2RCBsQU7jXkOUjglh3IfNEC3K9gtHQZt6ClfQOP/z9G+AjBS3NtpjFXSy+mCaAfoOwBbDZ+XYSscuQfKWo/fbtL+AXSY9O2IwSPIgzG18yC1hBTuNeQ5yBG8Mh567WR4H4Eo6XLbHx02i0wuP/stCzeNulz7wG3CxlNy6ibOngo12r5VdKLaQLoByh7AJuPe9OHW7hzXpbvhOUsXGi8JgO7R2Sh3VvjuoY1imwaT8jENbvwoU//7UWZe/tE8HjhqfvnjQy9ATGFew15DqAfwGjpAVKL+oSLCNnBVpfMzV5ME0A/QNkD2Hzc4ojRxQPtwoBPHJHht+MLTvckqYUHjdxigMNm0MaDhaUgpnCvIc8BPPBgtAAAAAAAAAAAVARGCwAAAAAAAABARWC0AAAAAAAAAABUBEYLAAAAAAAAAEBFYLQAAAAAAAAAAFQERgsAAAAAAAAAQEVgtABASRZkZGBADr3LawgBAAAAAABCMFp6gTtTcih8h76i6EB2+fweGdhyQi6v+w8AugZGCwAAAAAAQBKMll7AGy2Dr03L/LX5lBZWN/yGIqvvDEntkRGZb34E0CUwWgAAAAAAAJJgtPQC3mi5VwPW9UtHZODUgv8PoCwYLQAAAAAAAEkwWnqBe2q0rMvlFwYwWqACMFoAAAAAAACSYLT0AgWMlvq7h2RgYMQMcUPqMvWM+e3Fumx8Oi0jz++RbWZfAwM1eeypYZlaiizmcntajj25Lbb+S2wNmA9HZGDHqCyaP1cvDcv+r9fc98dm/D7Wl2Xu7WE58vhjUnO/tcc4JhMfKQvGrC/K1Ev75bEt8WOFGvkw2GzhlP0/ej5N3HfPTJkzDClwriE50xHjq0UZ3TEgtQwzKrgGR2T6rv/AEKRnsHGcbbuHZPjdRVn/ym8Q0jLGgXERTV9DkTgUi5lP77PTUv9yWaZPHZE9jwT7rH19v55GQzy+22TPQS2+odGyKvVro3Jkt89bWx6TwedHZf6O3yzEnvuW0+ZXG7L8rjl3l47g2k3fDjbZ+HRKhp/y+cvsZ/9LU7L8ZfBdjMS56PEukV8AAAAAAAA6BKOlF6jAaKk9PmgGnUMy8u6cX9tlWk4/ZQfx+2XCD2Llqw1Zvzsnw3aw+cqc+dvEwypc78UOhM2+p8wxtj1+TE67fU3LQvj72xMy9OQxGbs0L4u312X11pyM/b4dXB+Sqeig2hoVu02anh01vw2OsXrttOzfMiCPvWaOGxkMlzFacp2rpUA6kiz+YIcZ6Oj0qkUAAFXPSURBVA8ra+GsysSTJl0vXJZwmL5h4rbHxHTP82My7dfVmXv7hAya49SenZLV6HHaxHgjvCahVqflmNn3/vHlYANDKaNly6AM7t4mQ6emZM6ncfrsfmdo7H971W8ZEJxPTQb/YELmPlyUxQ/nZOIPBs22e2Tkw2hAAqNlx+495lxOyMSsyRefL8vC7IScMHFPxc+d+7BMvH1MDjXSMS2jB00eMtvOfTolR3z+CmNo41p7ZV5il+FLc1x7Xd0xF2Tx1kIj3ntOWRsnpGB+AQAAAAAAqACMll7AGy2N2QsxxQfUWUaLMzvi42UzIJ2TE2Yfg5FBejg4Vh8dcgNh891us39tFoHG3Wk5Yn5jZw2EbFwZNvtJD2KXxwfNgNrOaGhSxmjJe65F0pHi9oTsH6jJ8LWE0/L5hAxGPw9nv7w0FzcDLEujzrBozAiyFIpxXaafraXMmlJGi71G7ySDtiFz3zHbPzEhjah5c2rHawlzQ9Zl+vfNtk9OSHMvPi/tGJH55Ll8OmbiNCDDVyJ78ee+4007nyeCv3a1R4ZlLrGf5R+ZazVgPo/sZvEHe9RjurWHYte7aNkAAAAAAADoHIyWXsAbLfpbh5YbMycsmUaLfTTEf9LEfxczVdoZLYq50JJgf9HZOOk0BgSfH5LpSEJLGS05z7VIOtJ4YyEyc8XiZrrYR39C42NpVHaYmKmPIIVpiu6jQIxXTTprW9ImQTmjRT/fVIzc+eyQ0SX/f4T0foJrXzurpiSVL8JzP/2R/7/Bqkw9bdKtmFWBWWZi0JgxFRhbO36QMGss4cywhulXtGwAAAAAAAB0DkZLL1DBo0P6gFH7rp3REh3UJviqLvNvj8ixg/ZRDLMPux+vaNrXZ46p+3EzSfz6JCGljJac51okHRrBDInIWix+9kp0RkbWMULcOUSP1S7GIas2TyRmw3jKGS369snvgvOx+89SNO2KmdIgy2jRzr3FdU3+Zv2ye5RKT1ug5jGLlg0AAAAAAIDOwWjpBe4Ho8Wu7dJYF2NRVsM1RNbn0gPqjQU57dZGmZDFOxti14ap35qQQ1tqsUeMLJtptBRJh8rGvAxviZybiU8t8SjSphgtmY/vBGy+0TIkE0v++iraaDzG1D2jZWh8UU2bUyNoRcsGAAAAAABA52C09AL3gdHiZoEk3rTj2AgW102lvX5ZTjxmjmOPZbRt9xEZmU0ulNHKNLDrk5jvOjFaLDnTkcXimzv8uiQbMv9KTQZ+fzr2KFG5R4daGS0bJiZ7Wq7hUixm5tMCRkvr80nSBaPFPzqU9UaoOCXyCwAAAAAAQIdgtPQC99RoWZaJJ8xnr837/yO0MAEWztq3tIzIfOJNPXYGhH1zTTztG2b7PW5GRqs3+1hW3xky+1UMHPfojElnR0ZL/nRkcssaD/tlYimY3XLkUuJRnvDNRom1XBxuMdzEb9oYLcEbf/bI6Y+0uSwBxWKm5Zkmqe/C80m+LUmlG0aLXwxXWbsmTdH8Yj79aFqmP9LOBwAAAAAAIB8YLb2AN1r0xXDnZWG1Oeju3GjxMzO27JfTs8tSv7MsC596I6CFCWANgB0mjXu+M+FelVz/fEGm3xySbbv3y/4dycH2gpzeYs7nfLtVUAzu7T5mYP/UaZm+Fryqd/7SqAw9skcGHzfp7MhoKZCOTILXOe9/ekhq6uuebWxOB68Wdq93XpRlE5u5d0fca6T11ztnGC1fzjkzZ8/ZBamnHomJHLhQzLQ800T7Ljyf2uPNVy3bVyJPvHZM9r8QXVi2O0aLfb3zaXueWwbl2PlmmZm26wc9dUymG9sWzC9+dpY9XuuFkgEAAAAAALLBaOkFvNESPt6SVHSw2rnRYvhyWaZe2i/b3P63yZ7z/vtWJoBhdXZEDn3dzmwxv9vymOx/aUoW1zdk7qX0YHv1HZvOIP1NmWM9PyrziUHs+tKUDD/1mJsZY99K89hTwzK1tC71i2YfHRktxdKRRRDzgdaPq9yZl7Hj++WxLcExtu0ekuG3F6SenBXSKsbuu2RaQ8XNkPwxC9Of32hxuPMZai56bK734MFjMnbFPkQV0iWjxWIXZj5/TIZ2bwvSZ2Pw+JAcOz8nTV+yaH5ZlrHHa1J7fKz5VikAAAAAAICCYLRA5azOnJDBrw/JyLtzjdkGTpfG5JidibA78nrkTaRX0gEAAAAAAAD9A0YLVIubnbNDRm/5/5Ncbz1rpjJ6JR0AAAAAAADQV2C0QLV8dFpqA4My8bn/P0HwKM+wzClrnVRKr6QDAAAAAAAA+gqMFqiWjQU5bd9aYxdqvbXaWMy1sXjuQE0OvZv/9cql6ZV0AAAAAAAAQF+B0QLVs74o06eOyGC4cK5R7euDMnT8tEwvpV6CvHn0SjoAAAAAAACgb8BoAQAAAAAAAACoCIwWAAAAAAAAAICKwGgBAAAAAAAAAKgIjBYAAAAAAAAAgIrAaAEAAAAAAAAAqAiMFgAAAAAAAACAisBoAQAAAAAAAACoCIwWAAAAAAAAAICKwGgBAAAAAAAAAKgIjBYAAAAAAAAAgIrAaOky//AP/3DfSIslQgghhBBCCCHUT2oHRkuX0QyNXpUWS4QQQgghhBBCqJ/UDoyWLqMZGr0qLZYIIYQQQgghhFA/qR0YLV1GMzR6VVosEUIIIYQQQgihflI7MFq6jGZo9Kq0WCKEEEIIIYQQQv2kdmC0dBnN0OhVabFECCGEEEIIIYT6Se3AaOkymqHRq9JiiRBCCCGEEEII9ZPagdHSZTRDo1elxRIhhBBCCCGEEOontQOjpctohkavSoslQgghhBBCCCHUT2oHRkuX0QyNXpUWS4QQQgghhBBCqJ/UDoyWLqMZGr0qLZYIIYQQQgghhFA/qR0YLV1GMzR6VVosEUIIIYQQQgihflI7MFq6jGZo9Kq0WCKEEEIIIYQQQv2kdmC0dBnN0OhVabFECCGEEEIIIYT6Se3AaOkymqHRq9JiiRBCCCGEEEII9ZPagdHSZTRDo1elxbJvtHZRjj+0S84t2P9vyrmdNTn5Xj29HUIIIYQQQgihB1rtwGjpMpqh0avSYlm1fvzjH8vx48fl6NGjufTqq6/K1atX1X1VqpTRslWGZzFaEEIIIYQQQqjf1A6Mli6jGRq9Ki2WVcqaLH/4h38oi4uL8td//de59POf/9wZLr/61a/Ufd5zfTYuBwcOyvhnynfd0pVhGRgYlqvh/59NytHBk3Lxi8g2D5yuyvDAgAxf0b67l6rL1bMH5MDoDeW7qrQi4wcH5ODEivIdqlorEwdl4OC4rCjfhbr66oAMvHoPDOB7rDzn7vSg1jH1q3Lm6QNy7gPlu7JK1s/3UCuTR2XviYuypnz3ICh3ft1kdbs+KHyde60f08Uycs/Ui33HUnqw+iO905ZX26ftlbrxQVA7MFq6jGZo9Kq0WFYpO5PFmixF+ZM/+ROZnJxU99mpXGXUooFPVVb3g9GycE52PXRAxj+JbNOp6rNy8qEB2Te2pH9/z9UrRsuaXHyxJltfnpW6+n0Vujcdm/rCpAwf3iVbTVwHjGpf2ysHvjUiFz/ur5ldeTooWufs5hu7pPZiMNhZu3hcak9ckKXI9/eDcnfONqOO6QW5mY0Vz2bs4iDS5ckD4/ddPsyrXhlMdHuwVvg694HRUn/vpNQG9smFXqmjMFoK6V71RzBaUDu1A6Oly2iGRq9Ki2WVsjNT7CyVovzkJz+RiYkJdZ+dylVGD5rRsglamzwsAw/VpDZ4QW4q39979YrRci90Dzo2H1+QfQM12fvtCzJzfUnWPrspV9+blAsnTsYG01dfrT3wMc/TQcljtGy9Dwe4dM42QT12t/5BKsO9kl97Z7CWUw+80bImk79nBuemz7L3hzeV77sgjJb8ytkfqUL9ZLT0Q/9tM9QOjJYuoxkavSotllUKo2WTtOkd+SW58MSAHJ28KMMPbZcz17Vt7rUwWqrUjbPbZaCdiXbXxPyhBz/meQZv993AKqd6ZeD6QKmXjJYHrAz3Sn7FaOlQVZeRT+xA/ahM/nRYat84IzfuKtvca2G05Fau/khF6hujpU/6b5uhdmC0dBnN0OhVabGsUg+U0fLBVbnwrX1+WuNW2XX4jMyuxH+7fndNbkyclH1fq5ltBmTrzsNy5r1442Qredtg1RfG5eQTW912rRqwtQ/Mdk8+KjV73Id3yeHXZ2VlNtFJ0Rr0HGnJ1PUzsn3gpMzUTQP4+napfTf9mExwHksmLWfk8M7gPBrpi3Zy7q7I7OuHZdfDNm4JPTPZiPPK7AU5eXivPGoaBvudS+9sNL2+UXpvSWZePei3q8mjT56U8YX01FI1bpF0uetsGlt3HcLtHnpU9p0Yl5t34vtKKtlQ546Fplh8wvO5qXZs8p7T+sqsnHnGb5fRoXAdmxYzMNbeG5F9yWsWa8SVdH+wFtlH0DnTjp8qY1afmTSH04b9dbixFv3e5nGT591xw+tv/vffdxKbdHrqJj77pLbT7N/nhVTnzKZj7KQc/qbfl1YntEiz218yBlbJAUi4jzsmT5zY1zLfx/JyTDUZudbcLqrw3G9E46eVg1QdY8uj+f/X0XyglVsjk/bJU0flQFg2lP3njofPd3t9vWb3tffwSZlU6oBAdblp6sHGse11evpopC5Md3aLlOdc9XNULo7b5UxsTZg1uXjUpi2ocxuf+47y0Z/6cpWjTo/m5bZluF2ZC6/xZ0EMg31F8kDb3ytKnIOL2auTap278l4z/rWv7ZOTEzdNOqqvO5KyjzCMfOtAI0+Hx462gUF9MCtLl4bloD+X+HZB/bf9bHwtr7WfHnXbnpyJ51d753ngaHPNlVz1WTIOybJhfnfg1Gywz7D8fnCjbT2Svx9TcRnx6c9uU7Jl+ykDJ2akfveGnPmG9gbJYvVVM0Zx1U75NsCmNVf9b2NeZd+xbD8jZ7nTrkHJ/kiRcteuPxIqT9m0cml7OnwMyZzHNw/LpJ8ZE5bdaP0ST38wO2r768o6fF9MymFbf4c3H3Pk2eC6aX1+3/aY65wnT7ZrQwvV/UXLmruWif05hdezYH+vx9UOjJYuoxkavSotllXqwTFaalJ7eJ+MXLopK1+sydpnprPy4i5T2ZmOcaOiq5sK1Xy287iMX1+RNbPdkq3sHqo1O8pGttI98LLpnH3zuFx4z+7PNJxZC0x+cEZ2mWPvM52lJXtcs+3VNw6bBss2lpFzCBv0xiAoX1qyZDt9DXPFmS6mkUqk0TVW39gu+168IFc/sWkzx7hyRg6axjS6rsuNszYdwzLrf1//9UU5aTpCyXTYjvy5yRuN85x9dZ85x+hxg0ap9tBeOT52tbndKTMgts9lf9zcV90MznYN7JLjEzeC6/XJrIw8ac4p0pF119mkf9eTIzLzcRCjlY8n5eROcwzFWIoqaKibDUreWKRlB1jmWkauk03D8De3mvOMd2xyn9OLw+b3Jq+6WK7I0krGANTnrYM/vCFrWZ0037im7ojcXZLxZ8yxTexm3fmumE7ccZe+5gCyQMP7a3Mckzcb+TwsXzsjdyZdWo7L8Kt7zXaTcsMcd8V0mu116jQ2yfQsmf+tyTIbGawlr7l9U9n4iXMyaac5+2MOP2G2+b3JxjFbpdntT+t8qEbLdtm+M1r/mE7Xd4P6ZzYcmH9xUY6aGB58y3Q6bcxsx3rUnFc0horcuZvfbW1XDlJ1TFAet39jX6w8Xj1rYpdcJ2FtRs68Oi6z4f6vj8vRb8Q7snnjYeuTZr6zcb8hk2Om3GXUoXZgW4uULxu72YlzcrFRX/jObsJoyVWe89bPMd2UC4OmDXgrsp81c+3sNU4OEM3+tzdinq9OT5WtrDKcp8y52Bww+feg7DWxcNfvE6Pcv0+qeQ4XrgTlZuXjmaCsfvNc7HfuukXLtM3zL++VrTa2FdYd4fGiWrt0RoYnZuXmZ/aamrrtraPmOsRndro8Yo5r49LII+56mDziH125+cO9icFjYKhtN3kr3sZYc6BZ3+euz6JxCOtk26/wsV26PinjM74NcTEw38f6MUo9UqAfU2kZydWmZMgZks2y40yXaD3slLe+Ctrk2jNmEOtjsnb9nIldMh156/9kzDvrO5brZ+Qtd9X2RwqVuzz9EaM8ZTNI21Y58PpMsJ2r8y/KDX891bKbiKMzRGPlItDSmOmX2hlT9v+cedYeT+/zB3ky2act24bmrvs7KWuh/D52mT5RcD0xWh54YbSUkxbLKvXgGC0DcngyYVC4OyeRBs5NXU0/ZnNz1HS2worZyFXy7s5KfLu0/F3OVIehLjMv2n0kB2ORQVDOtKhyi+BGfxsMDKKNrFXQ6Kc71a5z2Yif70D+OP5bd/ciMptFVX1GTsYaCd9RSt1l8M9mNzquwWNPqe0WzsleGxPfkAT5IG0g1WdOtswfVu7cU0ZLu1gocgOp9HUK0hqNeZFz2p57YU97Z+yAvaNhOoJHT43L1V8nfpfRUAeLDiZj5/Nlo6OVt+Gty+x3Tecumc/vzMhxc+xGR9OnZXtqEeLOYxNNz9KPD8tW09G8mCifyWuuKZV3MtPs96flDdVoUeqfRPkIOoYj8XzrBvDZs1mscpeDZB2TWR71+iKpZNnIF48VmXxmQPaO5l+D4eopk7denNE7907BeUTzeL7yXKB+TsjVf5EBibt2Zr8Xzee1SB5beutAczp9zjo9XraM1DKcs8z52Nj9LcVikff3CWWcg/2dXXi9mceDdiOVt+7elHMmbzXPr9O6I6/SeTorjwRrm/kBmqvfj8rF0LB15dGUoZ+azx8y+SP87a/H5cDAXn+zoEB9FrnOep0cUc56pFA/psIykq9N0eV+G03LxxdMrKJ1lVXO+kqtM4PzaMxmyVBW/V9p37FtzBXlLXcV90eKlru2/RFVybKZkbaIcsXR9YOTM6OCfYfXLW+edcdT+/zVtqH56v7OylqopbfMsXaa/kbDiMJoeeCF0VJOWiyr1INjtISdoLhcBeorppUfZ+zXDRQOyqSfKup+Y6e4JrdL6aqM2LsICZPCKnUOLo3NjkXetGhyHcVI427lXPzEG1WyziMev+Ackh1v10C0rdCTA6Dg/+SUayt3zDDNK5Nq4xL+Poyn+432THByoKvInXvSaGkbi7TcdUoOjp18WsOGttNzaqW7a3LzvXEZdo/T2MXoLjYHVRkNtRu8Kufljt84n7wNr8/nqU5F8PtG5zarHFYQmzA9N8213/WQ1iFKX3NVybzTru7Q8kbufQTnF563y0uJchsMoiIdX0WZcVHTER28BMdPl8fgurXrJMbzQP54NO5WvpqzI+5nPOw9ek5mPk4MeJzicbTKV54L1M9JmXOoNR4TMh3cEwPBAp7288YAPBjchY+e5K3Tk3HVy3DOMpd5jfP+Pq7s+m5dZl+OxNyVad0gjOeTDuuO3Ern6aw8EhzLlzn/6FcYPzcQt2XNz8AIr4kz2sq0X9HyY+vkVjcvitQjOfJZ1WUkX5uiyT/mEXtEKz4gDpSVlxPX1sU/WWcGZTT5GFhKLkaR2LXIdy5+FfUdU2U+obzlLns7n/diMWqfR0uVu1b9EVXa9Wt9cyFvHN3MqGg/1RlRTYMib57NrCvy5skMJdObygcu/unrVL6sebnZR/FZ5GGaMVoeYGG0lJMWyyr1oC+G6ypQv22wX/O/qubv3W/aDdic4h2gmNQGPWK05ExLWkEHRf9d/E5H1nkk4+ceHTp4rvnM/BezMrwz/ejQynvBGi17w2dQvZrnnx2P2DX1jUt0H1GFjVfqOodKxlZR8tzzxiL/94mGttNzyqm1Dy646bO73vAzBrIaanu+iTQ0FcYub8MbXFd9X0bh77PKYQWxcd8N7nPT/gcGdpnzTQ/gU9c4fEZ/cG/j2epA2eUyKrc/LT1tynZTifLgHh3aLicv+jxzty4337KPQKXv3EWVGZe26cgqj0once1G8Hy5iVVs3YPIcXPHw+qzqzLu12mqfe1g+7Wn1m7KzBtHg2fWH7bP9Eenp6fPI195zq6P2tYhzgDzgwH3tx+MuAG4r2cTJpk7dhi3lJrXJXU9ffmIpzNIu74vo8a5Z51j3t/HlZnXjGLXv0W50a6BmgardnVHhtY+CNaB2NtYfyNQNE9n5ZF4vIMBemD4RAw19/uav5OdGMT738fOI6Ks+iwzPaEyYxC/xnnzWdVlxO0vdbxQLcqSm62h/cYoNmshKy3J+soanObanLjYWG+k/rGJ3UOJxyoqrP+rjXlarb5PpUPdrlx/pNX551GqP+I+a1M2cxwzdxwTj80nH0nLm2ezjpc/TxrlaENT6ffXKbn/vOlWVb8qI6b/btcKin+Xt793f6gdGC1dRjM0yug3v/qZjL72ghx97jl5zujo8e/JW+//TfD9F9Pysv88pZem5XZiX1nSYlmletFoCad3zmYMPpzDH3WxXWWlu/LRbd3dgD1n5Kp7zjItt26C2S670k0qqIS1adipOyCJxiVvWlLyDcu4f261qSUZjz2eU6CxurskF+0zyb4itwt9DV+KV9LOjHnIDJjs88ON55aTjVDwf9r991PsY3cETafoSvIcvPxUx8zKv90gySh57rljkZD7PjkLwSlxp7bTcyogdy7hPrIaantH5FuT/pnipMLrk93wxo7hz/XopH/WPakwP2R1oCqIjfvO5L8LCysmbTYvHpWLsWm1iWtsp37bNUyeMWXMlJVGeWprTjQVj0FTLi259pHupNWvnZEDj5r9ms/dYnnfuiBX2yxOmhmXtueSs5PoDCDTWf7upHtePoxV8ri54xGVW+DxuOxNrGWQqbt1WXovmJ6+q3F3On0esWsdUTzNwe9y1c8pBbNV7KDbtUeNOiB4FMYNuq+NRGa3+H3mqNNT11MtwznLXOY1zvv7uNw55LizHqQ5OasgUPxubId1h6JwbZiTkzdlZS1el0UHPi6PaHep3WNAzbS72Sp2FkvCOGs87uLOIfIK1pL1mUtP2xkt7euRvPms6jKSr01JKxj8jqd/98m4HB6IPvqRlZeVQe2dq3LmwKNBPWr28eiTR+XCtcg5FKr/N7/vmCrzCeUtd24/FfZHipS7LLlz9ueWq2y6Y+aY0ZIrjsGNR7fvxDpAVnnzbNbxcufJnG1oKv0uFun9ly1rtn2y/SO7flF6llGQZu08o9cw+V2vqh0YLV1GMzSK6+/l/dEX5NsjfyY/e/99ef/9n8n571oj5aS887n5fv22LLjPI5o978yXF/70lrI/XVosq1QvGi3BquGmwlQG7Ot3ZmX4G4lnan1lle852+R0urSyK92k/HPBqc6cfy691SAoZ1qScm8+SD1PHSh4rrP5vHnuxuoz0yjbhUUzOt9hBR3e6WvIXadoIxE0SunnWfU1WsIFCbOUblS97qHREkxFVa6Tv0vX7Px1eE65VY8/p+s6VOmG2uWF2GJ+moL8O/DybPzzuzeDWVONdAb5OZ3PE8rstHUem9h3ppM97DrR8c5E7Bq7tKQ70O6xu1blMiL9LQv27nabst1QspNmOkGndsnB6CKrOZS7HKTSkbOT6PaTeJuOkRsgRY6bOx6K3GAhV50ayBmzjWOnzyNfeS5QPyty+zJ5bNLObIg8khAaL+P28crovnPW6anrqZbhnGUu8xrn/X1C7hz8jJ3o5xlrtKTLtJ9x2Ti/TuuOtNy1T+7Pt/XN+thvZweliQFHbI0W+1l47B/71w6H24bGy4RdTyRaPsrVZ87QSa27EFHeeqTDfkzZMpKvTUnIP5qV6ps5+WM0bprlrK+M6tdGZJc5h8xHVlws89b/m993TJX5pPKWu4r7I0XKna54fyRf2Qz+b7tGS844hp8tmXYsanxb5c2zWcerug1Npb+j/lta9dlh2a7chAqUt793f6gdGC1dRjM0SunfJ/6/MepmrIzeSHzu9ZvL3zPff09+dkf/XpMWyyrVk0aLkXuryMAuOfxGsBK6nbFx49IFOf5N02lLurWusdgqW7+mrBwfef2rbRTc3fCHD8iZcDu333EZOTvTqGSyK920XIM/UJODZyMrko8dlwM77QyRZIMebdDypSUmdfGviHyDFjbKeRsrdzdlMP5Gibh8h2inqfj9TJpgRfxgpftmI2EbpZpsfVh561BiXY3UqvNm26XrMzJ+6ozMZK1lECo5wFSUPPciDXdcdnHP4NwnG298Mef+9F7ZlejYd3ROKa3Ixe8elZGJGbnaOO5VmXRvcNolI9fCPOA7LScu+nj7z8NV6yNvuLAr+1+dvCAnJ5pxCDqe+9wruYNtbLkx57Yz3kForKPx7eZbAFx6xk7KeHhnqkWnrdPYpL5z6RmQXafCFfUT19iVFXuHacbHZUVuXhqRfQ+bmLQslxG52WPb5ehb/q0NPi/vbVu2QyU7acFdx+MXtUFHtnKXg1Q6cnYSXSc9eJtEeJ62DrOzUGLHzRUPU15OHJVzjTotfFtE9owW+waHYZMng+tk81XwRqXOZ7QUqJ81uQU798reweYsByc3AN9lykhyJkC+Oj19PTPKcJ4yl3mNjXL9PqnADIy+/SR8W0nybUW23Wjcvbbbmfpl5tQBkx+qrTuScuuR2dlt4VuqPrkqF0ydlXzris0jtYe3Km8dSk6rDxa23Du4N7HGR/DI0C6bVxpmQKBS9VnkTSLNt4fNyvjYbLBN7nqks35M6TKSs02JKhwwJt8M01Ds0Y+c9ZWRu+P/orkmWX2WQvX/5vcdM+vwhvKWu2r7I/nLXb7+SN6yGaRtV6yfeGPynEwuBN8XiqO74XdQDpq4pMybnHk263hVt6G56/4SZS18NLnVixZy9/fuA7UDo6XLaIZGx1q/LXNvvCDPHT8vC+vK9//+lrx1/Dl57o335bfJ71pIi2WVevXVV+XnP/+5j0x+Tp06JX/xF3+h7rMqrbx3To423rNvH2k5IEffCN+jH5FtLOzU35VZOfetfX77rbLr8BmZDRuUhupyc3K4+W5+Uzna9/cP/7T5nv/sSlfX2rULcvRJ/zxq+K7/T+z05GSDnmzQ2qclKldJKnfoonIOul8UN3djtWbXZLHHj8g+1nBiXG6GHY07N+Tc4fBa+Hf6L6y4jmizEbKN0knTiN+USb8+Q3PbdOVfX5iU4cY+Taf4a3vl8KsXG69szOycJAeYipLnXqjhTso0ejOvHvbPeYfns+bu0kc7D1alzymlutwYOyoHos85u0dNzsnMJ/FY1q+fa+Sh2tfORDrGKzJr1734mmns3T5MmXjaDIKvRAaHd9dMh8Bs459hr5kO58kJ05G0d+2T6fTlq/H8scnrB0x6Gq/tbdNp6yQ22ndhZy1cryV5jaNxaeTnFTtIblcum1q6NCwHw/iFZXvBDsDz7CPdSbNrsjzqzz+UfVTvzGw8H0WVuxyk0pF/4LL005PNfBI9z8Rx28fD1Gk/jdZp/lFEMxjX6jSrtSumng/rTyObB+P1fPo8ipTnXPWzqqATnJ6q7+8Mqte8fZ2u5uWsMtyuzGVeY6+2v9eUOAcbs1cnm21BRDY/NNMd1B1rsyZfJvNrh3VHTKY+vniiua+w/NgF3KN52uaRkzPmc3MuYZ4N05jMi262lp1RkHgUKpiFkq7nrUrVZ3ds2xi2JUEcDp+9Gpg4BeqRPPlsU8pInjalIb8IbouZC/GZI/nrq3W7Jkv4CGaoMN2+3shd/9+DvmNmHR5TznJXYX8kf7nL2R/JWTatVmaj9b49j6My6V+XXCyOgSE6kPEIWJ48m3W8qtvQQnV/obLm9+22SypyfYv093pc7cBo6TKaoVFWt//85cbaK9/+438lt/5e3+63V79vtnlB3vpY/z5LWiyr1NWrV92slj/5kz9xs1TyyJosIyMj8nd/93fqPtF9pF9PymFT2Y5M3vCOeqCl66aBfsJUxGrjgxAqJnvHcq+7uz7r7wiGd6lmf3hUtucdZCKEUB+rfmVE9to7/e+FM0uszGD+vQtyNDGrAyH0YKodGC1dRjM0yuq3f7UQrL/yi2kZtWu0PP89mf6r5HbL8s5J891rP5PfxD5vLy2WVetXv/qVTE5OukeB8sjOZMFkeTDkpuAmn9n0cq94brV4H0Ion9yz2AfU11LH3nCT/A4hhJCXfXRmQA6o61wFMxuyXl2OEHpw1A6Mli6jGRqV6M7P5HvaYrcfvSUvmM+/f/W38c9zSIslQlXJPVPrn/cNV0qvr/nnmR/K+aYQhFBr+fWV3DoI4VTwu3X/DLt9Nr/1I4EIIYT84srubULNR1bqfk0M+yip9iYshNCDpXZgtHQZzdCoRP6VznGj5Tfyl3/8nDx3/C25lVw8N4e0WCJUmezrV2PPHRs9vEv2Hh6WyQ8wWRCqTJ8l1qlwz/hnrDuFEEIordTaFcHaI3bNn1kev0SoL9QOjJYuoxkaxbUg7/zxeZn+hX91c/joUHIdls/fkZPPPSffu/ybyG/zS4slQgghhBBCCCHUT2oHRkuX0QyN4lqWn/3xy/LC0WAh3OeeOyovvDYqP/tV1FD5rbz/hvnu+e/L+9qbiHJIiyVCCCGEEEIIIdRPagdGS5fRDI1elRZLhBBCCCGEEEKon9QOjJYuoxkavSotlgghhBBCCCGEUD+pHRgtXUYzNHpVWiwRQgghhBBCCKF+UjswWrqMZmj0qrRYIoQQQgghhBBC/aR2YLR0Gc3Q6FVpsUQIIYQQQgghhPpJ7cBo6TKaodGr0mKJEEIIIYQQQgj1k9qB0dJlNEOjV6XFEiGEEEIIIYQQ6ie1A6Oly2iGRq9Ki+WDrpWJgzJwcFxWlO96VVdfHZCBV6+q3+VS/aqcefqAnPtA+S5DnR2zLlfPHpADozeU7xBCCCGEEEKot9QOjJYuoxkavSotlg+67rXRsvTWAdn64kVZM3/XZ4dl685zcjOxTTt1bLSsXZTjD22V4dm6/r2izo65JhdfrMnWl2elrn6PEEIIIYQQQr2jdmC0dBnN0OhVabF80NWXRksJ5T7m3asy/NCwXNW+QwghhBBCCKH7QO3AaOkymqHRq9Ji+aCrLx8dKqHcx7wyLLUBjBaEEEIIIYTQ/at2YLR0Gc3Q6FVpsXzQFRotN65dkKNPbJWBgQEZeHiXHH59VlbuJra/uyKzrx+WXQ+bbQZq8uiTJ2X8g7XYNtaQODixIvWFcTnp92f/X/9sXA6av4evRPbntCLjB/02kc/XPjC/f3qXbLXpscf65mGZ/CT4LmV63F2Siy/uktoz47Lk0lyXmxMn5cBOfz4DW2XX00flzHvhMa7KsJKW9sc0MXnvjBwO9xuL05rM/uE+/9umwvNKpzkay4SemWwaX21jbs/loIz/Or6/rTsPy5nZeEwRQgghhBBCKI/agdHSZTRDo1elxfJBlzNaHqrJ1idHZObjFVn7Yk1Wro/L8Z0DUjsx01xT5O6SjD9Tk5rZbvaTNbPdityYOC67BnbJmciistZQOPDysBz85nG58N5NWfliych8V8BoqV8ZNvvdKgden5Gbn5ljfXZTZicuyo168H3ctKib/6Mmy7qs/fSo1HYel/HrwfkEvz8nFz8OvteMllzHNHHa++IFuerOf02WrpyRgw8NyL6xpcZ+XDyVGS1Jo+XG2V0ysHNYZm1szP/1X1+Uk9+oydGfRkyUXDEPzmX7N/bJ8bGrsmTP18T86tmDUhvYJxe8UYQQQgghhBBCedUOjJYuoxkavSotlg+6AmPgsEz6AX9D18/I9shAvf7eSTNwT25Xl5kXB2TgaLDmiv3MGQpuhkV0O6PcRsuSXHhiQLa/nv2GnqZpUZerp/bK1ifPyI07ke9P1WTgxYhJlFLSaMl5zG+Y4yRm+dz84d7Yo1f5jJYbcuYb5px/HJ9xcuPs9thslnwx90ZLKu035cJgeqYQQgghhBBCCLVTOzBauoxmaPSqtFg+6HLGwOAFZUHaYAAfzrBw5oWylkswI2akYSw4QyE6EyZUXqNlZdJsV5ORa8ntmgpMi1lZMseu7RyWqxGTxenX5lh29snRczLzcfzRpkAJoyXvMZXzcudf2Gi5KiMPNWMbypk2UdMqV8yDczk5k3yDkv5IFkIIIYQQQgi1UzswWrqMZmj0qrRYPuhKGgVNBQP4cKDujALzv66msRA3FCLKa7S47Q7K+GfJ7Zqyx3j0iX2yyx77IWX2jNXaTZl546jss2uWPLxPTk7ckLXGbJSE0ZLzmNp5lTNa/KNDB8/JjTW/zRezMrwz/uhQvpgnzqUhjBaEEEIIIYRQObUDo6XLaIZGr0qL5YMuZwxoM1rumoG/GcDHZrR8a9KvAZJUczZFcaMlbugE2+WYXbLzpMx8FqxhMrAz/UhPQ3frsvTeGTnw8IDsOhs+XqMZLXlm0VRntIQL+IbGiV28dvhSc60X95tcMcdoQQghhBBCCFWrdmC0dBnN0OhVabF80BUYAznXaHnopMwkH9NJKNNoWbsoR60hMJv4/OMLss983jQEgvVL8q3RYv53jwkNyC7zf/aaLOuy9NaBiCGSNCcKHjOilNHy45xGy2eTctAuhtsinvliXsBoqa/JWpvrhxBCCCGEEELtwGjpMpqh0avSYvmgyxkFD2+VR5W3DsXMi/ANOPZtQleWglkVn92Uq5MX5ORE00DINFrW12Ty98x3Twz7N+j443xzl+yyC8NGDIHgDUC7Ym/RuTF5TiYXgu+Txwi2rzUWl7Vv3Bk2aQpngqx8PCkn7flkzWhp7CP/MUMljZb1D6xBtV1OXvQx8sZG8vfOkBk8lz0TxypXzPMaLSsy+YxJw0MnZda/SQkhhBBCCCGENLUDo6XLaIZGr0qL5YMuaxTs/eFNWZk9J0ef2Bo8yvLwLjn8+qysJE2Auysya9c9+VrNP/KyVXY9fVTOXUmsK6IaLUZrV+XCt/bJVvfbmjz65EkZX1iRmRPpR1xcep58VGqNbY/KpJ9dox3DLYzr12tZuxL97YDUvrZPjr4RPR/dnCh6TPebpNGyXpcbbxyWXXZtGLuPs8FvUr9fs2uyBOlr6KFHZd+JcbkZnXXSNuZ5jZY1mfn2Vql9s425gxBCCCGEEOp7tQOjpctohkavSoslQpXr15Ny+Gv7ZGTyRmz9laXrkzL8xIDUsowqhBBCCCGEELoHagdGS5fRDI1elRZLhKqWW+T25Vn1O/eK52cmIzNkEEIIIYQQQujeqh0YLV1GMzR6VVosEapaS2P73FuTJj9ekbp/jKe+tiI3L43Ivofir3hGCCGEEEIIoXutdmC0dBnN0OhVabFEqHLdXZMbk8NyeKdfE8fq4V2y9/CwTH6AyYIQQgghhBDqrtqB0dJlNEOjV6XFEiGEEEIIIYQQ6ie1A6Oly2iGRq9KiyVCCCGEEEIIIdRPagdGS5fRDI1elRZLhBBCCCGEEEKon9QOjJYuoxkavSotlgghhBBCCCGEUD+pHRgtXUYzNHpVWiwRQgghhBBCCKF+UjswWrqMZmj0qrRYIoQQQgghhBBC/aR2YLR0Gc3Q6FVpsUQIIYQQQgghhPpJ7cBo6TKaodGr0mKJEEIIIYQQQgj1k9qB0dJlNEOjV6XFEiGEEEIIIYQQ6ie1A6Oly2iGRq9KiyVCCCGEEEIIIdRPagdGS5fRDI1elRZLhBBCCCGEEEKon9QOjBYAAAAAAAAAgIrAaAEAAAAAAAAAqAiMFgAAAAAAAACAisBoAQAAAAAAAACoCIwWAAAAAAAAAICKwGgBAAAAAAAAAKgIjBYAAAAAAAAAgIrAaAEAAAAAAAAAqAiMFgAAAAAAAACAisBoAQAAAAAAAACoCIwWAAAAAAAAAICKwGgBAAAAAAAAAKgIjBYAAAAAAAAAgIrAaAEAAAAAAAAAqAiMFgAAAAAAAACAisBoAQAAAAAAAACoCIwWAAAAAAAAAICKwGgBAAAAAAAAAKgIjBYAAAAAAAAAgIrAaAEAAAAAAAAAqAiMFgAAAAAAAACAisBoAQAAAAAAAACoCIwWAAAAAAAAAICKwGgBAAAAAAAAAKgIjBYAAAAAAAAAgIrAaAEAAAAAAAAAqAiMFgAAAAAAAACAisBoAQAAAAAAAACoCIwWAAAAAAAAAICKwGgBAAAAAAAAAKgIjBYAAAAAAAAAgIrAaAEAAAAAAAAAqAiMFgAAAAAAAACAisBoAQAAAAAAAACoCIwWAAAAAAAAAICKwGgBAAAAAAAAAKgIjBYAAAAAAAAAgIrAaAEAAAAAAAAAqAiMFgAAAAAAAACAisBo6TL/8A//cN9IiyVCCCGEEEIIIdRPagdGS5fRDI1elRZLhBBCCCGEEEKon9QOjJYuoxkavSotlgghhBBCCCGEUD+pHRgtXUYzNHpVWiwRQgghhBBCCKF+UjswWrqMZmj0qrRYIoQQQgghhBBC/aR2YLR0Gc3Q6FVpsUQIIYQQQgghhPpJ7cBo6TKaodGr0mKJEEIIIYQQQgj1k9qB0dJlNEOjV6XFEiGEEEIIIYQQ6ie1A6Oly2iGRq9KiyVCCCGEEEIIIdRPagdGS5fRDI1elRZLhBBCCCGEEEKon9QOjJYuoxkavSotlgghhBBCCCGEUD+pHRgtXUYzNHpVWiwRQgghhBBCCKF+UjswWrqMZmj0qrRYIoQQQgghhBBC/aR2YLR0Gc3Q6FVpsUQIIYQQQgghhPpJ7cBo6TKaodGr0mKJEEIIIYQQQgj1k9qB0dJlNEOjV6XFEiGEEEIIIYQQ6ie1A6Oly2iGRq9KiyVCCCGEEEIIIdRPagdGS5fRDI1elRZLhBBCCCGEEEKon9QOjJYuoxkavSotlgghhBBCCCGEUD+pHRgtXUYzNHpVWiwRQgghhBBCCKF+UjswWrqMZmj0qrRYIoQQQgghhBBC/aR2YLR0Gc3Q6FVpsUQIIYQQQgghhPpJ7cBo6TKaodGr0mKJEEIIIYQQQgj1k9qB0dJlNEOjV6XFEiGEEEIIIYQQ6ie1A6Oly2iGRq9KiyVCCCGEEEIIIdRPagdGS5fRDI0y+s2vfiajr70gR597Tp4zOnr8e/LW+38TfP/FtLzsP0/ppWm5ndhXlrRYIoQQQgghhBBC/aR2YLR0Gc3QKK6/l/dHX5Bvj/yZ/Oz99+X9938m579rjZST8s7n5vv127LgPo9o9rwzX17401vK/nRpsUTd0IqMHxyQgxMryncPjq6+OiADr15Vv0P9o/b54KoMDwzI8BXtO4QQQgghhKpXOzBauoxmaJTSv0/8f2PUzVgZvZH43Os3l79nvv+e/OyO/r0mLZadKTAMBswgKa1huar+poTWLsrxh3bJuQX7/005t7MmJ9+rp7e7b7QZRsuSXHhiQGrfnZW6+v29V38bLXW5OTksh3du9eWhJo9+84AcPXVRbta17R9clTNa1uTiizXZ9cZN9//NN3b1VN5GCCGEEEL3t9qB0dJlNEOjY63flrk3XpDnjp+XhXXl+39/S946/pw898b78tvkdy2kxbIzBYbBgR/ekLUv1hKq0AhJGS1bZXgWoyWm62dk+0M1qQ2clJkeGcj3s9Fy84f7ZOChvXJ8bEZufLImKx9fldnJC3LyxLgsRba7+mrtgZ/JUZXRsvVljBaEEEIIIVSN2oHR0mU0Q6Osbv/5y421V779x/9Kbv29vt1vr37fbPOCvPWx/n2WtFh2pv54BKZ6VR23usx+tybbz150+z08uaZsc+/Vv0bLDTnzjQHZ+8PAJMjU3asy/NCD/8hMOaMFIYQQQgihzVM7MFq6jGZolNVv/2ohWH/lF9Myatdoef57Mv1Xye2W5Z2T5rvXfia/iX3eXlosO1M+w8AOtOw29YVxOflE8ChF+JuV2TORxyuiOiiTK8Hv6wuTMvKtA7Lr4eC72tf2ycmJm7G728ExluL7e3iXHH59VlbuhtsFA7r4cawOyvhnzX2tfWDS+eSjUrPfpfZh9Nm4HLSPRt25KeMn9smjZrDsHg158qSMLyRm2txdkdnXD/u0h9uY3ylxa3vcLH0xKYcH9sqFj80+Jg/LwBMXYrMmrFYmDrrBrrsG4TEeelT2nRiXm3cS2+a4JiuzF+Tk4b3+3Adk687DcmY2fj7BAHtWli4Ny8Gv1dx22rWzqjTmUbnfBWmMy+zLbRPkYc0IcDE7OC4r0f/tdiuzcuYZn1bVQAiMlgNvLSnfBVp7b0T2+fzcUORY65+ZYxzeJVvt5/463ViL7MOfV9qc0Mtku/i2PLe7a3Jj4qTs89fQXev34vtv9fuU0XJ3SS6+uEtqz4zLkkuDYrSY6zx56qgcCPOhklezj1n8mlZVLhBCCCGE0P2hdmC0dBnN0KhEd34m39MWu/3oLXnBfP79q7+Nf55DWiw7U36j5cDLZrD9zeNy4b2bsvLFkpH57oMzsmtglwy/txZsWzcDsBPbpXb0oqxFfr926YwMT8zKzc/sI0krcuOto7J9YLucud7cxg3mvrFd9r14Qa5+Ejy+tHTljBw0A/J9Y1kD3rr5XXTAty71K8MuTccnbpg0mv18MisjT9biaXKD3O2yfec+Gblkz8ds95kZGH53lxmknZTZxqM7a3LxqBmc7jwu49dXXJpWPp6U4W9ulZpJVzRuuY6bITdYDM0VZ7rEY9PYxsRn15MjMvNxMy0ndybWdcl5TW6agfe5yRuyZNNqrufsq/vMgPOwTNrr6rdx1+ShmuyNXhNrMNhrEpntUW3M28gM8sefqckuO7h2nxUclL84bK6fSYM79xVZWtFNnhtnbboOyoXrPo6assySX5vPTdz2nZoN4vvZDRl/0exv5xm5EZojBYyWPPHNPregjETzcHANa3L0p81zaxWbuNGSLnOq0bI2I2deHZfZMK9eH5ej3xiQ7a/faGyTfcyC17TCcoEQQgghhO4PtQOjpctohkYl8q90jhstv5G//OPn5Lnjb8mt5OK5OaTFsjP5AU3jzm5EkUGOG2jZWSO/jv/+xtntMvDMZPMuvpUZ0Gxve4f4plwYjA8mA6MlMhD1uvnDvfGZAhHVZ4dluxkMTzZmswQLykYHc04L52SvNS8+8P/7QW7qEZ36jJw0nzcGjO5c0qZHsL9o+nMeV1Xw22Za6jJzwgwSE4NMN6BMGCFW9ZmT5vNwdkcH1yR57kZZ18TNummYIxXHvI2W3jJx2DkiVxvGTMFBuUlTrvWB3EymA25GytYnjsrIxFVZSppBqlkSPAY28HuT8QH8nRk5brZtmBu5jZZ88c08t08uyD67XSIP3xw15cpeW/9/q9g0jZa6XD21V7Y+aX4Xmy2S79GhZFnOPmbRa7qJ5QIhhBBCCPWk2oHR0mU0Q6O4FuSdPz4v07/wr24OHx1KrsPy+Tty8rnn5HuXfxP5bX5psexMwYBGXQw3MpByA60TM6nHRa6eMgPK5B3hjy+YAeBRuRh9TCKl5GAy+xjJgVVDX1yUow/V5ORMZJC2MpkxeA0Gggd/7I/nBrnBozraduHvV35sjv2QGdTHtmlu10h/3uNqsovgJuJVf++k1BKzPFwcBi/ITf9/Q1eGYwPK8tckPVjOuiZB/Pwgv+KYt5SblbAvsY+Cg3Ithq30xU2ZnfCPTtnFcX8amV2lmiVXZSQx2ylQkM7aKZ/OvEZLzvhmnZvLw5H80ZDLN02ToVVsAqNlVpbMNrWdZl+JR3LyXsP816OCa1pZuUAIIYQQQr2odmC0dBnN0CiuZfnZH78sLxwNFsJ97rmj8sJro/KzX0UNld/K+2+Y757/vryvvYkoh7RYdqa04aGpeUc78Z0b+B6Ucx/4u/R312TWPlaQGNCsfRCs0bL3m34NBa+U0ZJjYBVoRSZjj494+cFrbGZORI3jue3i67oEig8Y9WNbJeKW97gp+dkPym+sorM/MtOSGFDmvSYr7wVrtOxNrFkRHSxnXveoSVBxzDNVvyojO2tmf8nHyAoOytXrmUN2nZMfHjT5N3x7llE0Do1tg/PRYuEUplP9rVW5vJV1bu5z5XeBmtejVWxsPnj0iX0mX5nfPJSe2aZew7UbwRotg811gJxyXY8KrmnJcoEQQgghhO4PtQOjpctohkavSotlZ+rQaDFaung8GIBZ2UU6X52JrN2wLms/PeoGpycnb8rKWjj7JH3cIkZL5p11d/d/l5y5kpidEyqcIZJz0O+OHXm8IrpdbNZC3uMm5ddjGZlN/2b21PbYori5B5RG7a5JuP7ImStLkZlL6cGyuybajJZfj8uB2IyW6mKuS1sXJFT2oNylP8+gPLeCtCZNkHjag7xxdNLEVotHGO9MoyVxjJzxzTo3N6Nlzxm5qv3WqO7j2So2Lo47T8rMZ8H6OLG1ZpwS19DNNhuQXd+ddOsyZR0j+5gVXNMS5QIhhBBCCN0/agdGS5fRDI1elRbLztSp0WJnluxqueaFOli/G7zVpZTRYhcatQNPdd2TYD2L6EKtqvIO+t0aDslHVYzcuhfR9Oc8bkLu3JQ1UJzCtTWia3DkGlC2uybBNU+9utiZPvGBv7smOddoqSzmioK1eI7KxcQ6HIHsgsUmnS/Pxj+/e9OlK9egPK+S66yoj/UEs5RqmkEV1dpFOWp/O5v4/ONyeSvz3Fw+UvJwQq1iEyubbqHfgcRsssQ1dHnypMwkDMYbr2/PeT0quKaFywVCCCGEELqf1A6Mli6jGRq9Ki2WnSkYdKtrtHzRHJBkGi1uoLlXzqmmR6ClsX1u9sQF/8aTtU+uyoUX96be2pPLaLEGzU7zuxav3Q3e0LJVDrw+499ytCZL12dk/NQZmQkXvcw96A8eUbJ38ycbbzSZkZGn98quhFGU67gx+QF05huV1mTy95qLoOYeULa9Jv5xJTtDwb9JyJ3Tk8GblJJGS+3hrcpbh+KP8FQb84Tc7IjWC9g642dgnwy/52eRuLf8mGu0M+/APqGVi3LyWyMyfumqP58VuXll0r3pJ74Qb2AYbj9xMXi7UFhm/FuH9n67GbeVj6/K5NhJGb8W/ja4vgNPDMtsuM31cTn+zV2l8lb2ufm3Dj18QM6Eb3v6YkluXBqXkbMzuWKTLJtBekweaKw9lLiGztwx35t6JTze1bHjstfEJO/16PiaFi4XCCGEEELoflI7MFq6jGZo9Kq0WHYmP0XfDJLSag5SMo0WM1icfdkM4mK/q8mjT5oB5YIfdN61r1Hd11inYevOw3Jm1gxcf7i3uNHiBk/RYzUVHajXFyZl+PAu98YY+13ta3vl8KsX5WaZx1hM+mdePSy7Hrb7Cs/Nnnd8MGzV9rhRuUVw029LiSo6cyT3gDLPNblzQ8410hl+t+LedpQ0Wk7OmGs16ReDdee0T05O3EzN1qg05hG58/b7jCuyr7trZiB/VPa5a9RM44p980yeQXlS9Rtywa4p5M853OfRN2ZkKfG4Wv36OTns17mpfe1MZGA/K+e+1cz39lGVA986J1ej13vtqjnOPvU6FM1brc+t7q5hmE53rG8eluGfNq9jq99rZdM9vtdYryV9DZd+elL2hfGzj+m8PisrCxdkb97r0ek1LVMuEEIIIYTQfaN2YLR0Gc3Q6FVpseya7i7J5O89KvtOTcoNf0fe6ZMbMvmqncViBjmsf3BvxTVBKC3KBUIIIYTQA6d2YLR0Gc3Q6FVpseyaro1IbWBYZrUBinttavPVsegeiWuCUFqUC4QQQgihB07twGjpMpqh0avSYtk1uXUY/NuEwsdD6uF6HzVem9oNcU0QSotygRBCCCH0wKkdGC1dRjM0elVaLLuptQ/i60YMDGyVXYOHZXjyhqwxFb8r4poglBblAiGEEELowVI7MFq6jGZo9Kq0WCKEEEIIIYQQQv2kdmC0dBnN0OhVabFECCGEEEIIIYT6Se3AaOkymqHRq9JiWVavv/46QgghhBBCCCFUqbTxZ9VqB0ZLl9EMjV6VFsuysgUAAAAAAAAAoCowWroojJZy0mJZVhgtAAAAAAAAUCUYLV0URks5abEsK4wWAAAAAAAAqBKMli4Ko6WctFiWFUYLAAAAAAAAVAlGSxeF0VJOWizLCqMFAAAAAAAAqgSjpYvCaCknLZZlhdECAAAAAAAAVYLR0kVhtJSTFsuywmgBAAAAAACAKsFo6aIwWspJi2VZYbQAAAAAAABAlWC0dFEYLeWkxbKsMFoAAAAAAACgSjBauiiMlnLSYllWGC0AAAAAAABQJRgtXRRGSzlpsSwrjBYAAAAAAACoEoyWLgqjpZy0WJYVRgsAAAAAAABUCUZLF4XRUk5aLMsKowUAAAAAAACqBKOli8JoKSctlmWF0QIAAAAAAABVgtHSRWG0lJMWy7LCaAEAAAAAAIAqwWjpojBaykmLZVlhtAAAAAAAAECVYLR0URgt5aTFsqwwWgAAAAAAAKBKMFq6KIyWctJiWVYYLQAAAAAAAFAlGC1dFEZLOWmxLCuMFgAAAAAAAKgSjJYuCqOlnLRYlhVGCwAAAAAAAFQJRksXhdFSTlosywqjBQAAAAAAAKoEo6WLwmgpJy2WZYXRAgAAAAAAAFWC0dJFYbSUkxbLssJoAQAAAAAAgCrBaOmiMFrKSYtlWWG0AAAAAAAAQJVgtHRRGC3lpMWyrDBaAAAAAAAAoEowWroojJZy0mJZVhgtAAAAAAAAUCUYLV0URks5abEsK4wWAAAAAAAAqBKMli4Ko6WctFiWFUYLAAAAAAAAVAlGSxeF0VJOWizLCqMFAAAAAAAAqgSjpYvCaCknLZZlhdECAAAAAAAAVYLR0kVhtJSTFsuywmgBAAAAAACAKsFo6aIwWspJi2VZYbQAAAAAAABAlWC0dFEYLeWkxbKsMFoAAAAAAACgSjBauiiMlnLSYllWGC0AAAAAAABQJRgtXRRGSzlpsSwrjBYAAAAAAACoEoyWLgqjpZy0WJYVRgsAAAAAAABUCUZLF4XRUk5aLMsKowUAAAAAAACqBKOli8JoKSctlmWF0QIAAAAAAABVgtHSRWG0lJMWy7LCaAEAAAAAAIAqwWjpojBaykmLZVlhtAAAAAAAAECVYLR0URgt5aTFsqwwWgAAAAAAAKBKMFq6KIyWctJiWVYYLQAAAAAAAFAlGC1dFEZLOWmxLCuMFgAAAAAAAKgSjJYuCqOlnLRYlhVGCwAAAAAAAFQJRksXhdFSTlosywqjBQAAAAAAAKoEo6WLwmgpJy2WZYXRAgAAAAAAAFWC0dJFYbSUkxbLssJoAQAAAAAAgCrBaOmiMFrKSYtlWWG0AAAAAAAAQJVgtHRRGC3lpMWyrDBaAAAAAAAAoEowWroojJZy0mJZVhgtAAAAAAAAUCU9Y7RY06Ef1StohkavSstgZYXRAgAAAAAAAFXCjJYuCqOlnLRYlhVGCwAAAAAAAFQJRksXhdFSTlosywqjBQAAAAAAAKoEo6WLwmgpJy2WZYXRAgAAAAAAAFWC0dJFYbSUkxbLssJoAQAAAAAAgCrBaOmiMFrKSYtlWWG0AAAAAAAAQJVgtHRRGC3lpMWyrDBaAAAAAAAAoEowWroojJZy0mJZVhgtAAAAAAAAUCUYLV0URks5abEsK4wWAAAAAAAAqBKMli4Ko6WctFiWFUYLAAAAAAAAVMl9a7SMzNyQ3znxlvyzZ872hGxabJq0tGYJo6WctFiWFUYLAAAAAAAAVMl9abRYQ+N3X/4z+eXnf+t/3n1sWmyaipgtGC3lpMWyrDBaAAAAAAAAoEruS6PFzh7pJZMlxKbJpk1LsyaMlnLSYllWGC0AAAAAAABQJfel0WIf1elVbNq0NGvCaCknLZZlhdECAAAAAAAAVYLRUjEYLZsvLZZlhdECAAAAAAAAVYLRUjEYLZsvLZZlhdECAAAAAAAAVYLRUjEYLZsvLZZlhdECAAAAAAAAVYLRUjEYLZsvLZZlhdECAAAAAAAAVYLRUjEYLZsvLZZlhdECAAAAAAAAVYLRUjEYLZsvLZZlhdECAAAAAAAAVYLRUjEYLZsvLZZlhdECAAAAAAAAVdJXRsu//vVqS31W/x/8luXBaNl8abEsK4wWAAAAAAAAqJK+Mlrs71rpf/38Obmy/Dd+63LY/Whp1oTRUk5aLMsKowUAAAAAAACqpO+Mlg+++I3/L87AKz+W/9N3x+V/9dwbMvtv1/ynxcFo2XxpsSwrjBYAAAAAAACoEowWjzVazv3yExmamHVmy+Wlv/bfFAOjZfOlxbKsMFoAAAAAAACgSjBaPNZo+c9P/qlsPfWu/MeHv+/MljJgtGy+tFiWFUYLAAAAAAAAVEnfGS03butGy/ev3JJv//l1p//qT/+yo2NoadaE0VJOWizLCqMFAAAAAAAAqqTvjJZ/c/vf+f+yuf5X/w6jpYelxbKsMFoAAAAAAACgSjBaFDBaeltaLMsKowUAAAAAAACqBKNFAaOlt6XFsqwwWgAAAAAAAKBK+s5oyVoMNwpGS29Li2VZYbQAAAAAAABAlTCjRQGjpbelxbKsMFoAAAAAAACgSjBaFDBaeltaLMsKowUAAAAAAACqBKNFAaOlt6XFsqwwWgAAAAAAAKBKMFoUMFp6W1osywqjBQAAAAAAAKoEo0UBo6W3pcWyrDBaAAAAAAAAoEowWhQwWnpbWizLCqMFAAAAAAAAqqTvjJaBV34sW0+921L/xStvY7T0sLRYlhVGCwAAAAAAAFRJXxkt3/7z64VUBoyWzZcWy7LCaAEAAAAAAIAq6Suj5V6A0bL50mJZVhgtAAAAAAAAUCUYLRWD0bL50mJZVhgtAAAAAAAAUCUYLRWD0bL50mJZVhgtAAAAAAAAUCUYLRWD0bL50mJZVhgtAAAAAAAAUCUYLRWD0bL50mJZVhgtAAAAAAAAUCUYLRWD0bL50mJZVhgtAAAAAAAAUCUYLRWD0bL50mJZVhgtAAAAAAAAUCUYLRWD0bL50mJZVhgtAAAAAAAAUCUYLRWD0bL50mJZVhgtAAAAAAAAUCX3pdHyOyfekl9+/rf+p72DTZNNm5ZmTRgt5aTFsqwwWgAAAAAAAKBK7kujZWTmhvzuy3/WU2aLTYtNk02blmZNGC3lpMWyrDBaAAAAAAAAoEruS6PFyhoadvaIfVSnF2TTUsRkscJoKSctlmWF0QIAAAAAAABVct8aLQ+CMFrKSYtlWWG0AAAAAAAAQJVgtHRRGC3lpMWyrDBaAAAAAAAAoEowWroojJZy0mJZVhgtAAAAAAAAUCUYLV0URks5abEsK4wWAAAAAAAAqBKMli4Ko6WctFiWFUYLAAAAAAAAVAlGSxeF0VJOWizLCqMFAAAAAAAAqgSjpYvCaCknLZZlhdECAAAAAAAAVYLR0kVhtJSTFsuywmgBAAAAAACAKsFo6aIwWspJi2VZYbQAAAAAAABAldy3RsvIzA35nRNvyT975mxPyKbFpklLa5YwWspJi2VZYbQAAAAAAABAldyXRos1NH735T+TX37+t/7n3cemxaapiNmC0VJOWizLCqMFAAAAAAAAquS+NFrs7JFeMllCbJps2rQ0a8JoKSctlmWF0QIAAAAAAABVcl8aLfZRnV7Fpk1LsyaMlnLSYllWGC0AAAAAAABQJRgtFYPRsvnSYllWGC0AAAAAAABQJRgtFYPRsvnSYllWGC0AAAAAAABQJRgtFYPRsvnSYllWGC0AAAAAAABQJRgtFYPRsvnSYllWGC0AAAAAAABQJRgtFYPRsvnSYllWGC0AAAAAAABQJRgtFYPRsvnSYllWGC0AAAAAAABQJRgtFYPRsvnSYllWGC0AAAAAAABQJX1vtNz+u/9Rvrj7W/9f52C0bL60WJYVRgsAAAAAAABUSV8bLf/8ez9x+7La8kdT/tPOwGjZfGmxLCuMFgAAAAAAAKiSvjVaFlbr8r88/H1ZunNXFo3+o0P/Um79zd/5b8uD0bL50mJZVhgtAAAAAAAAUCV9a7T8fz9ekf/sxQv+P5H/9IUfyvSvbvv/yoPRsvnSYllWGC0AAAAAAABQJX1rtPzD//yV/G+ePyeP/3BGdo/+/+Q/OToq/+Grf/TflgejZfOlxbKsMFoAAAAAAACgSvrWaLHUf/s/yejVT2Rsfsn9XQUYLZsvLZZlhdECAAAAAAAAVdKXRss//tM/yfxf3ZF//evVhj5a/e/9t52B0bL50mJZVhgtAAAAAAAAUCV9abS88rMP3T6S+vmna36L8tj9aGnWhNFSTlosywqjBQAAAAAAAKqkL42W/+pP/1L+xZ/O+v8C/otX3pbvX7nl/ysPRsvmS4tlWWG0AAAAAAAAQJX0pdHy7DtX5P/43/xIPqv/D/4TkYFXfixv/vJX/r/yYLRsvrRYlhVGCwAAAAAAAFRJXxott//uf5T/y/DbsVktGC26qdGL0mJZVhgtAAAAAAAAUCV9abRY/nj2ptT+8B3/X2C0vHEFo+V+kBbLssJoAQAAAAAAgCrpW6Pl7C9uyf/9ez/x/4n83179ifzLOdZouR+kxbKsMFoAAAAAAACgSvrSaPntxv8s/+Ub0/L/+ek1/4nI/+vCZdl17pJ8ab7rBIyWzZcWy7LCaAEAAAAAAIAq6Tuj5TvT/0b+F//vf+lmsHz6m+ZiuPbv//23/8R999/+xQf+0+JgtGy+tFiWFUYLAAAAAAAAVEnfGS3WYHkpw0j56h//SY5fnJd/HnmkqCgYLZsvLZZlhdECAAAAAAAAVdJ3RstDI5Oy/ft/Lt/+8+uq7Hdb/mjKb10cjJbNlxbLssJoAQAAAAAAgCrpO6Pl4q2/Ug2WqKZ/ddtvXRyMls2XFsuywmgBAAAAAACAKuk7o2WzwWjZfGmxLCuMFgAAAAAAAKgSjJaKwWjZfGmxLCuMFgAAAAAAAKgSjJaKwWjZfGmxLCuMFgAAAAAAAKgSjJaKwWjZfGmxLCuMFgAAAAAAAKgSjJaKwWjZfGmxLCuMFgAAAAAAAKgSjJaKwWjZfGmxLCuMFgAAAAAAAKgSjJaKwWjZfGmxLCuMFgAAAAAAAKgSjJaKwWjZfGmxLCuMFgAAAAAAAKgSjJaKwWjZfGmxLCuMFgAAAAAAAKiS+9Jo+Z0Tb8kvP/9b/9PewabJpk1LsyaMlnLSYllWGC0AAAAAAABQJfel0TIyc0N+9+U/6ymzxabFpsmmTUuzJoyWctJiWVYYLQAAAAAAAFAl96XRYmUNDTt7xD6q0wuyaSlislhhtJSTFsuywmgBAAAAAACAKrlvjZYHQRgt5aTFsqwwWgAAAAAAAKBKMFq6KIyWctJiWVYYLQAAAAAAAFAlGC1dFEZLOWmxLCuMFgAAAAAAAKgSjJYuCqOlnLRYlhVGCwAAAAAAAFQJRksXhdFSTlosywqjBQAAAAAAAKoEo6WLwmgpJy2WZYXRAgAAAAAAAFWC0dJFYbSUkxbLssJoAQAAAAAAgCrBaOmiMFrKSYtlWWG0AAAAAAAAQJVgtHRRGC3lpMWyrDBaAAAAAAAAoEruW6NlZOaG/M6Jt+SfPXO2J2TTYtOkpTVLGC3lpMWyrDBaAAAAAAAAoEruS6PFGhq/+/KfyS8//1v/8+5j02LTVMRswWgpJy2WZYXRAgAAAAAAAFVyXxotdvZIL5ksITZNNm1amjVhtJSTFsuywmgBAAAAAACAKrkvjRb7qE6vYtOmpVkTRks5abEsK4wWAAAAAAAAqBKMlorBaNl8abEsK4wWAAAAAAAAqBKMlorBaNl8abEsK4wWAAAAAAAAqBKMlorBaNl8abEsK4wWAAAAAAAAqBKMlorBaNl8abEsK4wWAAAAAAAAqBKMlorBaNl8abEsK4wWAAAAAAAAqBKMlorBaNl8abEsK4wWAAAAAAAAqBKMlorBaNl8abEsK4wWAAAAAAAAqJK+NVr+w1f/KO/9+q/lj/71R3Lj9m/kn/7Jf9EhGC2bLy2WZYXRAgAAAAAAAFXSt0bLf/1nv3D7CXX+/SX/TWdgtGy+tFiWFUYLAAAAAAAAVEnfGi3/2YsXYkbL/+PNS/6bzsBo2XxpsSwrjBYAAAAAAACokr41Wh7+734aM1qen/yl/6YzMFo2X1osywqjBQAAAAAAAKqkb42Wv/jkC/k/fPtP3L7+r6/+WH797/7ef9MZGC2bLy2WZYXRAgAAAAAAAFXSt0aLxS6Au3Tnrv+vGjBaNl9aLMsKowUAAAAAAACqpK+Nls0Ao2XzpcWyrDBaAAAAAAAAoEr61mjh9c5xNEOjV6XFsqwwWgAAAAAAAKBK+tZoOfyTK24/od76N//Wf9MZGC2bLy2WZYXRAgAAAAAAAFXSt0bLf37yT2NGy//z/M/8N52B0bL50mJZVhgtAAAAAAAAUCV9a7T8n//biZjRsm/ssv+mMzBaNl9aLMsKowUAAAAAAACqpG+Nlv9u9mbDZPmPD39f/vLfrvpvOgOjZfOlxbKsMFoAAAAAAACgE/7Fv/gXTiF9a7RYluvr8v0rt+S///If/Cedg9Gy+dJiWVYYLQAAAAAAAFCW0GTBaNlEMFo2X1osywqjBQAAAAAAAMoQGiw///nP/ScBfW20/E//4Sv54IvfyD9W9W5nA0bL5kuLZVlhtAAAAAAAAEBRskwWS98aLWd/ccutzWL39b89Miq/+Oxv/DedgdGy+dJiWVYYLQAAAAAAAFCEViaLpW+Nln/+vZ+4/YR65u1f+G86A6Nl86XFsqwwWgAAAAAAACAv7UwWS98aLf+74xdiRst/+ca0/6YzMFo2X1osywqjBQAAAAAAAPKQZbKEn4f0rdFiZ7BEjZbz7y/5bzoDo2XzpcWyrDBaAAAAAAAAoB3tTBaMlk0Eo2XzpcWyrDBaAAAAAAAAoBXtTJbk5xgtFYPRsvnSYllWGC0AAAAAAACQRVGTxYLRUjEYLZsvLZZlhdECAAAAAAAAGmVMFgtGS8VgtGy+tFiWFUYLAAAAAAAAZGENFY2szy0YLRWD0bL50mJZVhgtAAAAAAAAUCUYLRWD0bL50mJZVrYAIIQQQgghhBBCVUobf1atdmC0dBnN0OhVabFECCGEEEIIIYT6Se3AaOkymqHRq9JiiRBCCCGEEEII9ZPaUcho+Z0Tb8kvP/9b/9PewabJpk1LsyaMlnLSYokQQgghhBBCCPWT2lHIaBmZuSG/+/Kf9ZTZYtNi02TTpqVZE0ZLOWmxRAghhBBCCCGE+kntKGS0WFlDw84esY/q9IJsWoqYLFYYLeWkxRIhhBBCCCGEEOontaOw0fIgCKOlnLRYIoQQQgghhBBC/aR2YLR0Gc3Q6FVpsUQIIYQQQgghhPpJ7cBo6TKaodGr0mKJEEIIIYQQQgj1k9qB0dJlNEOjV6XFEiGEEEIIIYQQ6ie1A6Oly2iGRq9Ki2WluvZHsvW5n8hfad89UJqXP9r6e/KTZe27+1kP6nnF9Vdz/0rm/1r/Lqa+yc/Vqn7jvPze7kdl69ZH5ekf3VK3QQghhBBCqJtqjcj/H3tPzu+QwXSwAAAAAElFTkSuQmCC;" vertex="1" parent="1">
                    <mxGeometry y="70" width="382.78" height="298.94" as="geometry"/>
                </mxCell>
            </root>
        </mxGraphModel>
    </diagram>
</mxfile>